<svg width="143" height="25" viewBox="0 0 143 25" fill="none" xmlns="http://www.w3.org/2000/svg">
<g clip-path="url(#clip0)">
<path d="M127.792 5.47707C128.259 5.45782 128.71 5.29798 129.089 5.01743C129.467 4.73688 129.758 4.34801 129.923 3.8992C130.089 3.4504 130.122 2.96146 130.02 2.49321C129.917 2.02497 129.683 1.59809 129.346 1.26568C129.009 0.933276 128.585 0.710017 128.125 0.623672C127.666 0.537326 127.192 0.591708 126.763 0.780057C126.333 0.968406 125.967 1.28241 125.71 1.683C125.453 2.08358 125.316 2.55307 125.316 3.03306C125.321 3.36115 125.389 3.68496 125.517 3.9858C125.644 4.28663 125.828 4.55853 126.059 4.78577C126.289 5.01302 126.561 5.19111 126.858 5.30977C127.156 5.42842 127.473 5.48528 127.792 5.47707Z" fill="#ED1B2F"/>
<path d="M62.517 0.58443C62.0504 0.603686 61.5997 0.763537 61.2209 1.04408C60.842 1.32463 60.5518 1.71349 60.3862 2.1623C60.2207 2.61111 60.1872 3.10005 60.2898 3.56829C60.3925 4.03653 60.6268 4.46341 60.9636 4.79582C61.3004 5.12823 61.7249 5.3515 62.1842 5.43784C62.6435 5.52419 63.1173 5.4698 63.5468 5.28145C63.9762 5.0931 64.3423 4.77911 64.5995 4.37852C64.8567 3.97793 64.9937 3.50843 64.9934 3.02845C64.9879 2.7005 64.9193 2.37691 64.7917 2.07629C64.6641 1.77568 64.4799 1.50399 64.2497 1.27684C64.0196 1.04969 63.748 0.871577 63.4506 0.752746C63.1532 0.633916 62.8359 0.576708 62.517 0.58443Z" fill="#ED1B2F"/>
<path d="M21.0949 6.38818C15.5831 6.38818 11.8967 10.4761 11.8967 15.4805C11.8865 16.4748 12.031 17.4644 12.3248 18.4119H7.44975V0.281773H3.20444C2.45439 0.267161 1.72937 0.559283 1.18873 1.09394C0.64808 1.6286 0.336036 2.36206 0.321167 3.13312V21.1796C0.336036 21.9506 0.64808 22.6841 1.18873 23.2187C1.72937 23.7534 2.45439 24.0455 3.20444 24.0309H21.7812C25.6975 24.0018 29.2954 22.7289 30.6256 19.052H24.4204C23.8827 19.8812 22.7081 20.2776 21.6326 20.2776C19.5489 20.2776 18.4062 18.8847 18.2364 16.9244H31.0112C31.0112 10.2179 28.0183 6.37727 21.1055 6.37727L21.0949 6.38818ZM18.2753 13.4875C18.576 11.6253 19.7187 10.5961 21.7034 10.5961C22.082 10.5804 22.4598 10.6436 22.814 10.7819C23.1682 10.9202 23.4915 11.1308 23.7645 11.4009C24.0375 11.671 24.2545 11.9951 24.4025 12.3537C24.5505 12.7123 24.6264 13.0979 24.6256 13.4875H18.2753Z" fill="#ED1B2F"/>
<path d="M79.3106 13.6041C77.0924 12.8767 74.57 12.7421 73.4627 12.2766C73.0912 12.1093 72.6879 11.8766 72.6879 11.3783C72.6879 10.2508 73.7492 10.0508 74.7044 10.0508C75.2377 10.0422 75.7584 10.2176 76.1832 10.5491C76.4034 10.6858 76.5886 10.8746 76.7234 11.0998C76.8582 11.325 76.9386 11.5801 76.958 11.8438H83.0076C82.8378 7.42859 78.3023 6.38843 74.5382 6.38843C71.0428 6.38843 66.3022 7.51952 66.3022 11.8693C66.3022 14.8261 68.3541 16.4191 73.4273 17.2847C76.5193 17.8157 77.0924 18.1139 77.0924 19.1031C77.0924 20.0924 75.7127 20.4306 74.8389 20.4306C74.2118 20.471 73.5895 20.2957 73.07 19.9323C72.8363 19.7526 72.6433 19.523 72.5041 19.2593C72.3648 18.9957 72.2827 18.7042 72.2634 18.4048H65.8954C65.998 22.8564 70.4945 24.4821 74.6018 24.4821C78.8472 24.4821 83.4745 23.1874 83.4745 18.4048C83.4745 15.5826 81.5252 14.2878 79.3071 13.5895" fill="#ED1B2F"/>
<path d="M93.5927 19.7141C91.0385 19.7141 90.6705 17.5574 90.6705 15.4626C90.6705 13.3677 91.0243 11.1783 93.5927 11.1783C94.2017 11.1483 94.8001 11.3503 95.2732 11.7456C95.4992 11.9501 95.6826 12.1996 95.8121 12.479C95.9416 12.7585 96.0146 13.062 96.0267 13.3713H102.345C101.928 8.62151 98.0291 6.38843 93.4583 6.38843C88.2153 6.38843 84.016 10.0254 84.016 15.4553C84.016 20.8852 88.2153 24.4894 93.4583 24.4894C95.8109 24.4894 97.93 23.8275 99.5079 22.5982C100.341 21.9516 101.038 21.1386 101.558 20.208C102.078 19.2774 102.409 18.2484 102.533 17.1828H96.1824C96.1396 17.8616 95.8491 18.4988 95.3689 18.9668C94.8887 19.4348 94.2544 19.6991 93.5927 19.7069" fill="#ED1B2F"/>
<path d="M49.5513 6.34238C47.5631 6.34238 45.773 7.21161 44.7647 8.6773H44.6975V0.27599H40.8944C40.1456 0.260376 39.4212 0.550569 38.8801 1.08299C38.339 1.61541 38.0252 2.34663 38.0076 3.11643V21.1665C38.015 21.5486 38.0955 21.9255 38.2445 22.2756C38.3936 22.6257 38.6083 22.9422 38.8764 23.207C39.1445 23.4718 39.4607 23.6797 39.8069 23.8188C40.1532 23.9579 40.5227 24.0256 40.8944 24.0179H44.4605V22.1521H44.5277C45.3697 23.2432 46.3815 24.4834 49.6504 24.4834C54.6032 24.4834 57.0018 19.6535 57.0018 15.322C57.0018 11.2595 55.4169 6.32783 49.5513 6.32783V6.34238ZM47.3933 19.6863C44.9982 19.6863 44.4605 17.4568 44.4605 15.3911C44.4605 13.3253 44.9982 11.1249 47.3933 11.1249C49.7883 11.1249 50.3261 13.358 50.3261 15.3911C50.3261 17.4241 49.7883 19.6863 47.3933 19.6863Z" fill="#ED1B2F"/>
<path d="M58.2997 9.66133V21.1758C58.307 21.558 58.3876 21.9348 58.5366 22.2849C58.6857 22.6351 58.9004 22.9515 59.1685 23.2163C59.4366 23.4811 59.7528 23.689 60.099 23.8281C60.4453 23.9673 60.8148 24.0349 61.1865 24.0272H64.9684V6.81725H61.1865C60.4364 6.80165 59.711 7.09285 59.1697 7.62683C58.6284 8.16081 58.3155 8.8939 58.2997 9.66497" fill="#ED1B2F"/>
<path d="M123.621 9.66102V21.1755C123.636 21.9466 123.948 22.68 124.488 23.2147C125.029 23.7494 125.754 24.0415 126.504 24.0269H130.272V6.81694H126.49C125.743 6.80619 125.023 7.09905 124.486 7.63174C123.948 8.16442 123.638 8.89378 123.621 9.66102Z" fill="#ED1B2F"/>
<path d="M138.66 13.7893V10.8798H142.198V6.84644H138.66V0.281774H134.879C134.129 0.267154 133.405 0.558779 132.864 1.09266C132.323 1.62654 132.011 2.35907 131.995 3.1295V13.1201V19.1174C131.995 23.8236 135.116 24.2564 137.932 24.2564C139.347 24.2564 140.85 24.0564 142.177 24.0564V19.0738C141.677 19.1403 141.174 19.1743 140.67 19.1756C138.993 19.1756 138.621 18.4773 138.621 16.888V13.7893H138.66Z" fill="#ED1B2F"/>
<path d="M115.071 9.66126V10.9378V16.5023C114.873 18.7645 113.5 19.2482 112.442 19.2482C110.635 19.2482 110.302 18.048 110.263 16.2841V6.82809H106.464C105.714 6.81347 104.99 7.10509 104.449 7.63897C103.909 8.17285 103.596 8.90538 103.58 9.67581V18.1862V18.6663C103.58 22.616 106.435 24.5072 109.563 24.5072C112.216 24.5072 113.995 23.6125 115.223 21.885H115.29V24.0671H121.708V18.1753V6.81717H117.961C117.212 6.80255 116.487 7.09418 115.947 7.62806C115.406 8.16194 115.094 8.89447 115.078 9.6649" fill="#ED1B2F"/>
</g>
<defs>
<clipPath id="clip0">
<rect width="141.85" height="24.2183" fill="white" transform="translate(0.337433 0.28125)"/>
</clipPath>
</defs>
</svg>
