<svg width="182" height="32" viewBox="0 0 182 32" fill="none" xmlns="http://www.w3.org/2000/svg">
<g clip-path="url(#clip0)">
<g clip-path="url(#clip1)">
<path d="M163.574 7.65068C164.172 7.62603 164.748 7.42143 165.233 7.06233C165.718 6.70323 166.09 6.20547 166.302 5.631C166.514 5.05653 166.557 4.43068 166.425 3.83133C166.294 3.23198 165.994 2.68558 165.563 2.26009C165.132 1.83461 164.588 1.54884 164 1.43832C163.412 1.3278 162.806 1.39741 162.256 1.63849C161.707 1.87958 161.238 2.2815 160.909 2.79425C160.579 3.307 160.404 3.90795 160.405 4.52233C160.411 4.94229 160.498 5.35677 160.661 5.74184C160.825 6.12691 161.06 6.47494 161.355 6.76581C161.65 7.05668 161.998 7.28464 162.379 7.43652C162.76 7.5884 163.166 7.66118 163.574 7.65068Z" fill="white"/>
<path d="M80.0217 1.38809C79.4246 1.41274 78.8477 1.61735 78.3627 1.97645C77.8778 2.33555 77.5063 2.83329 77.2944 3.40776C77.0825 3.98224 77.0396 4.60808 77.171 5.20743C77.3024 5.80678 77.6023 6.35319 78.0335 6.77867C78.4646 7.20415 79.0079 7.48994 79.5958 7.60046C80.1837 7.71098 80.7902 7.64136 81.3399 7.40027C81.8896 7.15919 82.3582 6.75728 82.6874 6.24453C83.0167 5.73177 83.192 5.13082 83.1916 4.51643C83.1845 4.09666 83.0968 3.68246 82.9334 3.29768C82.7701 2.91289 82.5343 2.56513 82.2397 2.27438C81.9451 1.98363 81.5975 1.75564 81.2168 1.60353C80.8362 1.45143 80.43 1.37821 80.0217 1.38809Z" fill="white"/>
<path d="M27.0015 8.81687C19.9464 8.81687 15.2278 14.0494 15.2278 20.455C15.2148 21.7278 15.3998 22.9945 15.7758 24.2072H9.53572V1.00067H4.10172C3.14165 0.981966 2.21364 1.35588 1.52161 2.04025C0.829582 2.72461 0.430165 3.66343 0.411133 4.6504V27.7498C0.430165 28.7368 0.829582 29.6756 1.52161 30.36C2.21364 31.0444 3.14165 31.4183 4.10172 31.3996H27.88C32.8929 31.3623 37.4982 29.733 39.2008 25.0265H31.2581C30.5698 26.0879 29.0664 26.5953 27.6898 26.5953C25.0226 26.5953 23.56 24.8124 23.3426 22.3032H39.6944C39.6944 13.7189 35.8635 8.8029 27.0151 8.8029L27.0015 8.81687ZM23.3924 17.9039C23.7773 15.5204 25.24 14.203 27.7804 14.203C28.265 14.1829 28.7485 14.2638 29.2019 14.4409C29.6553 14.6179 30.0692 14.8874 30.4186 15.2331C30.7681 15.5789 31.0458 15.9937 31.2353 16.4527C31.4247 16.9117 31.5218 17.4054 31.5208 17.9039H23.3924Z" fill="white"/>
<path d="M101.518 18.0529C98.6783 17.1219 95.4496 16.9496 94.0322 16.3538C93.5567 16.1396 93.0405 15.8417 93.0405 15.2039C93.0405 13.7608 94.399 13.5048 95.6216 13.5048C96.3042 13.4937 96.9707 13.7183 97.5145 14.1425C97.7963 14.3175 98.0334 14.5592 98.2059 14.8475C98.3784 15.1358 98.4814 15.4623 98.5062 15.7998H106.25C106.032 10.1483 100.227 8.81689 95.4088 8.81689C90.9348 8.81689 84.8668 10.2647 84.8668 15.8324C84.8668 19.6171 87.4933 21.6561 93.9869 22.7641C97.9447 23.4437 98.6783 23.8255 98.6783 25.0917C98.6783 26.3579 96.9122 26.7909 95.7937 26.7909C94.991 26.8425 94.1945 26.6182 93.5295 26.1531C93.2305 25.923 92.9834 25.6292 92.8052 25.2917C92.627 24.9542 92.5219 24.5811 92.4971 24.1979H84.3461C84.4774 29.896 90.2329 31.9769 95.4903 31.9769C100.924 31.9769 106.847 30.3196 106.847 24.1979C106.847 20.5854 104.352 18.9281 101.513 18.0343" fill="white"/>
<path d="M119.799 25.8738C116.529 25.8738 116.058 23.1132 116.058 20.4318C116.058 17.7504 116.511 14.9479 119.799 14.9479C120.578 14.9095 121.344 15.1681 121.95 15.6741C122.239 15.9358 122.474 16.2552 122.64 16.6129C122.805 16.9706 122.899 17.3591 122.914 17.755H131.002C130.467 11.6752 125.477 8.81689 119.627 8.81689C112.916 8.81689 107.541 13.4722 107.541 20.4225C107.541 27.3728 112.916 31.9862 119.627 31.9862C122.638 31.9862 125.35 31.1389 127.37 29.5654C128.436 28.7377 129.329 27.6971 129.994 26.5059C130.66 25.3148 131.084 23.9977 131.242 22.6337H123.113C123.059 23.5026 122.687 24.3181 122.072 24.9172C121.458 25.5162 120.646 25.8546 119.799 25.8645" fill="white"/>
<path d="M63.4256 8.75794C60.8807 8.75794 58.5894 9.87055 57.2988 11.7466H57.2127V0.992954H52.3448C51.3862 0.972969 50.4591 1.34442 49.7665 2.02591C49.0738 2.70741 48.6722 3.64338 48.6497 4.62872V27.7328C48.6591 28.2219 48.7621 28.7043 48.953 29.1525C49.1438 29.6006 49.4186 30.0057 49.7617 30.3446C50.1049 30.6836 50.5096 30.9497 50.9528 31.1278C51.396 31.3058 51.869 31.3924 52.3448 31.3825H56.9093V28.9944H56.9954C58.0731 30.391 59.3682 31.9784 63.5524 31.9784C69.8921 31.9784 72.9623 25.7962 72.9623 20.2518C72.9623 15.0519 70.9336 8.73931 63.4256 8.73931V8.75794ZM60.6633 25.8381C57.5976 25.8381 56.9093 22.9844 56.9093 20.3402C56.9093 17.6961 57.5976 14.8796 60.6633 14.8796C63.729 14.8796 64.4173 17.738 64.4173 20.3402C64.4173 22.9425 63.729 25.8381 60.6633 25.8381Z" fill="white"/>
<path d="M74.6235 13.0064V27.745C74.633 28.2341 74.736 28.7165 74.9268 29.1646C75.1177 29.6128 75.3925 30.0179 75.7356 30.3568C76.0788 30.6958 76.4835 30.9619 76.9267 31.1399C77.3699 31.318 77.8429 31.4046 78.3187 31.3947H83.1595V9.366H78.3187C77.3586 9.34603 76.4301 9.71877 75.7372 10.4023C75.0443 11.0858 74.6437 12.0241 74.6235 13.0111" fill="white"/>
<path d="M158.235 13.006V27.7446C158.254 28.7316 158.653 29.6704 159.345 30.3547C160.037 31.0391 160.965 31.413 161.925 31.3943H166.748V9.3656H161.907C160.952 9.35185 160.03 9.72671 159.342 10.4085C158.654 11.0904 158.256 12.024 158.235 13.006Z" fill="white"/>
<path d="M177.485 18.2903V14.5661H182.014V9.40344H177.485V1.00067H172.644C171.685 0.981958 170.758 1.35524 170.066 2.0386C169.374 2.72197 168.974 3.6596 168.954 4.64575V17.4338V25.1103C168.954 31.1342 172.948 31.6882 176.552 31.6882C178.364 31.6882 180.288 31.4322 181.986 31.4322V25.0544C181.347 25.1396 180.702 25.1831 180.057 25.1848C177.911 25.1848 177.435 24.291 177.435 22.2566V18.2903H177.485Z" fill="white"/>
<path d="M147.291 13.0063V14.6403V21.7629C147.037 24.6585 145.28 25.2776 143.926 25.2776C141.612 25.2776 141.187 23.7414 141.137 21.4836V9.37987H136.273C135.314 9.36116 134.387 9.73444 133.695 10.4178C133.003 11.1012 132.603 12.0388 132.583 13.025V23.9183V24.5328C132.583 29.5884 136.237 32.0091 140.24 32.0091C143.636 32.0091 145.914 30.8639 147.485 28.6527H147.572V31.4458H155.786V23.9043V9.36591H150.99C150.031 9.34719 149.104 9.72047 148.412 10.4038C147.72 11.0872 147.32 12.0248 147.3 13.011" fill="white"/>
</g>
</g>
<defs>
<clipPath id="clip0">
<rect width="182" height="32" fill="white"/>
</clipPath>
<clipPath id="clip1">
<rect width="181.568" height="30.9994" fill="white" transform="translate(0.431885 1)"/>
</clipPath>
</defs>
</svg>
