<svg id="Camada_1" data-name="Camada 1" xmlns="http://www.w3.org/2000/svg" xmlns:xlink="http://www.w3.org/1999/xlink" width="520" height="80" viewBox="0 0 520 80"><defs><style>.cls-1{fill:none;}.cls-2{fill:#606060;}.cls-3{clip-path:url(#clip-path);}.cls-4{fill:#ed1b2f;}</style><clipPath id="clip-path"><rect class="cls-1" x="7.73" y="7.61" width="61.48" height="61.48"/></clipPath></defs><path class="cls-2" d="M101.71,20.2v9.52H97.18V5.36h7.43a15.2,15.2,0,0,1,4.27.52,8.16,8.16,0,0,1,2.91,1.43,5.54,5.54,0,0,1,1.67,2.22,7.48,7.48,0,0,1,.53,2.84,7.37,7.37,0,0,1-.36,2.32,6.87,6.87,0,0,1-1,2,7.27,7.27,0,0,1-1.69,1.57,9.22,9.22,0,0,1-2.28,1.07,4.57,4.57,0,0,1,1.48,1.4l6.1,9h-4.08a2,2,0,0,1-1-.24,2,2,0,0,1-.7-.67L105.3,21a1.76,1.76,0,0,0-.63-.62,2.13,2.13,0,0,0-1-.19Zm0-3.25h2.83a7,7,0,0,0,2.23-.32,4.19,4.19,0,0,0,1.57-.89,3.5,3.5,0,0,0,.92-1.33,4.73,4.73,0,0,0,.3-1.71,3.46,3.46,0,0,0-1.22-2.84,5.85,5.85,0,0,0-3.73-1h-2.9Z"/><path class="cls-2" d="M126,12.17a8.38,8.38,0,0,1,3,.52,6.57,6.57,0,0,1,2.36,1.52,6.88,6.88,0,0,1,1.55,2.46,9.3,9.3,0,0,1,.56,3.33c0,.31,0,.57,0,.78a1.18,1.18,0,0,1-.16.49.59.59,0,0,1-.29.25,1.24,1.24,0,0,1-.47.08H121.84a6,6,0,0,0,1.43,3.91,4.46,4.46,0,0,0,3.3,1.24,6,6,0,0,0,1.75-.23A9.16,9.16,0,0,0,129.6,26l1-.52a1.55,1.55,0,0,1,.8-.23.89.89,0,0,1,.75.38l1.22,1.52a6.81,6.81,0,0,1-1.55,1.35,8.57,8.57,0,0,1-1.8.88,9.57,9.57,0,0,1-1.9.46,13.66,13.66,0,0,1-1.88.14,9.19,9.19,0,0,1-3.35-.6,7.51,7.51,0,0,1-2.69-1.77,8.18,8.18,0,0,1-1.81-2.9,11.37,11.37,0,0,1-.65-4,9.61,9.61,0,0,1,.57-3.32,8,8,0,0,1,1.64-2.71,7.68,7.68,0,0,1,2.61-1.83A8.61,8.61,0,0,1,126,12.17Zm.08,3a3.84,3.84,0,0,0-2.84,1,5.13,5.13,0,0,0-1.32,2.92h7.82a5.1,5.1,0,0,0-.22-1.53,3.67,3.67,0,0,0-.67-1.25,3.29,3.29,0,0,0-1.15-.85A3.87,3.87,0,0,0,126.08,15.15Z"/><path class="cls-2" d="M142.54,30a4.52,4.52,0,0,1-3.45-1.27,4.87,4.87,0,0,1-1.22-3.51V15.55h-1.75a.79.79,0,0,1-.82-.87V13l2.78-.45L139,7.85a.89.89,0,0,1,.31-.52,1,1,0,0,1,.62-.18H142v5.44h4.55v3H142v9.37a1.84,1.84,0,0,0,.41,1.26,1.38,1.38,0,0,0,1.08.45,2,2,0,0,0,.64-.09,4.31,4.31,0,0,0,.46-.19,3.4,3.4,0,0,0,.34-.2.61.61,0,0,1,.31-.09.49.49,0,0,1,.3.09,1.81,1.81,0,0,1,.25.28l1.25,2A6.26,6.26,0,0,1,145,29.6,7.73,7.73,0,0,1,142.54,30Z"/><path class="cls-2" d="M155,7.4a2.29,2.29,0,0,1-.22,1A2.8,2.8,0,0,1,153.3,9.8a2.58,2.58,0,0,1-1,.21,2.52,2.52,0,0,1-1-.21,2.71,2.71,0,0,1-.84-.57,2.77,2.77,0,0,1-.56-.82,2.44,2.44,0,0,1-.21-1,2.66,2.66,0,0,1,.21-1.05,2.87,2.87,0,0,1,.56-.84,2.87,2.87,0,0,1,.84-.56,2.52,2.52,0,0,1,1-.21,2.58,2.58,0,0,1,1,.21,2.79,2.79,0,0,1,.85.56,2.74,2.74,0,0,1,.58.84A2.5,2.5,0,0,1,155,7.4Zm-.62,5V29.72h-4.16V12.44Z"/><path class="cls-2" d="M159,29.72V12.44h2.44a1.29,1.29,0,0,1,.89.23,1.39,1.39,0,0,1,.34.81l.25,2.09A8.25,8.25,0,0,1,165.12,13a4.59,4.59,0,0,1,2.8-.92,3.63,3.63,0,0,1,2.12.58l-.54,3.12a.6.6,0,0,1-.22.43.75.75,0,0,1-.45.13,2.76,2.76,0,0,1-.69-.12,4.53,4.53,0,0,0-1.16-.12,3.53,3.53,0,0,0-2.23.72A5.43,5.43,0,0,0,163.19,19V29.72Z"/><path class="cls-2" d="M179.93,12.17a8.29,8.29,0,0,1,3,.52,6.53,6.53,0,0,1,2.37,1.52,7,7,0,0,1,1.55,2.46,9.3,9.3,0,0,1,.56,3.33,5.56,5.56,0,0,1,0,.78,1.05,1.05,0,0,1-.15.49.59.59,0,0,1-.29.25,1.28,1.28,0,0,1-.47.08H175.77a6,6,0,0,0,1.43,3.91,4.46,4.46,0,0,0,3.3,1.24,5.92,5.92,0,0,0,1.74-.23,8.25,8.25,0,0,0,1.28-.53c.37-.19.69-.36,1-.52a1.61,1.61,0,0,1,.8-.23.87.87,0,0,1,.44.1.86.86,0,0,1,.32.28l1.21,1.52a6.76,6.76,0,0,1-1.54,1.35,8.81,8.81,0,0,1-1.8.88,9.74,9.74,0,0,1-1.9.46,13.66,13.66,0,0,1-1.88.14,9.19,9.19,0,0,1-3.35-.6,7.63,7.63,0,0,1-2.7-1.77,8.3,8.3,0,0,1-1.8-2.9,11.14,11.14,0,0,1-.66-4,9.62,9.62,0,0,1,.58-3.32,8,8,0,0,1,1.64-2.71,7.68,7.68,0,0,1,2.61-1.83A8.61,8.61,0,0,1,179.93,12.17Zm.08,3a3.84,3.84,0,0,0-2.84,1,5.06,5.06,0,0,0-1.32,2.92h7.82a5.44,5.44,0,0,0-.22-1.53,3.53,3.53,0,0,0-.68-1.25,3.16,3.16,0,0,0-1.14-.85A3.87,3.87,0,0,0,180,15.15Z"/><path class="cls-2" d="M204.43,12.17a8.38,8.38,0,0,1,3,.52,6.7,6.7,0,0,1,2.37,1.52,7.17,7.17,0,0,1,1.55,2.46,9.3,9.3,0,0,1,.55,3.33,5.75,5.75,0,0,1,0,.78,1.35,1.35,0,0,1-.15.49.61.61,0,0,1-.3.25,1.24,1.24,0,0,1-.47.08H200.27a6,6,0,0,0,1.43,3.91A4.5,4.5,0,0,0,205,26.75a6,6,0,0,0,1.74-.23A8.68,8.68,0,0,0,208,26l1-.52a1.55,1.55,0,0,1,.8-.23.89.89,0,0,1,.44.1.94.94,0,0,1,.32.28l1.21,1.52a6.81,6.81,0,0,1-1.55,1.35,8.49,8.49,0,0,1-1.79.88,9.84,9.84,0,0,1-1.91.46,13.52,13.52,0,0,1-1.87.14,9.24,9.24,0,0,1-3.36-.6,7.51,7.51,0,0,1-2.69-1.77,8.16,8.16,0,0,1-1.8-2.9,11.14,11.14,0,0,1-.66-4,9.61,9.61,0,0,1,.57-3.32,8,8,0,0,1,1.64-2.71A7.82,7.82,0,0,1,201,12.84,8.52,8.52,0,0,1,204.43,12.17Zm.09,3a3.87,3.87,0,0,0-2.85,1,5.12,5.12,0,0,0-1.31,2.92h7.81a5.1,5.1,0,0,0-.22-1.53,3.51,3.51,0,0,0-.67-1.25,3.2,3.2,0,0,0-1.15-.85A3.85,3.85,0,0,0,204.52,15.15Z"/><path class="cls-2" d="M215.3,29.72V12.44h2.54a1,1,0,0,1,1.06.75l.27,1.28a10.28,10.28,0,0,1,1-.92,6.25,6.25,0,0,1,1.06-.73,6,6,0,0,1,1.22-.48,5.7,5.7,0,0,1,1.42-.17,4,4,0,0,1,2.68.88,5.27,5.27,0,0,1,1.58,2.35,5.4,5.4,0,0,1,1-1.47,5.57,5.57,0,0,1,1.33-1,6.76,6.76,0,0,1,1.54-.57,7.63,7.63,0,0,1,1.64-.18,7,7,0,0,1,2.55.43A5,5,0,0,1,238,13.88a5.65,5.65,0,0,1,1.15,2.06,9,9,0,0,1,.4,2.78v11h-4.16v-11a3.74,3.74,0,0,0-.73-2.49,2.67,2.67,0,0,0-2.12-.83,3.11,3.11,0,0,0-1.19.22,2.77,2.77,0,0,0-1.61,1.67,4.16,4.16,0,0,0-.23,1.43v11h-4.18v-11a3.75,3.75,0,0,0-.7-2.53,2.58,2.58,0,0,0-2.06-.79,3.33,3.33,0,0,0-1.68.45,5.45,5.45,0,0,0-1.45,1.22V29.72Z"/><path class="cls-2" d="M254.93,26h9.75v3.74H250.4V5.36h4.53Z"/><path class="cls-2" d="M274.31,12.17a9.37,9.37,0,0,1,3.51.62,7.42,7.42,0,0,1,2.69,1.77,7.88,7.88,0,0,1,1.72,2.79,10.74,10.74,0,0,1,.6,3.69,10.81,10.81,0,0,1-.6,3.71,8.15,8.15,0,0,1-1.72,2.81,7.6,7.6,0,0,1-2.69,1.79,10.27,10.27,0,0,1-7,0,7.64,7.64,0,0,1-2.7-1.79,8,8,0,0,1-1.74-2.81,10.58,10.58,0,0,1-.61-3.71,10.5,10.5,0,0,1,.61-3.69,7.78,7.78,0,0,1,1.74-2.79,7.46,7.46,0,0,1,2.7-1.77A9.46,9.46,0,0,1,274.31,12.17Zm0,14.6a3.64,3.64,0,0,0,3.19-1.45,7.27,7.27,0,0,0,1-4.24,7.37,7.37,0,0,0-1-4.27,4.25,4.25,0,0,0-6.42,0A7.3,7.3,0,0,0,270,21.08a7.18,7.18,0,0,0,1.05,4.23A3.7,3.7,0,0,0,274.31,26.77Z"/><path class="cls-2" d="M290.51,12.44V30.31a7.34,7.34,0,0,1-.29,2.12,4.73,4.73,0,0,1-.94,1.74,4.51,4.51,0,0,1-1.7,1.18,6.77,6.77,0,0,1-2.57.43,7.48,7.48,0,0,1-1.1-.08,6.92,6.92,0,0,1-1-.24l.14-2.24a.48.48,0,0,1,.27-.43,2.56,2.56,0,0,1,.84-.09,3.85,3.85,0,0,0,1.05-.13,1.47,1.47,0,0,0,.69-.4,1.53,1.53,0,0,0,.37-.74,4.51,4.51,0,0,0,.11-1.12V12.44Zm.63-5a2.44,2.44,0,0,1-.22,1,2.83,2.83,0,0,1-.58.82,2.76,2.76,0,0,1-.85.57,2.66,2.66,0,0,1-1.05.21,2.52,2.52,0,0,1-1-.21,2.67,2.67,0,0,1-.83-.57,2.6,2.6,0,0,1-.56-.82,2.29,2.29,0,0,1-.21-1A2.5,2.5,0,0,1,286,6.35a2.69,2.69,0,0,1,.56-.84,2.82,2.82,0,0,1,.83-.56,2.52,2.52,0,0,1,1-.21,2.66,2.66,0,0,1,1.05.21,2.67,2.67,0,0,1,1.43,1.4A2.67,2.67,0,0,1,291.14,7.4Z"/><path class="cls-2" d="M308.69,29.72h-1.87a2,2,0,0,1-.93-.18,1.16,1.16,0,0,1-.5-.72L305,27.59a12.72,12.72,0,0,1-1.28,1,7.49,7.49,0,0,1-1.31.75,6.63,6.63,0,0,1-1.43.45,8.78,8.78,0,0,1-1.69.15,6.58,6.58,0,0,1-2-.29,4.43,4.43,0,0,1-1.59-.89,3.91,3.91,0,0,1-1-1.47,5.16,5.16,0,0,1-.37-2,4.08,4.08,0,0,1,.51-1.94,4.82,4.82,0,0,1,1.71-1.72,11.11,11.11,0,0,1,3.18-1.28,20.82,20.82,0,0,1,4.94-.5v-1a3.85,3.85,0,0,0-.74-2.59,2.65,2.65,0,0,0-2.13-.84,5.06,5.06,0,0,0-1.68.24,5.79,5.79,0,0,0-1.17.53l-.92.53a1.93,1.93,0,0,1-.92.23,1.17,1.17,0,0,1-.73-.22,1.7,1.7,0,0,1-.49-.54l-.76-1.33a10.28,10.28,0,0,1,7.2-2.72,7,7,0,0,1,2.7.49A5.72,5.72,0,0,1,307,14a6,6,0,0,1,1.26,2.12,8.25,8.25,0,0,1,.43,2.69Zm-8.09-2.6a6.15,6.15,0,0,0,1.18-.11,4.91,4.91,0,0,0,1-.35,6.45,6.45,0,0,0,.93-.57,10.59,10.59,0,0,0,.9-.81V22.39a17.11,17.11,0,0,0-3,.23,8.35,8.35,0,0,0-2,.58,2.63,2.63,0,0,0-1.05.83,2.1,2.1,0,0,0,.34,2.62A2.84,2.84,0,0,0,300.6,27.12Z"/><path class="cls-2" d="M106.66,58.87a1.16,1.16,0,0,1-.24.25.5.5,0,0,1-.33.09.84.84,0,0,1-.47-.18,6.14,6.14,0,0,0-.64-.4,4.91,4.91,0,0,0-.94-.4,5.05,5.05,0,0,0-3.26.2,3.73,3.73,0,0,0-1.38,1.11,5,5,0,0,0-.84,1.75,8.92,8.92,0,0,0-.28,2.29,8.08,8.08,0,0,0,.31,2.36,4.91,4.91,0,0,0,.85,1.73,3.53,3.53,0,0,0,1.33,1.07,4.1,4.1,0,0,0,1.77.37,4.55,4.55,0,0,0,1.55-.22,5,5,0,0,0,1-.5,6.22,6.22,0,0,0,.66-.5.79.79,0,0,1,.52-.22.54.54,0,0,1,.49.24l.72.94a5.52,5.52,0,0,1-2.38,1.71,8.46,8.46,0,0,1-3,.54,6.47,6.47,0,0,1-2.54-.5,5.86,5.86,0,0,1-2-1.47,7.07,7.07,0,0,1-1.36-2.36,10.29,10.29,0,0,1,0-6.21,6.85,6.85,0,0,1,1.32-2.39,6.18,6.18,0,0,1,2.16-1.56,7.22,7.22,0,0,1,3-.57,7,7,0,0,1,2.71.5A6.32,6.32,0,0,1,107.33,58Z"/><path class="cls-2" d="M116.08,56a7.46,7.46,0,0,1,2.9.54,6.07,6.07,0,0,1,2.19,1.52,6.78,6.78,0,0,1,1.39,2.37,10.35,10.35,0,0,1,0,6.23,7,7,0,0,1-1.39,2.37,6,6,0,0,1-2.19,1.5,8.17,8.17,0,0,1-5.79,0,6.07,6.07,0,0,1-2.2-1.5,6.68,6.68,0,0,1-1.4-2.37,10.15,10.15,0,0,1,0-6.23A6.51,6.51,0,0,1,111,58.1a6.11,6.11,0,0,1,2.2-1.52A7.41,7.41,0,0,1,116.08,56Zm0,13.06a3.77,3.77,0,0,0,3.24-1.46,6.69,6.69,0,0,0,1.06-4,6.82,6.82,0,0,0-1.06-4.08,3.76,3.76,0,0,0-3.24-1.45,4.47,4.47,0,0,0-1.9.37,3.56,3.56,0,0,0-1.35,1.08,5,5,0,0,0-.81,1.74,9.29,9.29,0,0,0-.27,2.34,9.12,9.12,0,0,0,.27,2.32,4.73,4.73,0,0,0,.81,1.72,3.56,3.56,0,0,0,1.35,1.08A4.47,4.47,0,0,0,116.08,69.1Z"/><path class="cls-2" d="M126.22,70.9V56.28h1.53a.65.65,0,0,1,.69.53l.19,1.5a7.5,7.5,0,0,1,1.81-1.63,4.31,4.31,0,0,1,2.33-.64,3.45,3.45,0,0,1,2.4.83,4.59,4.59,0,0,1,1.33,2.22,4.3,4.3,0,0,1,.8-1.37,4.39,4.39,0,0,1,1.12-.95,4.5,4.5,0,0,1,1.32-.55,5.64,5.64,0,0,1,1.42-.18,5.56,5.56,0,0,1,2.06.37,4.18,4.18,0,0,1,1.53,1.08,5,5,0,0,1,1,1.74,7.73,7.73,0,0,1,.33,2.36V70.9h-2.57V61.59a3.94,3.94,0,0,0-.75-2.61,2.7,2.7,0,0,0-2.18-.88,3.25,3.25,0,0,0-1.21.22,2.91,2.91,0,0,0-1,.66,3,3,0,0,0-.69,1.08,4.23,4.23,0,0,0-.25,1.53V70.9h-2.57V61.59a4.11,4.11,0,0,0-.71-2.63,2.49,2.49,0,0,0-2.06-.86,3.26,3.26,0,0,0-1.77.51A5.71,5.71,0,0,0,128.79,60V70.9Z"/><path class="cls-2" d="M168.65,50.21v2.28h-9.94v7.24h8.49V62h-8.49V70.9H155.9V50.21Z"/><path class="cls-2" d="M171,70.9V56.28h1.47a.81.81,0,0,1,.58.16,1,1,0,0,1,.22.54l.17,2.28a6.82,6.82,0,0,1,1.85-2.39,4.46,4.46,0,0,1,3.69-.72,3.52,3.52,0,0,1,.91.39l-.33,1.92a.44.44,0,0,1-.45.36,2.38,2.38,0,0,1-.62-.14,4,4,0,0,0-1.17-.14,3.3,3.3,0,0,0-2.24.78,5.85,5.85,0,0,0-1.51,2.27V70.9Z"/><path class="cls-2" d="M188.39,56a6.6,6.6,0,0,1,2.43.44,5.48,5.48,0,0,1,1.92,1.28A5.64,5.64,0,0,1,194,59.81a7.74,7.74,0,0,1,.46,2.77,1.74,1.74,0,0,1-.13.81.53.53,0,0,1-.49.21h-9.73a8.19,8.19,0,0,0,.37,2.41,5,5,0,0,0,1,1.71,3.87,3.87,0,0,0,1.45,1,4.87,4.87,0,0,0,1.87.34,5.45,5.45,0,0,0,1.67-.22,7.4,7.4,0,0,0,1.21-.49,8.34,8.34,0,0,0,.84-.48,1.11,1.11,0,0,1,.59-.22.58.58,0,0,1,.49.24l.72.94a5,5,0,0,1-1.14,1,6.7,6.7,0,0,1-1.42.7,9.32,9.32,0,0,1-1.57.42,9.68,9.68,0,0,1-1.6.13,7.54,7.54,0,0,1-2.8-.51,6.07,6.07,0,0,1-2.2-1.5,7,7,0,0,1-1.46-2.45,10.12,10.12,0,0,1-.51-3.35,8.62,8.62,0,0,1,.46-2.86,7,7,0,0,1,1.35-2.3,6.24,6.24,0,0,1,2.16-1.53A7,7,0,0,1,188.39,56Zm.06,1.9A3.93,3.93,0,0,0,185.52,59a5.12,5.12,0,0,0-1.33,3h8a5.08,5.08,0,0,0-.25-1.64,3.58,3.58,0,0,0-.72-1.28,3.36,3.36,0,0,0-1.16-.84A3.89,3.89,0,0,0,188.45,57.94Z"/><path class="cls-2" d="M202.17,71.13a3.51,3.51,0,0,1-2.67-1,3.84,3.84,0,0,1-.93-2.78V58.43h-1.76a.6.6,0,0,1-.39-.14.52.52,0,0,1-.16-.43v-1l2.4-.3.59-4.52a.56.56,0,0,1,.19-.36.58.58,0,0,1,.4-.13h1.3v5h4.19v1.87h-4.19V67.2a1.88,1.88,0,0,0,.45,1.38,1.58,1.58,0,0,0,1.15.44,1.84,1.84,0,0,0,.7-.11,3.66,3.66,0,0,0,.52-.23l.36-.24a.5.5,0,0,1,.27-.11.42.42,0,0,1,.36.25l.75,1.22a4.69,4.69,0,0,1-1.6,1A5.58,5.58,0,0,1,202.17,71.13Z"/><path class="cls-2" d="M214.29,56a6.6,6.6,0,0,1,2.43.44,5.48,5.48,0,0,1,1.92,1.28,5.64,5.64,0,0,1,1.26,2.05,8,8,0,0,1,.45,2.77,1.78,1.78,0,0,1-.12.81.55.55,0,0,1-.5.21H210a8.17,8.17,0,0,0,.38,2.41,5,5,0,0,0,1,1.71,3.87,3.87,0,0,0,1.45,1,4.83,4.83,0,0,0,1.87.34,5.5,5.5,0,0,0,1.67-.22,7.4,7.4,0,0,0,1.21-.49,9.63,9.63,0,0,0,.84-.48,1.11,1.11,0,0,1,.58-.22.58.58,0,0,1,.5.24l.72.94a5,5,0,0,1-1.14,1,6.77,6.77,0,0,1-1.43.7A9,9,0,0,1,216,71a9.68,9.68,0,0,1-1.6.13,7.5,7.5,0,0,1-2.8-.51,6.11,6.11,0,0,1-2.21-1.5A7,7,0,0,1,208,66.64a10.11,10.11,0,0,1-.52-3.35,8.62,8.62,0,0,1,.47-2.86,7,7,0,0,1,1.35-2.3,6.29,6.29,0,0,1,2.15-1.53A7.08,7.08,0,0,1,214.29,56Zm.06,1.9A3.93,3.93,0,0,0,211.42,59a5.06,5.06,0,0,0-1.33,3H218a5.37,5.37,0,0,0-.24-1.64,3.58,3.58,0,0,0-.72-1.28,3.36,3.36,0,0,0-1.16-.84A3.89,3.89,0,0,0,214.35,57.94Z"/><path class="cls-2" d="M238.83,68.86a12.26,12.26,0,0,0,1.54-.08,8.63,8.63,0,0,0,2.49-.62,10.81,10.81,0,0,0,1.1-.51V63.09h-3.21a.6.6,0,0,1-.44-.16.5.5,0,0,1-.16-.39V61h6.35v7.94a10.07,10.07,0,0,1-1.63,1,10.2,10.2,0,0,1-1.8.7A12.72,12.72,0,0,1,241,71a17.62,17.62,0,0,1-2.38.14,10.85,10.85,0,0,1-4.13-.77,9.52,9.52,0,0,1-3.23-2.17,9.83,9.83,0,0,1-2.12-3.34,12.78,12.78,0,0,1,0-8.6,9.44,9.44,0,0,1,2.12-3.35,9.56,9.56,0,0,1,3.34-2.15A11.91,11.91,0,0,1,239,50a13.52,13.52,0,0,1,2.28.18,11.11,11.11,0,0,1,2,.52,9.26,9.26,0,0,1,1.67.82,11,11,0,0,1,1.43,1.09l-.79,1.27a.74.74,0,0,1-.64.39,1.05,1.05,0,0,1-.5-.15c-.24-.14-.51-.3-.81-.5a7.34,7.34,0,0,0-1.09-.55,9.19,9.19,0,0,0-1.52-.46,10.35,10.35,0,0,0-2.07-.18,8.39,8.39,0,0,0-3.16.57,6.64,6.64,0,0,0-2.41,1.63,7,7,0,0,0-1.53,2.57,10,10,0,0,0-.54,3.38,10.24,10.24,0,0,0,.56,3.5,7.26,7.26,0,0,0,1.57,2.61,6.69,6.69,0,0,0,2.39,1.63A8,8,0,0,0,238.83,68.86Z"/><path class="cls-2" d="M250.4,70.9V56.28h1.47a.81.81,0,0,1,.58.16,1,1,0,0,1,.21.54l.18,2.28a6.82,6.82,0,0,1,1.85-2.39,4.46,4.46,0,0,1,3.69-.72,3.52,3.52,0,0,1,.91.39L259,58.46a.44.44,0,0,1-.45.36,2.3,2.3,0,0,1-.62-.14,4,4,0,0,0-1.17-.14,3.33,3.33,0,0,0-2.25.78,5.84,5.84,0,0,0-1.5,2.27V70.9Z"/><path class="cls-2" d="M272.22,70.9h-1.14a1.28,1.28,0,0,1-.6-.12.62.62,0,0,1-.31-.49l-.29-1.35c-.38.34-.76.65-1.12.93a6.82,6.82,0,0,1-1.16.69,5.92,5.92,0,0,1-1.29.43,7.79,7.79,0,0,1-1.52.14,5.2,5.2,0,0,1-1.6-.24,3.85,3.85,0,0,1-1.29-.71A3.48,3.48,0,0,1,261,69a4.22,4.22,0,0,1-.33-1.74,3.22,3.22,0,0,1,.48-1.67,4.21,4.21,0,0,1,1.54-1.43,10.29,10.29,0,0,1,2.78-1,19.17,19.17,0,0,1,4.2-.4V61.57A4,4,0,0,0,269,59a2.67,2.67,0,0,0-2.16-.87,4.55,4.55,0,0,0-1.58.23,5.74,5.74,0,0,0-1.11.54c-.32.19-.58.37-.81.53a1.17,1.17,0,0,1-.67.24.78.78,0,0,1-.46-.14,1,1,0,0,1-.31-.34l-.46-.82A8.49,8.49,0,0,1,264,56.59a8.2,8.2,0,0,1,3.11-.57,5.54,5.54,0,0,1,2.18.4,4.39,4.39,0,0,1,1.6,1.13,4.78,4.78,0,0,1,1,1.74,7.39,7.39,0,0,1,.33,2.26Zm-6.67-1.57a5.22,5.22,0,0,0,1.24-.14,4.7,4.7,0,0,0,1.07-.39,5.67,5.67,0,0,0,.95-.61,8.52,8.52,0,0,0,.89-.83v-3a17.29,17.29,0,0,0-3,.22,8.47,8.47,0,0,0-2,.59,2.74,2.74,0,0,0-1.13.86,1.81,1.81,0,0,0-.36,1.1,2.35,2.35,0,0,0,.19,1,1.78,1.78,0,0,0,.51.69,1.92,1.92,0,0,0,.75.39A3.08,3.08,0,0,0,265.55,69.33ZM271.18,50l-3.36,3.73a1.55,1.55,0,0,1-.4.31,1.16,1.16,0,0,1-.49.09h-1.54l2.14-3.49a1.53,1.53,0,0,1,.44-.49,1.35,1.35,0,0,1,.7-.15Z"/><path class="cls-2" d="M280.55,71.13a3.51,3.51,0,0,1-2.66-1,3.84,3.84,0,0,1-.93-2.78V58.43H275.2a.56.56,0,0,1-.39-.14.52.52,0,0,1-.16-.43v-1l2.39-.3.6-4.52a.56.56,0,0,1,.19-.36.58.58,0,0,1,.4-.13h1.3v5h4.18v1.87h-4.18V67.2a1.88,1.88,0,0,0,.45,1.38,1.57,1.57,0,0,0,1.15.44,1.87,1.87,0,0,0,.7-.11,3.08,3.08,0,0,0,.51-.23l.37-.24a.5.5,0,0,1,.27-.11.45.45,0,0,1,.36.25l.75,1.22a4.78,4.78,0,0,1-1.6,1A5.59,5.59,0,0,1,280.55,71.13Z"/><path class="cls-2" d="M290.33,51.69a1.53,1.53,0,0,1-.16.7,2,2,0,0,1-.4.57,1.94,1.94,0,0,1-.58.4,1.73,1.73,0,0,1-.71.14,1.65,1.65,0,0,1-.7-.14,1.94,1.94,0,0,1-.58-.4,2,2,0,0,1-.4-.57,1.82,1.82,0,0,1-.14-.7,2,2,0,0,1,.14-.72,1.87,1.87,0,0,1,.4-.59,1.94,1.94,0,0,1,.58-.4,1.82,1.82,0,0,1,.7-.14,1.91,1.91,0,0,1,.71.14,1.94,1.94,0,0,1,.58.4,1.87,1.87,0,0,1,.4.59A1.64,1.64,0,0,1,290.33,51.69Zm-.58,4.59V70.9h-2.57V56.28Z"/><path class="cls-2" d="M302.65,58.69a.56.56,0,0,1-.53.31,1,1,0,0,1-.49-.15c-.18-.11-.41-.23-.67-.36a6.34,6.34,0,0,0-.95-.36,4.53,4.53,0,0,0-1.3-.16,3.9,3.9,0,0,0-1.17.16,2.63,2.63,0,0,0-.88.46,1.91,1.91,0,0,0-.57.67,1.78,1.78,0,0,0-.19.83,1.45,1.45,0,0,0,.32.94,3.09,3.09,0,0,0,.86.65,8,8,0,0,0,1.21.48l1.4.45c.47.16.94.33,1.39.52a5.53,5.53,0,0,1,1.21.72,3.2,3.2,0,0,1,.86,1.07,3.16,3.16,0,0,1,.33,1.5,4.76,4.76,0,0,1-.36,1.87,4.06,4.06,0,0,1-1.07,1.49,5.13,5.13,0,0,1-1.73,1,7.95,7.95,0,0,1-5.14-.14,7,7,0,0,1-2.11-1.28l.6-1a1,1,0,0,1,.28-.29.87.87,0,0,1,.42-.1,1,1,0,0,1,.55.21c.19.13.42.28.7.44a4.58,4.58,0,0,0,1,.45,4.42,4.42,0,0,0,1.47.2,4,4,0,0,0,1.31-.19,2.75,2.75,0,0,0,.94-.53,2.14,2.14,0,0,0,.56-.76,2.41,2.41,0,0,0,.18-.93,1.51,1.51,0,0,0-.33-1,2.6,2.6,0,0,0-.86-.68,6.59,6.59,0,0,0-1.22-.49l-1.4-.44c-.47-.16-.94-.33-1.4-.53a5.16,5.16,0,0,1-1.22-.74,3.52,3.52,0,0,1-.86-1.11,3.63,3.63,0,0,1-.32-1.59,3.88,3.88,0,0,1,.34-1.61,4,4,0,0,1,1-1.36,4.87,4.87,0,0,1,1.63-.93,6.53,6.53,0,0,1,2.21-.35,7.07,7.07,0,0,1,2.59.46,6.12,6.12,0,0,1,2,1.25Z"/><g class="cls-3"><path class="cls-4" d="M48.88,51.25H10.33A2.73,2.73,0,0,1,7.6,48.52V15.17a2.73,2.73,0,0,1,2.73-2.73H48.88a2.73,2.73,0,0,1,2.73,2.73V48.52A2.73,2.73,0,0,1,48.88,51.25ZM13.07,45.78H46.14V17.91H13.07Z"/><path class="cls-4" d="M66.38,51.25h-18a2.73,2.73,0,0,1-2.73-2.73V28.18a2.74,2.74,0,0,1,2.73-2.74H58.81a2.72,2.72,0,0,1,1.93.8l7.57,7.57a2.75,2.75,0,0,1,.8,1.94V48.52A2.73,2.73,0,0,1,66.38,51.25ZM51.14,45.78h12.5v-8.9l-6-6H51.14Z"/><path class="cls-4" d="M21.92,64.26a9.29,9.29,0,0,1-6.78-3,8.48,8.48,0,0,1-2.33-6.32,9.12,9.12,0,1,1,9.11,9.32Zm0-12.77a3.61,3.61,0,0,0-3.65,3.65,3.12,3.12,0,0,0,.88,2.4,3.88,3.88,0,0,0,2.77,1.25,3.65,3.65,0,0,0,0-7.3Z"/><path class="cls-4" d="M55,64.26a9.25,9.25,0,0,1-9.13-9.12A9.13,9.13,0,1,1,55,64.26Zm0-12.77a3.61,3.61,0,0,0-3.65,3.65A3.8,3.8,0,0,0,55,58.79a3.65,3.65,0,0,0,0-7.3Z"/></g></svg>