<?xml version="1.0" encoding="utf-8"?>
<!-- Generator: Adobe Illustrator 26.0.1, SVG Export Plug-In . SVG Version: 6.00 Build 0)  -->
<svg version="1.1" id="Camada_1" xmlns="http://www.w3.org/2000/svg" xmlns:xlink="http://www.w3.org/1999/xlink" x="0px" y="0px"
	 viewBox="0 0 260 40" style="enable-background:new 0 0 260 40;" xml:space="preserve">
<style type="text/css">
	.st0{clip-path:url(#SVGID_00000010281759635041247220000017840595690949646766_);}
	.st1{fill:none;stroke:#ED1B2F;stroke-width:2.3142;stroke-linecap:round;stroke-linejoin:round;}
	.st2{fill:#444444;}
</style>
<g>
	<defs>
		<rect id="SVGID_1_" x="3" y="7" width="26" height="26"/>
	</defs>
	<clipPath id="SVGID_00000087389527866339516700000005673755888712966301_">
		<use xlink:href="#SVGID_1_"  style="overflow:visible;"/>
	</clipPath>
	<g style="clip-path:url(#SVGID_00000087389527866339516700000005673755888712966301_);">
		<path class="st1" d="M25.75,11.33H6.25c-1.2,0-2.17,0.97-2.17,2.17v13c0,1.2,0.97,2.17,2.17,2.17h19.5c1.2,0,2.17-0.97,2.17-2.17
			v-13C27.92,12.3,26.95,11.33,25.75,11.33z"/>
		<path class="st1" d="M4.08,17.83h23.83"/>
	</g>
</g>
<path class="st2" d="M48.08,14.61c0.1,0,0.19,0.04,0.27,0.12l0.74,0.8c-0.41,0.51-0.92,0.9-1.52,1.17c-0.6,0.27-1.32,0.41-2.16,0.41
	c-0.75,0-1.43-0.13-2.03-0.39c-0.6-0.26-1.11-0.61-1.53-1.07c-0.42-0.46-0.75-1-0.98-1.64c-0.22-0.63-0.34-1.33-0.34-2.08
	c0-0.76,0.12-1.46,0.36-2.09c0.24-0.63,0.58-1.18,1.02-1.64c0.44-0.46,0.97-0.81,1.58-1.06c0.61-0.26,1.29-0.39,2.03-0.39
	c0.74,0,1.39,0.12,1.96,0.36c0.57,0.24,1.06,0.56,1.46,0.95l-0.63,0.88c-0.04,0.06-0.09,0.11-0.15,0.15
	c-0.06,0.04-0.14,0.06-0.24,0.06c-0.07,0-0.14-0.02-0.22-0.06c-0.07-0.04-0.16-0.09-0.24-0.15c-0.09-0.06-0.19-0.13-0.31-0.2
	c-0.12-0.07-0.25-0.13-0.41-0.19c-0.15-0.06-0.33-0.11-0.54-0.15c-0.2-0.04-0.43-0.06-0.7-0.06c-0.45,0-0.87,0.08-1.25,0.24
	c-0.37,0.16-0.7,0.39-0.97,0.7c-0.27,0.3-0.48,0.68-0.63,1.12c-0.15,0.44-0.22,0.94-0.22,1.51c0,0.57,0.08,1.08,0.24,1.52
	c0.16,0.44,0.38,0.82,0.66,1.12s0.6,0.54,0.97,0.7c0.37,0.16,0.77,0.24,1.2,0.24c0.26,0,0.49-0.01,0.69-0.04
	c0.21-0.03,0.4-0.07,0.57-0.13c0.18-0.06,0.34-0.14,0.5-0.23c0.16-0.1,0.32-0.22,0.47-0.36c0.05-0.04,0.1-0.07,0.15-0.1
	C47.97,14.63,48.02,14.61,48.08,14.61z M53.9,13.93c-0.5,0.02-0.92,0.07-1.26,0.13c-0.34,0.06-0.61,0.14-0.82,0.24
	c-0.21,0.1-0.35,0.21-0.44,0.34c-0.09,0.13-0.13,0.27-0.13,0.43c0,0.3,0.09,0.52,0.27,0.65c0.18,0.13,0.42,0.2,0.71,0.2
	c0.35,0,0.66-0.06,0.92-0.19c0.26-0.13,0.52-0.33,0.76-0.59V13.93z M49.94,10.82c0.83-0.76,1.82-1.13,2.98-1.13
	c0.42,0,0.8,0.07,1.13,0.21c0.33,0.14,0.61,0.33,0.84,0.57c0.23,0.24,0.4,0.53,0.52,0.88c0.12,0.34,0.18,0.71,0.18,1.12V17h-0.78
	c-0.16,0-0.29-0.02-0.38-0.07c-0.09-0.05-0.16-0.15-0.21-0.3l-0.15-0.52c-0.18,0.16-0.36,0.31-0.53,0.43
	c-0.17,0.12-0.35,0.22-0.54,0.31c-0.19,0.08-0.39,0.15-0.6,0.19c-0.21,0.05-0.44,0.07-0.7,0.07c-0.3,0-0.58-0.04-0.84-0.12
	c-0.26-0.08-0.48-0.21-0.66-0.37c-0.19-0.16-0.33-0.37-0.43-0.61c-0.1-0.24-0.15-0.53-0.15-0.85c0-0.18,0.03-0.36,0.09-0.54
	c0.06-0.18,0.16-0.35,0.29-0.52c0.14-0.16,0.32-0.32,0.54-0.46c0.22-0.14,0.49-0.27,0.81-0.38c0.32-0.11,0.7-0.19,1.12-0.26
	c0.42-0.07,0.91-0.11,1.46-0.13v-0.42c0-0.48-0.1-0.84-0.31-1.06c-0.21-0.23-0.5-0.35-0.89-0.35c-0.28,0-0.51,0.03-0.7,0.1
	c-0.18,0.07-0.34,0.14-0.48,0.22c-0.14,0.08-0.27,0.15-0.38,0.22c-0.11,0.07-0.24,0.1-0.38,0.1c-0.12,0-0.22-0.03-0.31-0.09
	c-0.08-0.07-0.15-0.14-0.2-0.22L49.94,10.82z M58.85,11.06c0.22-0.43,0.49-0.77,0.8-1.01c0.31-0.25,0.67-0.37,1.09-0.37
	c0.33,0,0.6,0.07,0.8,0.22l-0.11,1.29c-0.02,0.08-0.06,0.14-0.1,0.18c-0.04,0.03-0.1,0.05-0.18,0.05c-0.07,0-0.17-0.01-0.31-0.04
	c-0.14-0.02-0.27-0.03-0.4-0.03c-0.19,0-0.36,0.03-0.51,0.08c-0.15,0.06-0.28,0.14-0.41,0.24c-0.12,0.1-0.22,0.23-0.32,0.38
	c-0.09,0.15-0.17,0.32-0.25,0.51V17h-1.73V9.82h1.01c0.18,0,0.3,0.03,0.37,0.1c0.07,0.06,0.12,0.17,0.14,0.34L58.85,11.06z
	 M64.84,17.11c-0.63,0-1.11-0.17-1.44-0.52c-0.33-0.35-0.5-0.84-0.5-1.46v-4.01h-0.74c-0.09,0-0.17-0.03-0.24-0.09
	c-0.07-0.06-0.1-0.15-0.1-0.27v-0.69l1.15-0.19l0.36-1.96c0.02-0.09,0.07-0.17,0.13-0.22s0.15-0.08,0.25-0.08h0.9v2.26h1.92v1.23
	h-1.92v3.89c0,0.22,0.05,0.4,0.16,0.52c0.11,0.13,0.26,0.19,0.45,0.19c0.11,0,0.2-0.01,0.27-0.03c0.07-0.03,0.14-0.06,0.19-0.08
	c0.06-0.03,0.11-0.05,0.15-0.08c0.04-0.03,0.08-0.04,0.13-0.04c0.05,0,0.09,0.01,0.13,0.04c0.03,0.02,0.07,0.06,0.1,0.11l0.52,0.84
	c-0.25,0.21-0.54,0.37-0.87,0.48S65.19,17.11,64.84,17.11z M71.44,13.93c-0.5,0.02-0.92,0.07-1.26,0.13
	c-0.34,0.06-0.61,0.14-0.82,0.24c-0.21,0.1-0.35,0.21-0.44,0.34c-0.09,0.13-0.13,0.27-0.13,0.43c0,0.3,0.09,0.52,0.27,0.65
	c0.18,0.13,0.42,0.2,0.71,0.2c0.35,0,0.66-0.06,0.92-0.19c0.26-0.13,0.52-0.33,0.76-0.59V13.93z M67.48,10.82
	c0.83-0.76,1.82-1.13,2.98-1.13c0.42,0,0.8,0.07,1.13,0.21c0.33,0.14,0.61,0.33,0.84,0.57c0.23,0.24,0.4,0.53,0.52,0.88
	c0.12,0.34,0.18,0.71,0.18,1.12V17h-0.78c-0.16,0-0.29-0.02-0.38-0.07c-0.09-0.05-0.16-0.15-0.21-0.3l-0.15-0.52
	c-0.18,0.16-0.36,0.31-0.53,0.43c-0.17,0.12-0.35,0.22-0.54,0.31c-0.19,0.08-0.39,0.15-0.6,0.19c-0.21,0.05-0.44,0.07-0.7,0.07
	c-0.3,0-0.58-0.04-0.84-0.12c-0.26-0.08-0.48-0.21-0.67-0.37c-0.19-0.16-0.33-0.37-0.43-0.61c-0.1-0.24-0.15-0.53-0.15-0.85
	c0-0.18,0.03-0.36,0.09-0.54c0.06-0.18,0.16-0.35,0.29-0.52c0.14-0.16,0.32-0.32,0.54-0.46c0.22-0.14,0.49-0.27,0.8-0.38
	c0.32-0.11,0.7-0.19,1.12-0.26c0.42-0.07,0.91-0.11,1.46-0.13v-0.42c0-0.48-0.1-0.84-0.31-1.06c-0.21-0.23-0.5-0.35-0.89-0.35
	c-0.28,0-0.51,0.03-0.7,0.1c-0.18,0.07-0.34,0.14-0.48,0.22c-0.14,0.08-0.27,0.15-0.39,0.22c-0.11,0.07-0.24,0.1-0.38,0.1
	c-0.12,0-0.22-0.03-0.31-0.09c-0.08-0.07-0.15-0.14-0.2-0.22L67.48,10.82z M71.05,7.49c0.14,0,0.25-0.04,0.33-0.11
	c0.08-0.08,0.12-0.22,0.12-0.42h1.05c0,0.26-0.04,0.5-0.11,0.71c-0.07,0.21-0.17,0.39-0.29,0.55c-0.13,0.15-0.28,0.27-0.45,0.35
	c-0.17,0.08-0.36,0.12-0.57,0.12c-0.17,0-0.32-0.03-0.47-0.09c-0.14-0.06-0.28-0.13-0.41-0.2C70.11,8.33,70,8.26,69.88,8.2
	c-0.11-0.06-0.21-0.09-0.3-0.09c-0.14,0-0.24,0.04-0.32,0.13c-0.07,0.08-0.11,0.22-0.11,0.41h-1.07c0-0.26,0.03-0.5,0.1-0.71
	c0.07-0.21,0.18-0.4,0.31-0.55c0.13-0.15,0.28-0.27,0.46-0.36c0.18-0.08,0.37-0.13,0.57-0.13c0.17,0,0.32,0.03,0.47,0.09
	c0.15,0.06,0.29,0.13,0.41,0.2c0.13,0.07,0.24,0.14,0.35,0.2C70.86,7.46,70.96,7.49,71.05,7.49z M77.94,9.71
	c0.53,0,1.01,0.09,1.45,0.26c0.44,0.17,0.81,0.42,1.12,0.73c0.31,0.32,0.55,0.7,0.72,1.16c0.17,0.46,0.25,0.97,0.25,1.53
	c0,0.57-0.08,1.08-0.25,1.54c-0.17,0.46-0.41,0.85-0.72,1.17c-0.31,0.32-0.68,0.57-1.12,0.74c-0.43,0.17-0.92,0.26-1.45,0.26
	c-0.54,0-1.02-0.09-1.46-0.26c-0.44-0.17-0.81-0.42-1.13-0.74c-0.31-0.32-0.55-0.71-0.72-1.17c-0.17-0.46-0.25-0.97-0.25-1.54
	c0-0.56,0.08-1.08,0.25-1.53c0.17-0.46,0.41-0.84,0.72-1.16c0.31-0.32,0.69-0.56,1.13-0.73C76.91,9.79,77.4,9.71,77.94,9.71z
	 M77.94,15.77c0.6,0,1.04-0.2,1.32-0.6c0.29-0.4,0.43-0.99,0.43-1.76c0-0.77-0.14-1.37-0.43-1.77c-0.28-0.41-0.73-0.61-1.32-0.61
	c-0.61,0-1.06,0.21-1.35,0.62c-0.29,0.41-0.43,0.99-0.43,1.76c0,0.77,0.14,1.36,0.43,1.76C76.88,15.57,77.33,15.77,77.94,15.77z
	 M92.41,15.45V17h-5.93V6.88h1.88v8.57H92.41z M97.73,12.58c0-0.22-0.03-0.43-0.1-0.63c-0.06-0.2-0.15-0.38-0.28-0.52
	c-0.13-0.15-0.29-0.27-0.48-0.35c-0.19-0.09-0.42-0.13-0.67-0.13c-0.5,0-0.89,0.14-1.18,0.43c-0.28,0.28-0.47,0.69-0.55,1.21H97.73z
	 M94.44,13.63c0.03,0.37,0.09,0.69,0.2,0.96c0.1,0.27,0.24,0.49,0.41,0.66c0.17,0.17,0.37,0.3,0.6,0.39
	c0.23,0.08,0.49,0.13,0.77,0.13s0.52-0.03,0.72-0.1c0.21-0.07,0.38-0.14,0.53-0.22c0.15-0.08,0.29-0.15,0.4-0.22
	c0.12-0.07,0.23-0.1,0.34-0.1c0.14,0,0.25,0.05,0.32,0.16l0.5,0.63c-0.19,0.22-0.41,0.41-0.64,0.57c-0.24,0.15-0.49,0.27-0.75,0.36
	c-0.26,0.09-0.52,0.15-0.79,0.19c-0.27,0.04-0.53,0.06-0.78,0.06c-0.5,0-0.96-0.08-1.39-0.24c-0.43-0.17-0.8-0.41-1.12-0.74
	c-0.32-0.33-0.57-0.73-0.75-1.2c-0.18-0.48-0.27-1.04-0.27-1.67c0-0.49,0.08-0.95,0.24-1.38c0.16-0.43,0.38-0.81,0.68-1.13
	c0.3-0.32,0.66-0.58,1.09-0.76c0.43-0.19,0.91-0.28,1.45-0.28c0.45,0,0.87,0.07,1.25,0.22c0.38,0.14,0.71,0.36,0.99,0.64
	c0.28,0.28,0.49,0.62,0.64,1.02c0.16,0.4,0.24,0.86,0.24,1.38c0,0.26-0.03,0.44-0.08,0.53c-0.06,0.09-0.16,0.13-0.32,0.13H94.44z
	 M108.05,15.53c0.35,0,0.64-0.04,0.88-0.13c0.24-0.08,0.43-0.2,0.57-0.34c0.14-0.14,0.25-0.3,0.31-0.49c0.07-0.19,0.1-0.39,0.1-0.6
	c0-0.22-0.03-0.42-0.1-0.59c-0.07-0.18-0.18-0.33-0.33-0.45c-0.15-0.13-0.34-0.22-0.58-0.29c-0.23-0.07-0.52-0.1-0.85-0.1h-1.9v2.97
	H108.05z M106.15,8.33v2.93h1.5c0.64,0,1.13-0.12,1.46-0.35c0.33-0.23,0.5-0.6,0.5-1.11c0-0.53-0.15-0.9-0.45-1.13
	c-0.3-0.22-0.77-0.34-1.4-0.34H106.15z M107.75,6.88c0.66,0,1.23,0.06,1.7,0.19c0.47,0.13,0.86,0.31,1.16,0.54
	c0.3,0.23,0.52,0.52,0.67,0.85c0.14,0.33,0.21,0.7,0.21,1.12c0,0.24-0.04,0.47-0.11,0.69c-0.07,0.21-0.18,0.42-0.33,0.61
	c-0.14,0.19-0.33,0.36-0.56,0.51c-0.22,0.15-0.49,0.28-0.81,0.39c1.39,0.31,2.09,1.06,2.09,2.25c0,0.43-0.08,0.83-0.24,1.19
	c-0.16,0.36-0.4,0.68-0.71,0.94c-0.31,0.26-0.7,0.47-1.15,0.62c-0.46,0.15-0.98,0.22-1.57,0.22h-3.82V6.88H107.75z M114.88,9.82V17
	h-1.74V9.82H114.88z M115.11,7.72c0,0.15-0.03,0.29-0.09,0.42c-0.06,0.13-0.14,0.24-0.25,0.34c-0.1,0.1-0.22,0.18-0.35,0.24
	c-0.14,0.06-0.28,0.08-0.43,0.08c-0.15,0-0.29-0.03-0.43-0.08c-0.13-0.06-0.25-0.14-0.34-0.24c-0.1-0.1-0.18-0.21-0.24-0.34
	c-0.06-0.13-0.08-0.27-0.08-0.42c0-0.15,0.03-0.3,0.08-0.43c0.06-0.14,0.14-0.25,0.24-0.35s0.21-0.18,0.34-0.23
	c0.13-0.06,0.28-0.09,0.43-0.09c0.15,0,0.3,0.03,0.43,0.09c0.13,0.06,0.25,0.13,0.35,0.23c0.1,0.1,0.18,0.21,0.25,0.35
	C115.08,7.43,115.11,7.57,115.11,7.72z M121.02,11.22c-0.05,0.07-0.09,0.13-0.15,0.16c-0.05,0.03-0.12,0.04-0.2,0.04
	c-0.08,0-0.18-0.02-0.27-0.07c-0.09-0.05-0.2-0.1-0.33-0.15c-0.13-0.06-0.27-0.11-0.43-0.16c-0.16-0.05-0.35-0.07-0.57-0.07
	c-0.34,0-0.61,0.07-0.81,0.22c-0.19,0.14-0.29,0.33-0.29,0.57c0,0.15,0.05,0.28,0.15,0.39c0.1,0.1,0.24,0.19,0.4,0.27
	c0.17,0.08,0.36,0.15,0.57,0.22c0.21,0.06,0.42,0.13,0.64,0.2c0.22,0.07,0.43,0.16,0.64,0.26c0.21,0.09,0.4,0.21,0.56,0.36
	c0.17,0.14,0.3,0.32,0.4,0.52c0.1,0.21,0.15,0.45,0.15,0.74c0,0.35-0.06,0.66-0.19,0.96c-0.12,0.29-0.3,0.54-0.55,0.76
	c-0.24,0.21-0.54,0.38-0.9,0.5c-0.35,0.12-0.76,0.17-1.23,0.17c-0.25,0-0.49-0.02-0.73-0.07c-0.23-0.04-0.46-0.1-0.68-0.18
	c-0.21-0.08-0.42-0.17-0.6-0.28c-0.18-0.11-0.34-0.22-0.48-0.35l0.4-0.66c0.05-0.08,0.11-0.14,0.18-0.18
	c0.07-0.04,0.16-0.06,0.27-0.06c0.11,0,0.21,0.03,0.3,0.09c0.1,0.06,0.21,0.13,0.34,0.2c0.13,0.07,0.27,0.14,0.44,0.2
	c0.17,0.06,0.39,0.09,0.65,0.09c0.21,0,0.38-0.02,0.52-0.07c0.15-0.05,0.27-0.12,0.36-0.2c0.1-0.08,0.17-0.17,0.21-0.27
	c0.05-0.11,0.07-0.22,0.07-0.33c0-0.17-0.05-0.31-0.15-0.41c-0.1-0.11-0.23-0.2-0.4-0.28c-0.16-0.08-0.35-0.15-0.57-0.21
	c-0.21-0.07-0.43-0.14-0.65-0.21c-0.22-0.07-0.44-0.16-0.65-0.26c-0.21-0.1-0.4-0.23-0.57-0.39c-0.16-0.15-0.3-0.34-0.4-0.57
	c-0.1-0.22-0.15-0.49-0.15-0.81c0-0.29,0.06-0.57,0.18-0.84c0.12-0.27,0.29-0.5,0.51-0.69c0.23-0.2,0.51-0.36,0.85-0.48
	c0.34-0.12,0.73-0.18,1.18-0.18c0.5,0,0.94,0.08,1.35,0.24c0.41,0.16,0.74,0.38,1.01,0.64L121.02,11.22z M127.93,11.34
	c-0.05,0.07-0.1,0.12-0.15,0.15c-0.05,0.04-0.12,0.06-0.21,0.06c-0.09,0-0.17-0.03-0.26-0.08c-0.08-0.06-0.18-0.12-0.3-0.18
	c-0.12-0.07-0.26-0.13-0.42-0.18c-0.16-0.06-0.36-0.08-0.6-0.08c-0.3,0-0.57,0.06-0.8,0.17c-0.23,0.11-0.42,0.26-0.57,0.47
	c-0.15,0.21-0.26,0.45-0.34,0.75c-0.08,0.29-0.11,0.62-0.11,0.99c0,0.38,0.04,0.72,0.12,1.02c0.08,0.3,0.2,0.55,0.36,0.76
	c0.15,0.2,0.34,0.35,0.56,0.46c0.22,0.1,0.47,0.15,0.74,0.15c0.27,0,0.5-0.03,0.67-0.1c0.17-0.07,0.32-0.14,0.43-0.22
	c0.12-0.08,0.22-0.16,0.3-0.22c0.09-0.07,0.19-0.11,0.29-0.11c0.14,0,0.24,0.05,0.31,0.16l0.5,0.63c-0.19,0.22-0.4,0.41-0.62,0.57
	c-0.22,0.15-0.46,0.27-0.7,0.36c-0.24,0.09-0.49,0.15-0.74,0.19c-0.25,0.04-0.5,0.06-0.76,0.06c-0.44,0-0.86-0.08-1.25-0.24
	c-0.39-0.17-0.74-0.41-1.03-0.73c-0.29-0.32-0.53-0.7-0.7-1.16c-0.17-0.46-0.25-0.99-0.25-1.57c0-0.53,0.07-1.02,0.22-1.46
	c0.15-0.45,0.38-0.84,0.67-1.17c0.29-0.33,0.66-0.59,1.09-0.78c0.43-0.19,0.93-0.28,1.5-0.28c0.54,0,1.01,0.09,1.41,0.26
	c0.41,0.17,0.77,0.42,1.09,0.74L127.93,11.34z M135.73,9.82V17h-1.06c-0.23,0-0.37-0.1-0.43-0.32l-0.12-0.57
	c-0.29,0.3-0.62,0.54-0.97,0.73c-0.35,0.18-0.77,0.27-1.25,0.27c-0.39,0-0.74-0.07-1.04-0.2c-0.3-0.14-0.55-0.32-0.76-0.57
	c-0.2-0.24-0.36-0.53-0.47-0.86c-0.1-0.34-0.15-0.7-0.15-1.11V9.82h1.73v4.56c0,0.44,0.1,0.78,0.3,1.02
	c0.21,0.24,0.51,0.36,0.92,0.36c0.3,0,0.58-0.07,0.84-0.2c0.26-0.14,0.51-0.32,0.74-0.55V9.82H135.73z M139.24,9.82V17h-1.74V9.82
	H139.24z M139.48,7.72c0,0.15-0.03,0.29-0.09,0.42c-0.06,0.13-0.14,0.24-0.24,0.34c-0.1,0.1-0.21,0.18-0.35,0.24
	c-0.14,0.06-0.28,0.08-0.43,0.08c-0.15,0-0.29-0.03-0.43-0.08c-0.13-0.06-0.24-0.14-0.34-0.24c-0.1-0.1-0.18-0.21-0.24-0.34
	c-0.06-0.13-0.08-0.27-0.08-0.42c0-0.15,0.03-0.3,0.08-0.43c0.06-0.14,0.14-0.25,0.24-0.35c0.1-0.1,0.21-0.18,0.34-0.23
	c0.13-0.06,0.28-0.09,0.43-0.09c0.15,0,0.3,0.03,0.43,0.09c0.14,0.06,0.25,0.13,0.35,0.23c0.1,0.1,0.18,0.21,0.24,0.35
	C139.45,7.43,139.48,7.57,139.48,7.72z M143.39,17.11c-0.62,0-1.11-0.17-1.44-0.52c-0.33-0.35-0.5-0.84-0.5-1.46v-4.01h-0.74
	c-0.09,0-0.17-0.03-0.24-0.09c-0.06-0.06-0.1-0.15-0.1-0.27v-0.69l1.15-0.19l0.36-1.96c0.02-0.09,0.07-0.17,0.13-0.22
	c0.07-0.05,0.15-0.08,0.25-0.08h0.9v2.26h1.92v1.23h-1.92v3.89c0,0.22,0.05,0.4,0.16,0.52c0.11,0.13,0.26,0.19,0.46,0.19
	c0.11,0,0.2-0.01,0.27-0.03c0.08-0.03,0.14-0.06,0.19-0.08c0.06-0.03,0.1-0.05,0.15-0.08c0.04-0.03,0.08-0.04,0.13-0.04
	c0.05,0,0.09,0.01,0.13,0.04c0.03,0.02,0.07,0.06,0.1,0.11l0.52,0.84c-0.25,0.21-0.54,0.37-0.87,0.48
	C144.08,17.06,143.74,17.11,143.39,17.11z M44.14,31.26c-0.49,0.02-0.91,0.06-1.26,0.12c-0.34,0.06-0.63,0.14-0.85,0.24
	c-0.22,0.1-0.37,0.22-0.47,0.35c-0.1,0.14-0.14,0.29-0.14,0.46c0,0.16,0.03,0.3,0.08,0.41c0.05,0.12,0.12,0.21,0.21,0.29
	c0.09,0.07,0.2,0.13,0.32,0.16c0.12,0.03,0.26,0.05,0.4,0.05c0.19,0,0.36-0.02,0.52-0.05c0.16-0.04,0.3-0.1,0.44-0.17
	c0.14-0.07,0.27-0.16,0.4-0.26c0.13-0.1,0.25-0.21,0.37-0.34V31.26z M40.69,28.78c0.34-0.32,0.7-0.57,1.09-0.73
	c0.39-0.16,0.82-0.24,1.29-0.24c0.34,0,0.64,0.06,0.91,0.17s0.49,0.27,0.67,0.47c0.18,0.2,0.32,0.44,0.41,0.73
	c0.09,0.28,0.14,0.6,0.14,0.94V34h-0.47c-0.1,0-0.18-0.02-0.24-0.05c-0.06-0.04-0.1-0.1-0.13-0.2l-0.12-0.58
	c-0.16,0.15-0.32,0.28-0.47,0.4c-0.15,0.11-0.31,0.21-0.48,0.29c-0.17,0.08-0.35,0.13-0.54,0.17c-0.19,0.04-0.4,0.07-0.63,0.07
	c-0.24,0-0.46-0.03-0.67-0.1c-0.21-0.07-0.39-0.17-0.55-0.3c-0.15-0.13-0.27-0.3-0.37-0.5c-0.09-0.2-0.13-0.44-0.13-0.72
	c0-0.24,0.07-0.47,0.2-0.69c0.13-0.22,0.35-0.42,0.64-0.59s0.68-0.31,1.16-0.42c0.48-0.11,1.06-0.18,1.75-0.19v-0.47
	c0-0.47-0.1-0.83-0.31-1.07c-0.2-0.24-0.5-0.37-0.89-0.37c-0.26,0-0.49,0.03-0.67,0.1c-0.18,0.06-0.33,0.14-0.46,0.22
	c-0.13,0.08-0.24,0.15-0.34,0.22c-0.09,0.06-0.18,0.1-0.28,0.1c-0.07,0-0.13-0.02-0.19-0.05c-0.05-0.04-0.1-0.09-0.13-0.14
	L40.69,28.78z M48.59,34.1c-0.48,0-0.85-0.13-1.11-0.4c-0.26-0.27-0.38-0.65-0.38-1.16v-3.72h-0.73c-0.06,0-0.12-0.02-0.16-0.05
	c-0.04-0.04-0.07-0.1-0.07-0.18v-0.43l1-0.13l0.25-1.88c0.01-0.06,0.04-0.11,0.08-0.14c0.04-0.04,0.1-0.06,0.17-0.06h0.54v2.09h1.76
	v0.77h-1.76v3.65c0,0.26,0.06,0.45,0.19,0.57s0.28,0.19,0.48,0.19c0.11,0,0.21-0.01,0.29-0.04c0.08-0.03,0.16-0.07,0.22-0.1
	c0.06-0.04,0.11-0.07,0.15-0.1c0.04-0.03,0.08-0.05,0.11-0.05c0.06,0,0.11,0.03,0.15,0.1l0.31,0.51c-0.18,0.17-0.41,0.31-0.67,0.41
	C49.14,34.05,48.87,34.1,48.59,34.1z M55.06,30.3c0-0.25-0.04-0.47-0.11-0.68c-0.07-0.21-0.17-0.39-0.31-0.53
	c-0.13-0.15-0.29-0.27-0.49-0.35c-0.19-0.08-0.41-0.13-0.65-0.13c-0.51,0-0.92,0.15-1.22,0.45c-0.3,0.3-0.48,0.71-0.55,1.24H55.06z
	 M55.93,33.15c-0.13,0.16-0.29,0.3-0.47,0.42c-0.18,0.12-0.38,0.21-0.59,0.29c-0.21,0.08-0.42,0.13-0.65,0.17
	c-0.22,0.04-0.45,0.06-0.67,0.06c-0.42,0-0.81-0.07-1.16-0.21c-0.35-0.14-0.66-0.35-0.92-0.62c-0.26-0.28-0.46-0.62-0.6-1.02
	s-0.22-0.87-0.22-1.39c0-0.42,0.06-0.82,0.19-1.19c0.13-0.37,0.32-0.69,0.56-0.95c0.24-0.27,0.54-0.48,0.89-0.64
	c0.35-0.16,0.75-0.23,1.19-0.23c0.36,0,0.7,0.06,1.01,0.19c0.31,0.12,0.58,0.3,0.8,0.53c0.23,0.23,0.41,0.51,0.53,0.85
	c0.13,0.34,0.19,0.72,0.19,1.15c0,0.17-0.02,0.28-0.05,0.34c-0.04,0.06-0.1,0.08-0.2,0.08H51.7c0.01,0.38,0.06,0.72,0.16,1
	c0.1,0.28,0.23,0.52,0.4,0.71c0.17,0.19,0.37,0.33,0.6,0.43c0.23,0.09,0.49,0.14,0.78,0.14c0.27,0,0.5-0.03,0.69-0.09
	c0.2-0.06,0.36-0.13,0.5-0.2c0.14-0.07,0.26-0.14,0.35-0.2c0.1-0.06,0.18-0.1,0.25-0.1c0.09,0,0.16,0.03,0.2,0.1L55.93,33.15z
	 M55.25,25.31l-1.4,1.55c-0.06,0.06-0.11,0.1-0.17,0.13c-0.05,0.02-0.12,0.04-0.2,0.04h-0.64l0.89-1.45
	c0.06-0.09,0.12-0.16,0.18-0.2c0.07-0.04,0.17-0.07,0.29-0.07H55.25z M65.67,33.18V34h-4.61v-0.82h1.84v-5.86
	c0-0.18,0.01-0.35,0.02-0.53l-1.53,1.31c-0.05,0.04-0.1,0.07-0.16,0.08c-0.05,0.01-0.1,0.01-0.14,0c-0.04-0.01-0.09-0.02-0.13-0.05
	c-0.04-0.02-0.06-0.05-0.08-0.08l-0.34-0.46l2.56-2.21h0.87v7.8H65.67z M72.44,32.99c0.12,0,0.21,0.03,0.28,0.1
	c0.07,0.07,0.1,0.16,0.1,0.26V34h-5.74v-0.37c0-0.08,0.02-0.15,0.05-0.23c0.03-0.08,0.08-0.15,0.15-0.22l2.75-2.77
	c0.23-0.23,0.44-0.45,0.62-0.67c0.19-0.22,0.35-0.43,0.48-0.65c0.13-0.22,0.23-0.43,0.31-0.65c0.07-0.22,0.11-0.46,0.11-0.71
	c0-0.25-0.04-0.47-0.12-0.66c-0.08-0.19-0.19-0.35-0.33-0.47c-0.14-0.12-0.3-0.22-0.49-0.28c-0.19-0.06-0.39-0.1-0.61-0.1
	c-0.22,0-0.42,0.03-0.61,0.1c-0.18,0.06-0.35,0.15-0.49,0.27c-0.14,0.11-0.26,0.25-0.35,0.4s-0.16,0.33-0.2,0.52
	c-0.05,0.14-0.11,0.23-0.2,0.28c-0.08,0.04-0.19,0.06-0.34,0.04l-0.56-0.1c0.06-0.39,0.16-0.74,0.32-1.04
	c0.16-0.3,0.37-0.56,0.61-0.76c0.25-0.2,0.53-0.36,0.85-0.46c0.32-0.11,0.66-0.16,1.03-0.16c0.36,0,0.7,0.05,1.02,0.16
	c0.32,0.11,0.59,0.27,0.82,0.47c0.23,0.2,0.41,0.45,0.55,0.75c0.13,0.3,0.2,0.63,0.2,1.01c0,0.32-0.05,0.62-0.14,0.89
	c-0.1,0.27-0.23,0.53-0.39,0.78c-0.16,0.25-0.35,0.49-0.57,0.73c-0.21,0.24-0.44,0.47-0.68,0.71l-2.27,2.32
	c0.16-0.04,0.32-0.08,0.49-0.1c0.16-0.03,0.32-0.04,0.47-0.04H72.44z M79.32,34h-1.03c-0.09,0-0.16-0.02-0.21-0.07
	c-0.05-0.05-0.09-0.1-0.12-0.16l-1.53-2.38c-0.02,0.06-0.03,0.11-0.05,0.17c-0.02,0.05-0.04,0.1-0.07,0.14l-1.42,2.07
	c-0.04,0.06-0.08,0.11-0.13,0.16C74.71,33.98,74.65,34,74.57,34h-0.95l2.13-3.12l-2.05-2.96h1.03c0.09,0,0.15,0.01,0.19,0.04
	s0.08,0.07,0.11,0.12l1.49,2.28c0.03-0.12,0.08-0.23,0.15-0.34l1.31-1.92c0.04-0.06,0.07-0.1,0.11-0.13
	c0.04-0.04,0.1-0.05,0.16-0.05h0.98l-2.05,2.9L79.32,34z M86.91,28.92c-0.05,0.09-0.12,0.13-0.22,0.13c-0.06,0-0.13-0.02-0.2-0.07
	c-0.08-0.04-0.17-0.09-0.28-0.14c-0.11-0.06-0.24-0.11-0.39-0.15c-0.15-0.05-0.33-0.07-0.54-0.07c-0.18,0-0.34,0.02-0.49,0.07
	c-0.14,0.04-0.27,0.11-0.37,0.19c-0.1,0.08-0.18,0.17-0.23,0.28c-0.05,0.1-0.08,0.22-0.08,0.34c0,0.16,0.04,0.29,0.13,0.39
	c0.09,0.1,0.21,0.19,0.36,0.27c0.15,0.08,0.32,0.14,0.5,0.2c0.19,0.06,0.38,0.12,0.58,0.19c0.2,0.06,0.39,0.14,0.58,0.22
	s0.36,0.18,0.5,0.3c0.15,0.12,0.27,0.27,0.35,0.44c0.09,0.17,0.14,0.38,0.14,0.62c0,0.28-0.05,0.54-0.15,0.78
	c-0.1,0.24-0.25,0.44-0.44,0.62c-0.2,0.17-0.44,0.31-0.72,0.41c-0.28,0.1-0.61,0.15-0.98,0.15c-0.42,0-0.81-0.07-1.15-0.2
	c-0.34-0.14-0.64-0.32-0.88-0.53l0.25-0.41c0.03-0.05,0.07-0.09,0.11-0.12c0.04-0.03,0.1-0.04,0.17-0.04c0.07,0,0.15,0.03,0.23,0.08
	s0.18,0.12,0.29,0.19c0.12,0.07,0.26,0.13,0.42,0.19s0.37,0.08,0.61,0.08c0.21,0,0.39-0.03,0.55-0.08c0.16-0.06,0.29-0.13,0.39-0.22
	c0.1-0.09,0.18-0.2,0.23-0.32c0.05-0.12,0.08-0.25,0.08-0.38c0-0.17-0.05-0.31-0.14-0.41c-0.09-0.11-0.21-0.21-0.35-0.28
	c-0.15-0.08-0.32-0.15-0.51-0.2c-0.19-0.06-0.38-0.12-0.58-0.19c-0.2-0.06-0.39-0.14-0.58-0.22c-0.19-0.08-0.36-0.19-0.5-0.31
	c-0.15-0.12-0.27-0.28-0.36-0.46c-0.09-0.18-0.13-0.41-0.13-0.67c0-0.23,0.05-0.45,0.14-0.67c0.1-0.22,0.24-0.4,0.42-0.56
	c0.18-0.16,0.41-0.29,0.68-0.39c0.27-0.1,0.57-0.14,0.92-0.14c0.4,0,0.76,0.06,1.07,0.19c0.32,0.12,0.6,0.3,0.83,0.52L86.91,28.92z
	 M92.63,30.3c0-0.25-0.04-0.47-0.11-0.68c-0.07-0.21-0.17-0.39-0.31-0.53c-0.13-0.15-0.29-0.27-0.49-0.35
	c-0.19-0.08-0.41-0.13-0.65-0.13c-0.51,0-0.92,0.15-1.22,0.45c-0.3,0.3-0.48,0.71-0.55,1.24H92.63z M93.5,33.15
	c-0.13,0.16-0.29,0.3-0.47,0.42c-0.18,0.12-0.38,0.21-0.59,0.29c-0.21,0.08-0.42,0.13-0.65,0.17c-0.22,0.04-0.45,0.06-0.67,0.06
	c-0.42,0-0.81-0.07-1.16-0.21c-0.35-0.14-0.66-0.35-0.92-0.62c-0.26-0.28-0.46-0.62-0.6-1.02s-0.22-0.87-0.22-1.39
	c0-0.42,0.06-0.82,0.19-1.19c0.13-0.37,0.32-0.69,0.56-0.95c0.24-0.27,0.54-0.48,0.89-0.64c0.35-0.16,0.75-0.23,1.19-0.23
	c0.36,0,0.7,0.06,1.01,0.19c0.31,0.12,0.58,0.3,0.8,0.53c0.23,0.23,0.41,0.51,0.53,0.85c0.13,0.34,0.19,0.72,0.19,1.15
	c0,0.17-0.02,0.28-0.05,0.34c-0.04,0.06-0.1,0.08-0.2,0.08h-4.06c0.01,0.38,0.06,0.72,0.16,1c0.1,0.28,0.23,0.52,0.4,0.71
	c0.17,0.19,0.37,0.33,0.6,0.43c0.23,0.09,0.49,0.14,0.78,0.14c0.27,0,0.5-0.03,0.69-0.09c0.2-0.06,0.36-0.13,0.5-0.2
	c0.14-0.07,0.26-0.14,0.35-0.2c0.1-0.06,0.18-0.1,0.25-0.1c0.09,0,0.16,0.03,0.2,0.1L93.5,33.15z M94.9,34v-6.08h0.64
	c0.15,0,0.25,0.07,0.28,0.22l0.08,0.62c0.22-0.28,0.48-0.5,0.76-0.68s0.6-0.26,0.97-0.26c0.41,0,0.74,0.11,0.99,0.34
	c0.26,0.23,0.44,0.54,0.55,0.92c0.09-0.22,0.2-0.41,0.34-0.57c0.14-0.16,0.3-0.29,0.47-0.4c0.17-0.1,0.35-0.18,0.55-0.23
	c0.2-0.05,0.39-0.07,0.59-0.07c0.32,0,0.6,0.05,0.85,0.16c0.25,0.1,0.46,0.25,0.64,0.44c0.18,0.2,0.31,0.44,0.4,0.73
	c0.09,0.28,0.14,0.61,0.14,0.98V34h-1.07v-3.87c0-0.48-0.1-0.84-0.31-1.08c-0.21-0.25-0.51-0.37-0.9-0.37c-0.18,0-0.34,0.03-0.5,0.1
	c-0.16,0.06-0.29,0.15-0.41,0.27c-0.12,0.12-0.22,0.27-0.29,0.46c-0.07,0.18-0.1,0.39-0.1,0.63V34h-1.07v-3.87
	c0-0.49-0.1-0.85-0.29-1.09s-0.48-0.36-0.86-0.36c-0.26,0-0.51,0.07-0.73,0.22c-0.22,0.14-0.43,0.33-0.62,0.58V34H94.9z
	 M108.97,27.92v6.53c0,0.24-0.03,0.47-0.1,0.68c-0.06,0.21-0.17,0.4-0.31,0.55c-0.14,0.16-0.32,0.28-0.54,0.37
	c-0.22,0.09-0.48,0.14-0.78,0.14c-0.13,0-0.25-0.01-0.35-0.03c-0.11-0.02-0.22-0.05-0.32-0.09l0.04-0.58
	c0.01-0.04,0.02-0.06,0.04-0.08c0.02-0.02,0.04-0.03,0.07-0.03c0.03,0,0.07-0.01,0.13-0.01c0.05,0,0.11,0.01,0.19,0.01
	c0.31,0,0.53-0.07,0.67-0.22c0.13-0.14,0.2-0.38,0.2-0.7v-6.53H108.97z M109.19,26.01c0,0.1-0.02,0.2-0.07,0.29
	c-0.04,0.09-0.1,0.17-0.17,0.24c-0.07,0.07-0.15,0.12-0.24,0.16c-0.09,0.04-0.19,0.06-0.29,0.06c-0.1,0-0.2-0.02-0.29-0.06
	c-0.09-0.04-0.17-0.09-0.23-0.16c-0.07-0.07-0.12-0.15-0.16-0.24c-0.04-0.09-0.06-0.19-0.06-0.29s0.02-0.2,0.06-0.29
	c0.04-0.1,0.09-0.18,0.16-0.25c0.07-0.07,0.15-0.13,0.23-0.17c0.09-0.04,0.19-0.06,0.29-0.06c0.1,0,0.2,0.02,0.29,0.06
	c0.09,0.04,0.17,0.1,0.24,0.17c0.07,0.07,0.13,0.15,0.17,0.25C109.17,25.81,109.19,25.91,109.19,26.01z M115.72,27.92V34h-0.64
	c-0.15,0-0.25-0.07-0.29-0.22l-0.08-0.65c-0.26,0.29-0.56,0.53-0.89,0.71c-0.33,0.18-0.7,0.26-1.13,0.26
	c-0.33,0-0.63-0.05-0.88-0.16c-0.25-0.11-0.46-0.27-0.64-0.47s-0.3-0.44-0.39-0.73c-0.08-0.28-0.13-0.6-0.13-0.94v-3.88h1.07v3.88
	c0,0.46,0.1,0.82,0.31,1.07c0.21,0.25,0.53,0.38,0.97,0.38c0.32,0,0.61-0.07,0.88-0.22c0.28-0.15,0.53-0.36,0.76-0.62v-4.48H115.72z
	 M118.43,29.14c0.19-0.42,0.43-0.74,0.71-0.97c0.28-0.24,0.62-0.35,1.03-0.35c0.13,0,0.25,0.01,0.37,0.04
	c0.12,0.03,0.23,0.07,0.32,0.13l-0.08,0.8c-0.02,0.1-0.08,0.15-0.18,0.15c-0.06,0-0.14-0.01-0.25-0.04s-0.23-0.04-0.37-0.04
	c-0.19,0-0.36,0.03-0.52,0.08c-0.15,0.06-0.28,0.14-0.4,0.25c-0.12,0.11-0.22,0.24-0.32,0.41c-0.09,0.16-0.18,0.34-0.25,0.55V34
	h-1.07v-6.08h0.61c0.12,0,0.2,0.02,0.24,0.07c0.04,0.04,0.07,0.12,0.09,0.23L118.43,29.14z M124.1,27.83c0.44,0,0.84,0.07,1.2,0.22
	c0.36,0.15,0.66,0.36,0.91,0.63c0.25,0.27,0.44,0.6,0.58,0.99c0.14,0.38,0.2,0.81,0.2,1.29c0,0.48-0.07,0.91-0.2,1.3
	c-0.13,0.38-0.32,0.71-0.58,0.98c-0.25,0.27-0.56,0.48-0.91,0.63c-0.36,0.14-0.76,0.22-1.2,0.22c-0.45,0-0.85-0.07-1.21-0.22
	c-0.36-0.15-0.66-0.36-0.91-0.63c-0.25-0.27-0.45-0.6-0.58-0.98c-0.13-0.38-0.2-0.82-0.2-1.3c0-0.48,0.07-0.91,0.2-1.29
	c0.14-0.39,0.33-0.72,0.58-0.99c0.25-0.27,0.56-0.48,0.91-0.63C123.25,27.9,123.65,27.83,124.1,27.83z M124.1,33.25
	c0.6,0,1.05-0.2,1.34-0.6c0.3-0.4,0.44-0.97,0.44-1.69c0-0.72-0.15-1.29-0.44-1.69c-0.3-0.4-0.74-0.61-1.34-0.61
	c-0.3,0-0.57,0.05-0.8,0.16c-0.22,0.1-0.41,0.25-0.56,0.45c-0.15,0.2-0.26,0.44-0.34,0.73c-0.07,0.28-0.11,0.61-0.11,0.97
	c0,0.72,0.15,1.28,0.44,1.69C123.04,33.05,123.5,33.25,124.1,33.25z M131.89,28.92c-0.05,0.09-0.12,0.13-0.22,0.13
	c-0.06,0-0.13-0.02-0.2-0.07c-0.08-0.04-0.17-0.09-0.28-0.14c-0.11-0.06-0.24-0.11-0.39-0.15c-0.15-0.05-0.33-0.07-0.54-0.07
	c-0.18,0-0.34,0.02-0.49,0.07c-0.14,0.04-0.27,0.11-0.37,0.19c-0.1,0.08-0.18,0.17-0.23,0.28c-0.05,0.1-0.08,0.22-0.08,0.34
	c0,0.16,0.04,0.29,0.13,0.39c0.09,0.1,0.21,0.19,0.36,0.27c0.15,0.08,0.32,0.14,0.5,0.2c0.19,0.06,0.38,0.12,0.58,0.19
	c0.2,0.06,0.39,0.14,0.58,0.22c0.19,0.08,0.36,0.18,0.5,0.3c0.15,0.12,0.27,0.27,0.35,0.44c0.09,0.17,0.14,0.38,0.14,0.62
	c0,0.28-0.05,0.54-0.15,0.78c-0.1,0.24-0.25,0.44-0.44,0.62c-0.2,0.17-0.44,0.31-0.72,0.41c-0.28,0.1-0.61,0.15-0.98,0.15
	c-0.42,0-0.81-0.07-1.15-0.2c-0.34-0.14-0.64-0.32-0.88-0.53l0.25-0.41c0.03-0.05,0.07-0.09,0.11-0.12c0.04-0.03,0.1-0.04,0.17-0.04
	c0.07,0,0.15,0.03,0.23,0.08s0.18,0.12,0.29,0.19c0.12,0.07,0.26,0.13,0.42,0.19c0.16,0.06,0.37,0.08,0.61,0.08
	c0.21,0,0.39-0.03,0.55-0.08c0.16-0.06,0.29-0.13,0.39-0.22c0.1-0.09,0.18-0.2,0.23-0.32c0.05-0.12,0.08-0.25,0.08-0.38
	c0-0.17-0.05-0.31-0.14-0.41c-0.09-0.11-0.21-0.21-0.35-0.28c-0.15-0.08-0.32-0.15-0.51-0.2c-0.19-0.06-0.38-0.12-0.58-0.19
	c-0.2-0.06-0.39-0.14-0.58-0.22c-0.19-0.08-0.36-0.19-0.5-0.31s-0.27-0.28-0.36-0.46c-0.09-0.18-0.13-0.41-0.13-0.67
	c0-0.23,0.05-0.45,0.14-0.67c0.1-0.22,0.24-0.4,0.42-0.56c0.18-0.16,0.41-0.29,0.68-0.39c0.27-0.1,0.57-0.14,0.92-0.14
	c0.4,0,0.76,0.06,1.07,0.19c0.32,0.12,0.6,0.3,0.83,0.52L131.89,28.92z"/>
</svg>
