<svg width="260" height="40" viewBox="0 0 260 40" fill="none" xmlns="http://www.w3.org/2000/svg">
<mask id="path-1-inside-1" fill="white">
<path fill-rule="evenodd" clip-rule="evenodd" d="M11.4785 9.73096C11.7907 9.42566 12.288 9.42266 12.6038 9.72417L16.2906 13.2437L19.7778 9.74831C20.0944 9.43096 20.6077 9.43096 20.9243 9.74831L28.2625 17.1037C28.5736 17.4155 28.5798 17.9191 28.2766 18.2385L16.8753 30.2476C16.563 30.5765 16.0423 30.5851 15.7194 30.2667L3.74213 18.4549C3.41834 18.1356 3.41944 17.612 3.74457 17.294L5.90865 15.1778C5.764 14.988 5.62975 14.7923 5.5114 14.5933C5.22225 14.1069 5.0086 13.5679 4.99831 13.0236C4.98764 12.4598 5.1968 11.9226 5.6898 11.4778C6.1747 11.0404 6.7183 10.8669 7.2693 10.8934C7.8063 10.9192 8.32325 11.133 8.784 11.4193C8.97645 11.5388 9.1636 11.6739 9.3435 11.8188L11.4785 9.73096ZM9.3662 12.9319C9.7378 13.3045 10.0579 13.7037 10.288 14.0408L10.9571 13.5819C10.7089 13.2183 10.3603 12.7802 9.94655 12.3644L12.0447 10.3126L15.7315 13.8321C16.0501 14.1363 16.5527 14.1302 16.8639 13.8183L20.3511 10.3229L27.6893 17.6783L16.288 29.6874L4.31071 17.8757L6.43455 15.7988C6.87745 16.2747 7.35195 16.6854 7.7445 16.9806L8.23095 16.3305C7.85935 16.0511 7.4186 15.6666 7.015 15.2312L9.3662 12.9319ZM8.75835 12.391C8.6273 12.2892 8.4931 12.1946 8.3569 12.11C7.96465 11.8663 7.58225 11.722 7.23045 11.7051C6.89255 11.6889 6.5579 11.7879 6.2321 12.0818C5.9144 12.3685 5.80265 12.6794 5.80885 13.0082C5.81545 13.3566 5.9565 13.7545 6.20785 14.1773C6.2935 14.3214 6.38975 14.4647 6.4937 14.6056L8.75835 12.391Z"/>
</mask>
<path fill-rule="evenodd" clip-rule="evenodd" d="M11.4785 9.73096C11.7907 9.42566 12.288 9.42266 12.6038 9.72417L16.2906 13.2437L19.7778 9.74831C20.0944 9.43096 20.6077 9.43096 20.9243 9.74831L28.2625 17.1037C28.5736 17.4155 28.5798 17.9191 28.2766 18.2385L16.8753 30.2476C16.563 30.5765 16.0423 30.5851 15.7194 30.2667L3.74213 18.4549C3.41834 18.1356 3.41944 17.612 3.74457 17.294L5.90865 15.1778C5.764 14.988 5.62975 14.7923 5.5114 14.5933C5.22225 14.1069 5.0086 13.5679 4.99831 13.0236C4.98764 12.4598 5.1968 11.9226 5.6898 11.4778C6.1747 11.0404 6.7183 10.8669 7.2693 10.8934C7.8063 10.9192 8.32325 11.133 8.784 11.4193C8.97645 11.5388 9.1636 11.6739 9.3435 11.8188L11.4785 9.73096ZM9.3662 12.9319C9.7378 13.3045 10.0579 13.7037 10.288 14.0408L10.9571 13.5819C10.7089 13.2183 10.3603 12.7802 9.94655 12.3644L12.0447 10.3126L15.7315 13.8321C16.0501 14.1363 16.5527 14.1302 16.8639 13.8183L20.3511 10.3229L27.6893 17.6783L16.288 29.6874L4.31071 17.8757L6.43455 15.7988C6.87745 16.2747 7.35195 16.6854 7.7445 16.9806L8.23095 16.3305C7.85935 16.0511 7.4186 15.6666 7.015 15.2312L9.3662 12.9319ZM8.75835 12.391C8.6273 12.2892 8.4931 12.1946 8.3569 12.11C7.96465 11.8663 7.58225 11.722 7.23045 11.7051C6.89255 11.6889 6.5579 11.7879 6.2321 12.0818C5.9144 12.3685 5.80265 12.6794 5.80885 13.0082C5.81545 13.3566 5.9565 13.7545 6.20785 14.1773C6.2935 14.3214 6.38975 14.4647 6.4937 14.6056L8.75835 12.391Z" fill="#EC1B2F"/>
<path d="M11.4785 9.73096L12.2875 10.5582L12.2875 10.5582L11.4785 9.73096ZM12.6038 9.72417L13.4028 8.88722L13.4027 8.8872L12.6038 9.72417ZM16.2906 13.2437L15.4916 14.0806L16.3103 14.8622L17.1097 14.0609L16.2906 13.2437ZM19.7778 9.74831L20.597 10.5655L20.597 10.5655L19.7778 9.74831ZM20.9243 9.74831L20.1052 10.5655L20.1052 10.5655L20.9243 9.74831ZM28.2625 17.1037L29.0817 16.2865L29.0817 16.2865L28.2625 17.1037ZM28.2766 18.2385L29.1157 19.0352L29.1158 19.0351L28.2766 18.2385ZM16.8753 30.2476L16.0362 29.4509L16.0362 29.4509L16.8753 30.2476ZM15.7194 30.2667L16.5319 29.4428L16.5319 29.4428L15.7194 30.2667ZM3.74213 18.4549L2.92963 19.2787L2.92967 19.2788L3.74213 18.4549ZM3.74457 17.294L2.93559 16.4667L2.93558 16.4667L3.74457 17.294ZM5.90865 15.1778L6.71763 16.005L7.44892 15.2899L6.82893 14.4764L5.90865 15.1778ZM5.5114 14.5933L4.51682 15.1846L4.51684 15.1846L5.5114 14.5933ZM4.99831 13.0236L6.15518 13.0017L6.15518 13.0017L4.99831 13.0236ZM5.6898 11.4778L6.46485 12.337L6.46486 12.3369L5.6898 11.4778ZM7.2693 10.8934L7.21372 12.0492L7.21377 12.0492L7.2693 10.8934ZM8.784 11.4193L8.17339 12.4021L8.17344 12.4021L8.784 11.4193ZM9.3435 11.8188L8.61754 12.7198L9.41775 13.3646L10.1525 12.6461L9.3435 11.8188ZM9.3662 12.9319L10.1855 12.1148L9.37639 11.3036L8.55721 12.1046L9.3662 12.9319ZM10.288 14.0408L9.33229 14.6931L9.98604 15.651L10.9424 14.995L10.288 14.0408ZM10.9571 13.5819L11.6115 14.5361L12.5637 13.8831L11.9128 12.9296L10.9571 13.5819ZM9.94655 12.3644L9.13756 11.5372L8.30312 12.3532L9.1263 13.1805L9.94655 12.3644ZM12.0447 10.3126L12.8437 9.47567L12.035 8.70371L11.2357 9.48535L12.0447 10.3126ZM15.7315 13.8321L16.5305 12.9952L16.5305 12.9952L15.7315 13.8321ZM16.8639 13.8183L17.683 14.6355L17.683 14.6355L16.8639 13.8183ZM20.3511 10.3229L21.1702 9.5057L20.3511 8.68464L19.532 9.50569L20.3511 10.3229ZM27.6893 17.6783L28.5284 18.475L29.3038 17.6583L28.5084 16.8611L27.6893 17.6783ZM16.288 29.6874L15.4755 30.5113L16.3152 31.3393L17.1271 30.4841L16.288 29.6874ZM4.31071 17.8757L3.50173 17.0484L2.65932 17.8722L3.49825 18.6995L4.31071 17.8757ZM6.43455 15.7988L7.28157 15.0105L6.47355 14.1423L5.62557 14.9715L6.43455 15.7988ZM7.7445 16.9806L7.04914 17.9054L7.97611 18.6024L8.67093 17.6738L7.7445 16.9806ZM8.23095 16.3305L9.15738 17.0237L9.84906 16.0993L8.92623 15.4056L8.23095 16.3305ZM7.015 15.2312L6.20601 14.4039L5.4006 15.1915L6.16638 16.0177L7.015 15.2312ZM8.75835 12.391L9.56734 13.2183L10.5154 12.2911L9.46839 11.4774L8.75835 12.391ZM8.3569 12.11L7.74628 13.0928L7.74638 13.0929L8.3569 12.11ZM7.23045 11.7051L7.28613 10.5493L7.28586 10.5493L7.23045 11.7051ZM6.2321 12.0818L5.45707 11.2227L5.45698 11.2227L6.2321 12.0818ZM5.80885 13.0082L4.65198 13.03L4.65198 13.0301L5.80885 13.0082ZM6.20785 14.1773L7.20258 13.5862L7.20242 13.5859L6.20785 14.1773ZM6.4937 14.6056L5.5626 15.2925L6.352 16.3626L7.30269 15.4329L6.4937 14.6056ZM12.2875 10.5582C12.1539 10.6889 11.9401 10.6902 11.8049 10.5611L13.4027 8.8872C12.6358 8.15514 11.4276 8.16245 10.6696 8.9037L12.2875 10.5582ZM11.8048 10.5611L15.4916 14.0806L17.0896 12.4067L13.4028 8.88722L11.8048 10.5611ZM17.1097 14.0609L20.597 10.5655L18.9587 8.93109L15.4715 12.4264L17.1097 14.0609ZM20.597 10.5655C20.4615 10.7013 20.2407 10.7013 20.1052 10.5655L21.7435 8.93111C20.9748 8.1606 19.7274 8.1606 18.9587 8.93111L20.597 10.5655ZM20.1052 10.5655L27.4434 17.9209L29.0817 16.2865L21.7435 8.9311L20.1052 10.5655ZM27.4434 17.9209C27.3118 17.789 27.3092 17.577 27.4374 17.4419L29.1158 19.0351C29.8505 18.2611 29.8354 17.0421 29.0817 16.2865L27.4434 17.9209ZM27.4375 17.4418L16.0362 29.4509L17.7144 31.0442L29.1157 19.0352L27.4375 17.4418ZM16.0362 29.4509C16.1697 29.3103 16.3936 29.3064 16.5319 29.4428L14.907 31.0905C15.6911 31.8638 16.9563 31.8428 17.7144 31.0442L16.0362 29.4509ZM16.5319 29.4428L4.55459 17.6311L2.92967 19.2788L14.907 31.0905L16.5319 29.4428ZM4.55463 17.6311C4.6916 17.7662 4.69121 17.9867 4.55356 18.1213L2.93558 16.4667C2.14766 17.2373 2.14507 18.5049 2.92963 19.2787L4.55463 17.6311ZM4.55356 18.1213L6.71763 16.005L5.09967 14.3505L2.93559 16.4667L4.55356 18.1213ZM6.82893 14.4764C6.70701 14.3164 6.59845 14.1575 6.50596 14.0019L4.51684 15.1846C4.66105 15.4271 4.82099 15.6595 4.98837 15.8791L6.82893 14.4764ZM6.50598 14.002C6.27065 13.6061 6.16021 13.2677 6.15518 13.0017L3.84143 13.0455C3.85699 13.8681 4.17385 14.6077 4.51682 15.1846L6.50598 14.002ZM6.15518 13.0017C6.15082 12.7716 6.22177 12.5562 6.46485 12.337L4.91475 10.6187C4.17183 11.2889 3.82445 12.148 3.84143 13.0455L6.15518 13.0017ZM6.46486 12.3369C6.72276 12.1043 6.96771 12.0373 7.21372 12.0492L7.32488 9.73767C6.46889 9.6965 5.62664 9.97644 4.91474 10.6187L6.46486 12.3369ZM7.21377 12.0492C7.48577 12.0622 7.81027 12.1765 8.17339 12.4021L9.39461 10.4364C8.83623 10.0895 8.12683 9.7762 7.32483 9.73767L7.21377 12.0492ZM8.17344 12.4021C8.32029 12.4934 8.46899 12.6001 8.61754 12.7198L10.0695 10.9178C9.85821 10.7476 9.63261 10.5843 9.39456 10.4364L8.17344 12.4021ZM10.1525 12.6461L12.2875 10.5582L10.6696 8.90369L8.53452 10.9915L10.1525 12.6461ZM8.54692 13.749C8.8653 14.0682 9.14022 14.4117 9.33229 14.6931L11.2437 13.3886C10.9756 12.9957 10.6103 12.5408 10.1855 12.1148L8.54692 13.749ZM10.9424 14.995L11.6115 14.5361L10.3027 12.6277L9.63355 13.0866L10.9424 14.995ZM11.9128 12.9296C11.6277 12.5119 11.2343 12.0182 10.7668 11.5483L9.1263 13.1805C9.48617 13.5422 9.79013 13.9247 10.0014 14.2343L11.9128 12.9296ZM10.7555 13.1917L12.8537 11.1399L11.2357 9.48535L9.13756 11.5372L10.7555 13.1917ZM11.2457 11.1496L14.9325 14.6691L16.5305 12.9952L12.8437 9.47567L11.2457 11.1496ZM14.9325 14.669C15.7063 15.4078 16.9276 15.3926 17.683 14.6355L16.0448 13.001C16.1778 12.8677 16.394 12.8649 16.5305 12.9952L14.9325 14.669ZM17.683 14.6355L21.1702 11.1401L19.532 9.50569L16.0448 13.001L17.683 14.6355ZM19.532 11.1401L26.8702 18.4955L28.5084 16.8611L21.1702 9.5057L19.532 11.1401ZM26.8502 16.8816L15.4489 28.8908L17.1271 30.4841L28.5284 18.475L26.8502 16.8816ZM17.1005 28.8636L5.12317 17.0518L3.49825 18.6995L15.4755 30.5113L17.1005 28.8636ZM5.1197 18.7029L7.24353 16.626L5.62557 14.9715L3.50173 17.0484L5.1197 18.7029ZM5.58753 16.587C6.08136 17.1177 6.60766 17.5734 7.04914 17.9054L8.43986 16.0557C8.09624 15.7974 7.67354 15.4317 7.28157 15.0105L5.58753 16.587ZM8.67093 17.6738L9.15738 17.0237L7.30452 15.6372L6.81807 16.2873L8.67093 17.6738ZM8.92623 15.4056C8.60525 15.1643 8.21664 14.8255 7.86362 14.4446L6.16638 16.0177C6.62056 16.5077 7.11346 16.938 7.53567 17.2554L8.92623 15.4056ZM7.82399 16.0584L10.1752 13.7592L8.55721 12.1046L6.20601 14.4039L7.82399 16.0584ZM9.46839 11.4774C9.30962 11.354 9.14224 11.2357 8.96742 11.1271L7.74638 13.0929C7.84396 13.1535 7.94499 13.2243 8.04831 13.3046L9.46839 11.4774ZM8.96752 11.1271C8.47741 10.8226 7.90266 10.579 7.28613 10.5493L7.17477 12.8608C7.26184 12.865 7.45189 12.9099 7.74628 13.0928L8.96752 11.1271ZM7.28586 10.5493C6.64316 10.5185 6.00991 10.7239 5.45707 11.2227L7.00713 12.941C7.06943 12.8848 7.10582 12.8704 7.11571 12.8669C7.12521 12.8635 7.14065 12.8592 7.17504 12.8608L7.28586 10.5493ZM5.45698 11.2227C4.88944 11.7348 4.63949 12.3676 4.65198 13.03L6.96572 12.9863C6.96548 12.9734 6.96654 12.9696 6.96598 12.9727C6.96533 12.9763 6.96372 12.9823 6.96106 12.9884C6.95842 12.9945 6.95739 12.9947 6.96205 12.9884C6.96702 12.9816 6.98012 12.9653 7.00722 12.9409L5.45698 11.2227ZM4.65198 13.0301C4.66385 13.6567 4.90808 14.2553 5.21329 14.7686L7.20242 13.5859C7.00492 13.2538 6.96705 13.0564 6.96572 12.9862L4.65198 13.0301ZM5.21312 14.7683C5.32092 14.9497 5.43902 15.1251 5.5626 15.2925L7.42481 13.9187C7.34048 13.8044 7.26608 13.6931 7.20258 13.5862L5.21312 14.7683ZM7.30269 15.4329L9.56734 13.2183L7.94937 11.5637L5.68472 13.7783L7.30269 15.4329Z" fill="#ED1B2F" mask="url(#path-1-inside-1)"/>
<path d="M8.59544 16.6558C8.59544 16.9924 8.32319 17.2653 7.98739 17.2653C7.65159 17.2653 7.37939 16.9924 7.37939 16.6558C7.37939 16.3192 7.65159 16.0464 7.98739 16.0464C8.32319 16.0464 8.59544 16.3192 8.59544 16.6558Z" fill="#EC1B2F"/>
<path d="M11.2302 13.8111C11.2302 14.1477 10.958 14.4206 10.6222 14.4206C10.2864 14.4206 10.0142 14.1477 10.0142 13.8111C10.0142 13.4745 10.2864 13.2017 10.6222 13.2017C10.958 13.2017 11.2302 13.4745 11.2302 13.8111Z" fill="#EC1B2F"/>
<path fill-rule="evenodd" clip-rule="evenodd" d="M11.3037 9.55219C11.7122 9.15274 12.3631 9.14879 12.7764 9.54334L16.2863 12.8939L19.6008 9.57169C20.0151 9.15644 20.687 9.15644 21.1013 9.57169L28.4395 16.9271C28.8462 17.3348 28.8544 17.9929 28.4579 18.4106L17.0566 30.4197C16.648 30.8501 15.9664 30.8614 15.5439 30.4446L3.56659 18.6329C3.14322 18.2154 3.14466 17.5309 3.56978 17.1152L5.5783 15.1511C5.47795 15.0107 5.38335 14.867 5.2965 14.721C4.99574 14.2151 4.75978 13.6327 4.74835 13.0283C4.73631 12.3924 4.97531 11.7856 5.5223 11.2922C6.0563 10.8105 6.6644 10.614 7.2813 10.6437C7.87555 10.6722 8.4341 10.9075 8.9159 11.2069C9.05565 11.2937 9.19215 11.3879 9.32475 11.4874L11.3037 9.55219ZM12.4311 9.90499C12.2128 9.69654 11.8692 9.69859 11.6533 9.90969L9.3595 12.1528L9.1866 12.0134C9.01355 11.874 8.8347 11.745 8.65205 11.6316C8.21245 11.3585 7.73705 11.1662 7.25725 11.1431C6.7722 11.1198 6.2931 11.2702 5.85725 11.6634C5.41825 12.0594 5.23895 12.5271 5.24825 13.0188C5.2574 13.5029 5.4488 13.9987 5.7263 14.4655C5.83905 14.6551 5.9677 14.8428 6.1075 15.0261L6.2415 15.2019L3.91936 17.4727C3.69421 17.6929 3.69344 18.0557 3.91767 18.2769L15.895 30.0886C16.1182 30.3088 16.478 30.3029 16.694 30.0754L28.0952 18.0663C28.3053 17.8451 28.3009 17.4961 28.0855 17.2802L20.7473 9.92484C20.5285 9.70539 20.1737 9.70539 19.9548 9.92484L16.2949 13.5933L12.4311 9.90499ZM12.0426 9.96499L15.9041 13.6513C16.1244 13.8616 16.4717 13.8573 16.6869 13.6417L20.3511 9.96889L28.0381 17.6739L16.2939 30.0443L3.95391 17.8749L6.44295 15.4408L6.61755 15.6284C6.8212 15.8473 7.0319 16.0521 7.2377 16.2376C7.2889 16.1457 7.3564 16.0641 7.4363 15.9969C7.23395 15.8141 7.02855 15.6135 6.8316 15.4011L6.66615 15.2226L9.3684 12.58L9.54325 12.7553C9.70045 12.913 9.8487 13.0752 9.9853 13.2357C10.0551 13.1583 10.1388 13.0936 10.2324 13.0456C10.0905 12.8781 9.9353 12.7075 9.7693 12.5407L9.59145 12.3619L12.0426 9.96499ZM10.5605 13.4573C10.4516 13.4764 10.3593 13.545 10.3079 13.6394C10.322 13.6582 10.3359 13.6769 10.3495 13.6954L10.6064 13.5192C10.5914 13.4987 10.5761 13.4781 10.5605 13.4573ZM10.5508 14.1636L10.9753 13.8725C10.9464 14.0423 10.799 14.1708 10.6225 14.1708C10.5979 14.1708 10.574 14.1683 10.5508 14.1636ZM9.7662 13.7561C9.76505 13.7743 9.76445 13.7928 9.76445 13.8114C9.76445 14.2855 10.148 14.6708 10.6225 14.6708C11.0969 14.6708 11.4805 14.2855 11.4805 13.8114C11.4805 13.4054 11.1992 13.0644 10.8204 12.9749C10.665 12.7778 10.49 12.5726 10.299 12.3693L12.0467 10.6602L15.5589 14.0129C15.9758 14.411 16.6337 14.4029 17.0408 13.9948L20.3511 10.6768L27.3404 17.6826L16.2821 29.3304L4.66751 17.8764L6.4285 16.1543C6.6683 16.3989 6.9127 16.6236 7.14555 16.8211C7.2226 17.2162 7.56995 17.5149 7.98765 17.5149C8.4621 17.5149 8.8457 17.1296 8.8457 16.6555C8.8457 16.1813 8.4621 15.796 7.98765 15.796C7.9802 15.796 7.9728 15.7961 7.9654 15.7963C7.76885 15.6283 7.5649 15.4397 7.3663 15.2373L9.36105 13.2866C9.5073 13.4432 9.64335 13.602 9.7662 13.7561ZM7.8288 16.3333C7.7326 16.3812 7.66075 16.4712 7.6376 16.5797C7.6574 16.5958 7.6771 16.6116 7.69665 16.6272L7.8836 16.3774C7.86545 16.3629 7.84715 16.3482 7.8288 16.3333ZM8.03315 17.012L8.34145 16.6C8.34425 16.6181 8.3457 16.6366 8.3457 16.6555C8.3457 16.839 8.209 16.9896 8.03315 17.012ZM7.2184 11.9548C6.94645 11.9417 6.67635 12.0178 6.3996 12.2674C6.13585 12.5053 6.05395 12.7467 6.05885 13.0034C6.0643 13.2917 6.183 13.6463 6.4227 14.0495C6.4566 14.1065 6.4924 14.1636 6.52985 14.2206L8.37255 12.4186C8.3235 12.3851 8.2743 12.3529 8.22495 12.3223C7.85385 12.0917 7.51305 11.9689 7.2184 11.9548ZM6.06465 11.8962C6.4395 11.558 6.83865 11.4359 7.24245 11.4553C7.6515 11.475 8.07545 11.6408 8.4888 11.8976C8.63335 11.9873 8.77475 12.0871 8.91175 12.1936L9.138 12.3694L6.4631 14.9852L6.29255 14.754C6.18435 14.6073 6.0834 14.4572 5.99295 14.305C5.72995 13.8627 5.56665 13.4214 5.5589 13.0129C5.55135 12.612 5.69295 12.2315 6.06465 11.8962Z" fill="#ED1B2F" stroke="#ED1B2F"/>
<path d="M48.078 14.613C48.1807 14.613 48.2717 14.6527 48.351 14.732L49.093 15.537C48.6823 16.0457 48.176 16.4353 47.574 16.706C46.9767 16.9767 46.258 17.112 45.418 17.112C44.6667 17.112 43.99 16.9837 43.388 16.727C42.7907 16.4703 42.2797 16.1133 41.855 15.656C41.4303 15.1987 41.1037 14.6527 40.875 14.018C40.651 13.3833 40.539 12.6903 40.539 11.939C40.539 11.1783 40.6603 10.483 40.903 9.853C41.1457 9.21833 41.4863 8.67233 41.925 8.215C42.3683 7.75767 42.8957 7.403 43.507 7.151C44.1183 6.89433 44.795 6.766 45.537 6.766C46.2743 6.766 46.9277 6.88733 47.497 7.13C48.071 7.37267 48.5587 7.69 48.96 8.082L48.33 8.957C48.2927 9.013 48.2437 9.062 48.183 9.104C48.127 9.146 48.0477 9.167 47.945 9.167C47.875 9.167 47.8027 9.14833 47.728 9.111C47.6533 9.069 47.5717 9.02 47.483 8.964C47.3943 8.90333 47.2917 8.838 47.175 8.768C47.0583 8.698 46.923 8.635 46.769 8.579C46.615 8.51833 46.4353 8.46933 46.23 8.432C46.0293 8.39 45.796 8.369 45.53 8.369C45.0773 8.369 44.662 8.45067 44.284 8.614C43.9107 8.77267 43.5887 9.006 43.318 9.314C43.0473 9.61733 42.8373 9.99067 42.688 10.434C42.5387 10.8727 42.464 11.3743 42.464 11.939C42.464 12.5083 42.5433 13.0147 42.702 13.458C42.8653 13.9013 43.0847 14.2747 43.36 14.578C43.6353 14.8813 43.9597 15.1147 44.333 15.278C44.7063 15.4367 45.1077 15.516 45.537 15.516C45.7937 15.516 46.0247 15.502 46.23 15.474C46.44 15.446 46.6313 15.4017 46.804 15.341C46.9813 15.2803 47.147 15.2033 47.301 15.11C47.4597 15.012 47.616 14.893 47.77 14.753C47.8167 14.711 47.8657 14.6783 47.917 14.655C47.9683 14.627 48.022 14.613 48.078 14.613ZM51.8599 6.598V17H50.1309V6.598H51.8599ZM59.7705 9.818V17H58.7135C58.4848 17 58.3402 16.895 58.2795 16.685L58.1605 16.111C57.8665 16.4097 57.5422 16.6523 57.1875 16.839C56.8328 17.021 56.4152 17.112 55.9345 17.112C55.5425 17.112 55.1948 17.0467 54.8915 16.916C54.5928 16.7807 54.3408 16.5917 54.1355 16.349C53.9302 16.1063 53.7738 15.8193 53.6665 15.488C53.5638 15.152 53.5125 14.7833 53.5125 14.382V9.818H55.2415V14.382C55.2415 14.8207 55.3418 15.1613 55.5425 15.404C55.7478 15.642 56.0535 15.761 56.4595 15.761C56.7582 15.761 57.0382 15.6957 57.2995 15.565C57.5608 15.4297 57.8082 15.2453 58.0415 15.012V9.818H59.7705ZM63.2139 15.138C63.4099 15.376 63.6222 15.544 63.8509 15.642C64.0842 15.74 64.3292 15.789 64.5859 15.789C64.8519 15.789 65.0899 15.7423 65.2999 15.649C65.5145 15.551 65.6965 15.4017 65.8459 15.201C65.9952 14.9957 66.1095 14.7367 66.1889 14.424C66.2682 14.1067 66.3079 13.7287 66.3079 13.29C66.3079 12.5013 66.1772 11.932 65.9159 11.582C65.6545 11.2273 65.2789 11.05 64.7889 11.05C64.4575 11.05 64.1682 11.127 63.9209 11.281C63.6735 11.4303 63.4379 11.6427 63.2139 11.918V15.138ZM63.2139 10.7C63.5032 10.3967 63.8229 10.1563 64.1729 9.979C64.5275 9.797 64.9312 9.706 65.3839 9.706C65.7992 9.706 66.1725 9.78767 66.5039 9.951C66.8399 10.1143 67.1245 10.35 67.3579 10.658C67.5959 10.9613 67.7779 11.33 67.9039 11.764C68.0299 12.198 68.0929 12.6857 68.0929 13.227C68.0929 13.8103 68.0205 14.34 67.8759 14.816C67.7312 15.292 67.5235 15.7003 67.2529 16.041C66.9869 16.377 66.6649 16.6383 66.2869 16.825C65.9089 17.0117 65.4889 17.105 65.0269 17.105C64.8029 17.105 64.5999 17.0817 64.4179 17.035C64.2359 16.993 64.0679 16.9323 63.9139 16.853C63.7599 16.7737 63.6175 16.678 63.4869 16.566C63.3609 16.4493 63.2395 16.321 63.1229 16.181L63.0459 16.664C63.0179 16.7853 62.9689 16.8717 62.8989 16.923C62.8335 16.9743 62.7425 17 62.6259 17H61.4849V6.598H63.2139V10.7ZM74.0552 12.583C74.0552 12.359 74.0226 12.149 73.9572 11.953C73.8966 11.7523 73.8032 11.5773 73.6772 11.428C73.5512 11.2787 73.3902 11.162 73.1942 11.078C73.0029 10.9893 72.7789 10.945 72.5222 10.945C72.0229 10.945 71.6286 11.0873 71.3392 11.372C71.0546 11.6567 70.8726 12.0603 70.7932 12.583H74.0552ZM70.7582 13.626C70.7862 13.9947 70.8516 14.3143 70.9542 14.585C71.0569 14.851 71.1922 15.0727 71.3602 15.25C71.5282 15.4227 71.7266 15.5533 71.9552 15.642C72.1886 15.726 72.4452 15.768 72.7252 15.768C73.0052 15.768 73.2456 15.7353 73.4462 15.67C73.6516 15.6047 73.8289 15.5323 73.9782 15.453C74.1322 15.3737 74.2652 15.3013 74.3772 15.236C74.4939 15.1707 74.6059 15.138 74.7132 15.138C74.8579 15.138 74.9652 15.1917 75.0352 15.299L75.5322 15.929C75.3409 16.153 75.1262 16.342 74.8882 16.496C74.6502 16.6453 74.4006 16.7667 74.1392 16.86C73.8826 16.9487 73.6189 17.0117 73.3482 17.049C73.0822 17.0863 72.8232 17.105 72.5712 17.105C72.0719 17.105 71.6076 17.0233 71.1782 16.86C70.7489 16.692 70.3756 16.447 70.0582 16.125C69.7409 15.7983 69.4912 15.397 69.3092 14.921C69.1272 14.4403 69.0362 13.885 69.0362 13.255C69.0362 12.765 69.1156 12.3053 69.2742 11.876C69.4329 11.442 69.6592 11.0663 69.9532 10.749C70.2519 10.427 70.6136 10.1727 71.0382 9.986C71.4676 9.79933 71.9506 9.706 72.4872 9.706C72.9399 9.706 73.3576 9.77833 73.7402 9.923C74.1229 10.0677 74.4519 10.28 74.7272 10.56C75.0026 10.8353 75.2172 11.176 75.3712 11.582C75.5299 11.9833 75.6092 12.443 75.6092 12.961C75.6092 13.2223 75.5812 13.3997 75.5252 13.493C75.4692 13.5817 75.3619 13.626 75.2032 13.626H70.7582ZM91.56 6.878V17H89.901V10.462C89.901 10.2007 89.915 9.91833 89.943 9.615L86.884 15.362C86.7394 15.6373 86.5177 15.775 86.219 15.775H85.953C85.6544 15.775 85.4327 15.6373 85.288 15.362L82.194 9.594C82.208 9.748 82.2197 9.89967 82.229 10.049C82.2384 10.1983 82.243 10.336 82.243 10.462V17H80.584V6.878H82.005C82.089 6.878 82.1614 6.88033 82.222 6.885C82.2827 6.88967 82.3364 6.90133 82.383 6.92C82.4344 6.93867 82.4787 6.969 82.516 7.011C82.558 7.053 82.5977 7.109 82.635 7.179L85.666 12.8C85.7454 12.9493 85.8177 13.1033 85.883 13.262C85.953 13.4207 86.0207 13.584 86.086 13.752C86.1514 13.5793 86.219 13.4137 86.289 13.255C86.359 13.0917 86.4337 12.9353 86.513 12.786L89.502 7.179C89.5394 7.109 89.579 7.053 89.621 7.011C89.663 6.969 89.7074 6.93867 89.754 6.92C89.8054 6.90133 89.8614 6.88967 89.922 6.885C89.9827 6.88033 90.055 6.878 90.139 6.878H91.56ZM95.2417 9.818V17H93.5057V9.818H95.2417ZM95.4797 7.725C95.4797 7.87433 95.4494 8.01433 95.3887 8.145C95.328 8.27567 95.2464 8.39 95.1437 8.488C95.0457 8.586 94.929 8.66533 94.7937 8.726C94.6584 8.782 94.5137 8.81 94.3597 8.81C94.2104 8.81 94.068 8.782 93.9327 8.726C93.802 8.66533 93.6877 8.586 93.5897 8.488C93.4917 8.39 93.4124 8.27567 93.3517 8.145C93.2957 8.01433 93.2677 7.87433 93.2677 7.725C93.2677 7.571 93.2957 7.42633 93.3517 7.291C93.4124 7.15567 93.4917 7.039 93.5897 6.941C93.6877 6.843 93.802 6.766 93.9327 6.71C94.068 6.64933 94.2104 6.619 94.3597 6.619C94.5137 6.619 94.6584 6.64933 94.7937 6.71C94.929 6.766 95.0457 6.843 95.1437 6.941C95.2464 7.039 95.328 7.15567 95.3887 7.291C95.4494 7.42633 95.4797 7.571 95.4797 7.725ZM98.6214 10.7C98.7661 10.5553 98.9177 10.4223 99.0764 10.301C99.2397 10.175 99.4101 10.07 99.5874 9.986C99.7694 9.89733 99.9631 9.82967 100.168 9.783C100.374 9.73167 100.598 9.706 100.84 9.706C101.232 9.706 101.58 9.77367 101.883 9.909C102.187 10.0397 102.439 10.2263 102.639 10.469C102.845 10.707 102.999 10.994 103.101 11.33C103.209 11.6613 103.262 12.0277 103.262 12.429V17H101.533V12.429C101.533 11.9903 101.433 11.652 101.232 11.414C101.032 11.1713 100.726 11.05 100.315 11.05C100.017 11.05 99.7367 11.1177 99.4754 11.253C99.2141 11.3883 98.9667 11.5727 98.7334 11.806V17H97.0044V9.818H98.0614C98.2854 9.818 98.4324 9.923 98.5024 10.133L98.6214 10.7ZM106.636 10.588C106.916 10.3267 107.224 10.1143 107.56 9.951C107.896 9.78767 108.29 9.706 108.743 9.706C109.135 9.706 109.482 9.77367 109.786 9.909C110.089 10.0397 110.341 10.2263 110.542 10.469C110.747 10.707 110.901 10.994 111.004 11.33C111.111 11.6613 111.165 12.0277 111.165 12.429V17H109.436V12.429C109.436 11.9903 109.335 11.652 109.135 11.414C108.934 11.1713 108.628 11.05 108.218 11.05C107.919 11.05 107.639 11.1177 107.378 11.253C107.116 11.3883 106.869 11.5727 106.636 11.806V17H104.907V6.598H106.636V10.588ZM116.603 13.934C116.104 13.9573 115.684 14.0017 115.343 14.067C115.002 14.1277 114.729 14.207 114.524 14.305C114.319 14.403 114.172 14.5173 114.083 14.648C113.994 14.7787 113.95 14.921 113.95 15.075C113.95 15.3783 114.039 15.5953 114.216 15.726C114.398 15.8567 114.634 15.922 114.923 15.922C115.278 15.922 115.583 15.859 115.84 15.733C116.101 15.6023 116.356 15.4063 116.603 15.145V13.934ZM112.641 10.819C113.467 10.063 114.461 9.685 115.623 9.685C116.043 9.685 116.419 9.755 116.75 9.895C117.081 10.0303 117.361 10.2217 117.59 10.469C117.819 10.7117 117.991 11.0033 118.108 11.344C118.229 11.6847 118.29 12.058 118.29 12.464V17H117.506C117.343 17 117.217 16.9767 117.128 16.93C117.039 16.8787 116.969 16.7783 116.918 16.629L116.764 16.111C116.582 16.2743 116.405 16.419 116.232 16.545C116.059 16.6663 115.88 16.769 115.693 16.853C115.506 16.937 115.306 17 115.091 17.042C114.881 17.0887 114.648 17.112 114.391 17.112C114.088 17.112 113.808 17.0723 113.551 16.993C113.294 16.909 113.073 16.7853 112.886 16.622C112.699 16.4587 112.555 16.2557 112.452 16.013C112.349 15.7703 112.298 15.488 112.298 15.166C112.298 14.984 112.328 14.8043 112.389 14.627C112.45 14.445 112.548 14.2723 112.683 14.109C112.823 13.9457 113.003 13.7917 113.222 13.647C113.441 13.5023 113.71 13.3763 114.027 13.269C114.349 13.1617 114.722 13.0753 115.147 13.01C115.572 12.94 116.057 12.898 116.603 12.884V12.464C116.603 11.9833 116.5 11.6287 116.295 11.4C116.09 11.1667 115.793 11.05 115.406 11.05C115.126 11.05 114.893 11.0827 114.706 11.148C114.524 11.2133 114.363 11.288 114.223 11.372C114.083 11.4513 113.955 11.5237 113.838 11.589C113.726 11.6543 113.6 11.687 113.46 11.687C113.339 11.687 113.236 11.6567 113.152 11.596C113.068 11.5307 113 11.456 112.949 11.372L112.641 10.819ZM129.525 15.446V17H123.596V6.878H125.479V15.446H129.525ZM134.854 12.583C134.854 12.359 134.821 12.149 134.756 11.953C134.695 11.7523 134.602 11.5773 134.476 11.428C134.35 11.2787 134.189 11.162 133.993 11.078C133.802 10.9893 133.578 10.945 133.321 10.945C132.822 10.945 132.427 11.0873 132.138 11.372C131.853 11.6567 131.671 12.0603 131.592 12.583H134.854ZM131.557 13.626C131.585 13.9947 131.65 14.3143 131.753 14.585C131.856 14.851 131.991 15.0727 132.159 15.25C132.327 15.4227 132.525 15.5533 132.754 15.642C132.987 15.726 133.244 15.768 133.524 15.768C133.804 15.768 134.044 15.7353 134.245 15.67C134.45 15.6047 134.628 15.5323 134.777 15.453C134.931 15.3737 135.064 15.3013 135.176 15.236C135.293 15.1707 135.405 15.138 135.512 15.138C135.657 15.138 135.764 15.1917 135.834 15.299L136.331 15.929C136.14 16.153 135.925 16.342 135.687 16.496C135.449 16.6453 135.199 16.7667 134.938 16.86C134.681 16.9487 134.418 17.0117 134.147 17.049C133.881 17.0863 133.622 17.105 133.37 17.105C132.871 17.105 132.406 17.0233 131.977 16.86C131.548 16.692 131.174 16.447 130.857 16.125C130.54 15.7983 130.29 15.397 130.108 14.921C129.926 14.4403 129.835 13.885 129.835 13.255C129.835 12.765 129.914 12.3053 130.073 11.876C130.232 11.442 130.458 11.0663 130.752 10.749C131.051 10.427 131.412 10.1727 131.837 9.986C132.266 9.79933 132.749 9.706 133.286 9.706C133.739 9.706 134.156 9.77833 134.539 9.923C134.922 10.0677 135.251 10.28 135.526 10.56C135.801 10.8353 136.016 11.176 136.17 11.582C136.329 11.9833 136.408 12.443 136.408 12.961C136.408 13.2223 136.38 13.3997 136.324 13.493C136.268 13.5817 136.161 13.626 136.002 13.626H131.557ZM44.806 29.368C44.606 29.1 44.39 28.914 44.158 28.81C43.926 28.702 43.666 28.648 43.378 28.648C42.814 28.648 42.38 28.85 42.076 29.254C41.772 29.658 41.62 30.234 41.62 30.982C41.62 31.378 41.654 31.718 41.722 32.002C41.79 32.282 41.89 32.514 42.022 32.698C42.154 32.878 42.316 33.01 42.508 33.094C42.7 33.178 42.918 33.22 43.162 33.22C43.514 33.22 43.82 33.14 44.08 32.98C44.344 32.82 44.586 32.594 44.806 32.302V29.368ZM45.874 25.162V34H45.238C45.086 34 44.99 33.926 44.95 33.778L44.854 33.04C44.594 33.352 44.298 33.604 43.966 33.796C43.634 33.988 43.25 34.084 42.814 34.084C42.466 34.084 42.15 34.018 41.866 33.886C41.582 33.75 41.34 33.552 41.14 33.292C40.94 33.032 40.786 32.708 40.678 32.32C40.57 31.932 40.516 31.486 40.516 30.982C40.516 30.534 40.576 30.118 40.696 29.734C40.816 29.346 40.988 29.01 41.212 28.726C41.436 28.442 41.71 28.22 42.034 28.06C42.362 27.896 42.73 27.814 43.138 27.814C43.51 27.814 43.828 27.878 44.092 28.006C44.36 28.13 44.598 28.304 44.806 28.528V25.162H45.874ZM51.6288 30.298C51.6288 30.05 51.5928 29.824 51.5208 29.62C51.4528 29.412 51.3508 29.234 51.2148 29.086C51.0828 28.934 50.9208 28.818 50.7288 28.738C50.5368 28.654 50.3188 28.612 50.0748 28.612C49.5628 28.612 49.1568 28.762 48.8568 29.062C48.5608 29.358 48.3768 29.77 48.3048 30.298H51.6288ZM52.4928 33.148C52.3608 33.308 52.2028 33.448 52.0188 33.568C51.8348 33.684 51.6368 33.78 51.4248 33.856C51.2168 33.932 51.0008 33.988 50.7768 34.024C50.5528 34.064 50.3308 34.084 50.1108 34.084C49.6908 34.084 49.3028 34.014 48.9468 33.874C48.5948 33.73 48.2888 33.522 48.0288 33.25C47.7728 32.974 47.5728 32.634 47.4288 32.23C47.2848 31.826 47.2128 31.362 47.2128 30.838C47.2128 30.414 47.2768 30.018 47.4048 29.65C47.5368 29.282 47.7248 28.964 47.9688 28.696C48.2128 28.424 48.5108 28.212 48.8628 28.06C49.2148 27.904 49.6108 27.826 50.0508 27.826C50.4148 27.826 50.7508 27.888 51.0588 28.012C51.3708 28.132 51.6388 28.308 51.8628 28.54C52.0908 28.768 52.2688 29.052 52.3968 29.392C52.5248 29.728 52.5888 30.112 52.5888 30.544C52.5888 30.712 52.5708 30.824 52.5348 30.88C52.4988 30.936 52.4308 30.964 52.3308 30.964H48.2688C48.2808 31.348 48.3328 31.682 48.4248 31.966C48.5208 32.25 48.6528 32.488 48.8208 32.68C48.9888 32.868 49.1888 33.01 49.4208 33.106C49.6528 33.198 49.9128 33.244 50.2008 33.244C50.4688 33.244 50.6988 33.214 50.8908 33.154C51.0868 33.09 51.2548 33.022 51.3948 32.95C51.5348 32.878 51.6508 32.812 51.7428 32.752C51.8388 32.688 51.9208 32.656 51.9888 32.656C52.0768 32.656 52.1448 32.69 52.1928 32.758L52.4928 33.148ZM57.4407 28.924C57.3927 29.012 57.3187 29.056 57.2187 29.056C57.1587 29.056 57.0907 29.034 57.0147 28.99C56.9387 28.946 56.8447 28.898 56.7327 28.846C56.6247 28.79 56.4947 28.74 56.3427 28.696C56.1907 28.648 56.0107 28.624 55.8027 28.624C55.6227 28.624 55.4607 28.648 55.3167 28.696C55.1727 28.74 55.0487 28.802 54.9447 28.882C54.8447 28.962 54.7667 29.056 54.7107 29.164C54.6587 29.268 54.6327 29.382 54.6327 29.506C54.6327 29.662 54.6767 29.792 54.7647 29.896C54.8567 30 54.9767 30.09 55.1247 30.166C55.2727 30.242 55.4407 30.31 55.6287 30.37C55.8167 30.426 56.0087 30.488 56.2047 30.556C56.4047 30.62 56.5987 30.692 56.7867 30.772C56.9747 30.852 57.1427 30.952 57.2907 31.072C57.4387 31.192 57.5567 31.34 57.6447 31.516C57.7367 31.688 57.7827 31.896 57.7827 32.14C57.7827 32.42 57.7327 32.68 57.6327 32.92C57.5327 33.156 57.3847 33.362 57.1887 33.538C56.9927 33.71 56.7527 33.846 56.4687 33.946C56.1847 34.046 55.8567 34.096 55.4847 34.096C55.0607 34.096 54.6767 34.028 54.3327 33.892C53.9887 33.752 53.6967 33.574 53.4567 33.358L53.7087 32.95C53.7407 32.898 53.7787 32.858 53.8227 32.83C53.8667 32.802 53.9227 32.788 53.9907 32.788C54.0627 32.788 54.1387 32.816 54.2187 32.872C54.2987 32.928 54.3947 32.99 54.5067 33.058C54.6227 33.126 54.7627 33.188 54.9267 33.244C55.0907 33.3 55.2947 33.328 55.5387 33.328C55.7467 33.328 55.9287 33.302 56.0847 33.25C56.2407 33.194 56.3707 33.12 56.4747 33.028C56.5787 32.936 56.6547 32.83 56.7027 32.71C56.7547 32.59 56.7807 32.462 56.7807 32.326C56.7807 32.158 56.7347 32.02 56.6427 31.912C56.5547 31.8 56.4367 31.706 56.2887 31.63C56.1407 31.55 55.9707 31.482 55.7787 31.426C55.5907 31.366 55.3967 31.304 55.1967 31.24C55.0007 31.176 54.8067 31.104 54.6147 31.024C54.4267 30.94 54.2587 30.836 54.1107 30.712C53.9627 30.588 53.8427 30.436 53.7507 30.256C53.6627 30.072 53.6187 29.85 53.6187 29.59C53.6187 29.358 53.6667 29.136 53.7627 28.924C53.8587 28.708 53.9987 28.52 54.1827 28.36C54.3667 28.196 54.5927 28.066 54.8607 27.97C55.1287 27.874 55.4347 27.826 55.7787 27.826C56.1787 27.826 56.5367 27.89 56.8527 28.018C57.1727 28.142 57.4487 28.314 57.6807 28.534L57.4407 28.924ZM63.3221 29.002C63.2901 29.046 63.2581 29.08 63.2261 29.104C63.1941 29.128 63.1501 29.14 63.0941 29.14C63.0341 29.14 62.9681 29.116 62.8961 29.068C62.8241 29.016 62.7341 28.96 62.6261 28.9C62.5221 28.84 62.3921 28.786 62.2361 28.738C62.0841 28.686 61.8961 28.66 61.6721 28.66C61.3721 28.66 61.1081 28.714 60.8801 28.822C60.6521 28.926 60.4601 29.078 60.3041 29.278C60.1521 29.478 60.0361 29.72 59.9561 30.004C59.8801 30.288 59.8421 30.606 59.8421 30.958C59.8421 31.326 59.8841 31.654 59.9681 31.942C60.0521 32.226 60.1701 32.466 60.3221 32.662C60.4781 32.854 60.6641 33.002 60.8801 33.106C61.1001 33.206 61.3461 33.256 61.6181 33.256C61.8781 33.256 62.0921 33.226 62.2601 33.166C62.4281 33.102 62.5661 33.032 62.6741 32.956C62.7861 32.88 62.8781 32.812 62.9501 32.752C63.0261 32.688 63.1001 32.656 63.1721 32.656C63.2601 32.656 63.3281 32.69 63.3761 32.758L63.6761 33.148C63.5441 33.312 63.3941 33.452 63.2261 33.568C63.0581 33.684 62.8761 33.782 62.6801 33.862C62.4881 33.938 62.2861 33.994 62.0741 34.03C61.8621 34.066 61.6461 34.084 61.4261 34.084C61.0461 34.084 60.6921 34.014 60.3641 33.874C60.0401 33.734 59.7581 33.532 59.5181 33.268C59.2781 33 59.0901 32.672 58.9541 32.284C58.8181 31.896 58.7501 31.454 58.7501 30.958C58.7501 30.506 58.8121 30.088 58.9361 29.704C59.0641 29.32 59.2481 28.99 59.4881 28.714C59.7321 28.434 60.0301 28.216 60.3821 28.06C60.7381 27.904 61.1461 27.826 61.6061 27.826C62.0341 27.826 62.4101 27.896 62.7341 28.036C63.0621 28.172 63.3521 28.366 63.6041 28.618L63.3221 29.002ZM67.2791 27.826C67.7231 27.826 68.1231 27.9 68.4791 28.048C68.8351 28.196 69.1391 28.406 69.3911 28.678C69.6431 28.95 69.8351 29.28 69.9671 29.668C70.1031 30.052 70.1711 30.482 70.1711 30.958C70.1711 31.438 70.1031 31.87 69.9671 32.254C69.8351 32.638 69.6431 32.966 69.3911 33.238C69.1391 33.51 68.8351 33.72 68.4791 33.868C68.1231 34.012 67.7231 34.084 67.2791 34.084C66.8311 34.084 66.4271 34.012 66.0671 33.868C65.7111 33.72 65.4071 33.51 65.1551 33.238C64.9031 32.966 64.7091 32.638 64.5731 32.254C64.4411 31.87 64.3751 31.438 64.3751 30.958C64.3751 30.482 64.4411 30.052 64.5731 29.668C64.7091 29.28 64.9031 28.95 65.1551 28.678C65.4071 28.406 65.7111 28.196 66.0671 28.048C66.4271 27.9 66.8311 27.826 67.2791 27.826ZM67.2791 33.25C67.8791 33.25 68.3271 33.05 68.6231 32.65C68.9191 32.246 69.0671 31.684 69.0671 30.964C69.0671 30.24 68.9191 29.676 68.6231 29.272C68.3271 28.868 67.8791 28.666 67.2791 28.666C66.9751 28.666 66.7091 28.718 66.4811 28.822C66.2571 28.926 66.0691 29.076 65.9171 29.272C65.7691 29.468 65.6571 29.71 65.5811 29.998C65.5091 30.282 65.4731 30.604 65.4731 30.964C65.4731 31.684 65.6211 32.246 65.9171 32.65C66.2171 33.05 66.6711 33.25 67.2791 33.25ZM72.5337 28.804C72.6657 28.656 72.8057 28.522 72.9537 28.402C73.1017 28.282 73.2577 28.18 73.4217 28.096C73.5897 28.008 73.7657 27.942 73.9497 27.898C74.1377 27.85 74.3397 27.826 74.5557 27.826C74.8877 27.826 75.1797 27.882 75.4317 27.994C75.6877 28.102 75.8997 28.258 76.0677 28.462C76.2397 28.662 76.3697 28.904 76.4577 29.188C76.5457 29.472 76.5897 29.786 76.5897 30.13V34H75.5157V30.13C75.5157 29.67 75.4097 29.314 75.1977 29.062C74.9897 28.806 74.6717 28.678 74.2437 28.678C73.9277 28.678 73.6317 28.754 73.3557 28.906C73.0837 29.058 72.8317 29.264 72.5997 29.524V34H71.5257V27.922H72.1677C72.3197 27.922 72.4137 27.996 72.4497 28.144L72.5337 28.804ZM80.0011 34.096C79.5211 34.096 79.1511 33.962 78.8911 33.694C78.6351 33.426 78.5071 33.04 78.5071 32.536V28.816H77.7751C77.7111 28.816 77.6571 28.798 77.6131 28.762C77.5691 28.722 77.5471 28.662 77.5471 28.582V28.156L78.5431 28.03L78.7891 26.152C78.8011 26.092 78.8271 26.044 78.8671 26.008C78.9111 25.968 78.9671 25.948 79.0351 25.948H79.5751V28.042H81.3331V28.816H79.5751V32.464C79.5751 32.72 79.6371 32.91 79.7611 33.034C79.8851 33.158 80.0451 33.22 80.2411 33.22C80.3531 33.22 80.4491 33.206 80.5291 33.178C80.6131 33.146 80.6851 33.112 80.7451 33.076C80.8051 33.04 80.8551 33.008 80.8951 32.98C80.9391 32.948 80.9771 32.932 81.0091 32.932C81.0651 32.932 81.1151 32.966 81.1591 33.034L81.4711 33.544C81.2871 33.716 81.0651 33.852 80.8051 33.952C80.5451 34.048 80.2771 34.096 80.0011 34.096ZM84.9627 27.826C85.4067 27.826 85.8067 27.9 86.1627 28.048C86.5187 28.196 86.8227 28.406 87.0747 28.678C87.3267 28.95 87.5187 29.28 87.6507 29.668C87.7867 30.052 87.8547 30.482 87.8547 30.958C87.8547 31.438 87.7867 31.87 87.6507 32.254C87.5187 32.638 87.3267 32.966 87.0747 33.238C86.8227 33.51 86.5187 33.72 86.1627 33.868C85.8067 34.012 85.4067 34.084 84.9627 34.084C84.5147 34.084 84.1107 34.012 83.7507 33.868C83.3947 33.72 83.0907 33.51 82.8387 33.238C82.5867 32.966 82.3927 32.638 82.2567 32.254C82.1247 31.87 82.0587 31.438 82.0587 30.958C82.0587 30.482 82.1247 30.052 82.2567 29.668C82.3927 29.28 82.5867 28.95 82.8387 28.678C83.0907 28.406 83.3947 28.196 83.7507 28.048C84.1107 27.9 84.5147 27.826 84.9627 27.826ZM84.9627 33.25C85.5627 33.25 86.0107 33.05 86.3067 32.65C86.6027 32.246 86.7507 31.684 86.7507 30.964C86.7507 30.24 86.6027 29.676 86.3067 29.272C86.0107 28.868 85.5627 28.666 84.9627 28.666C84.6587 28.666 84.3927 28.718 84.1647 28.822C83.9407 28.926 83.7527 29.076 83.6007 29.272C83.4527 29.468 83.3407 29.71 83.2647 29.998C83.1927 30.282 83.1567 30.604 83.1567 30.964C83.1567 31.684 83.3047 32.246 83.6007 32.65C83.9007 33.05 84.3547 33.25 84.9627 33.25ZM92.7493 28.924C92.7013 29.012 92.6273 29.056 92.5273 29.056C92.4673 29.056 92.3993 29.034 92.3233 28.99C92.2473 28.946 92.1533 28.898 92.0413 28.846C91.9333 28.79 91.8033 28.74 91.6513 28.696C91.4993 28.648 91.3193 28.624 91.1113 28.624C90.9313 28.624 90.7693 28.648 90.6253 28.696C90.4813 28.74 90.3573 28.802 90.2533 28.882C90.1533 28.962 90.0753 29.056 90.0193 29.164C89.9673 29.268 89.9413 29.382 89.9413 29.506C89.9413 29.662 89.9853 29.792 90.0733 29.896C90.1653 30 90.2853 30.09 90.4333 30.166C90.5813 30.242 90.7493 30.31 90.9373 30.37C91.1253 30.426 91.3173 30.488 91.5133 30.556C91.7133 30.62 91.9073 30.692 92.0953 30.772C92.2833 30.852 92.4513 30.952 92.5993 31.072C92.7473 31.192 92.8653 31.34 92.9533 31.516C93.0453 31.688 93.0913 31.896 93.0913 32.14C93.0913 32.42 93.0413 32.68 92.9413 32.92C92.8413 33.156 92.6933 33.362 92.4973 33.538C92.3013 33.71 92.0613 33.846 91.7773 33.946C91.4933 34.046 91.1653 34.096 90.7933 34.096C90.3693 34.096 89.9853 34.028 89.6413 33.892C89.2973 33.752 89.0053 33.574 88.7653 33.358L89.0173 32.95C89.0493 32.898 89.0873 32.858 89.1313 32.83C89.1753 32.802 89.2313 32.788 89.2993 32.788C89.3713 32.788 89.4473 32.816 89.5273 32.872C89.6073 32.928 89.7033 32.99 89.8153 33.058C89.9313 33.126 90.0713 33.188 90.2353 33.244C90.3993 33.3 90.6033 33.328 90.8473 33.328C91.0553 33.328 91.2373 33.302 91.3933 33.25C91.5493 33.194 91.6793 33.12 91.7833 33.028C91.8873 32.936 91.9633 32.83 92.0113 32.71C92.0633 32.59 92.0893 32.462 92.0893 32.326C92.0893 32.158 92.0433 32.02 91.9513 31.912C91.8633 31.8 91.7453 31.706 91.5973 31.63C91.4493 31.55 91.2793 31.482 91.0873 31.426C90.8993 31.366 90.7053 31.304 90.5053 31.24C90.3093 31.176 90.1153 31.104 89.9233 31.024C89.7353 30.94 89.5673 30.836 89.4193 30.712C89.2713 30.588 89.1513 30.436 89.0593 30.256C88.9713 30.072 88.9273 29.85 88.9273 29.59C88.9273 29.358 88.9753 29.136 89.0713 28.924C89.1673 28.708 89.3073 28.52 89.4913 28.36C89.6753 28.196 89.9013 28.066 90.1693 27.97C90.4373 27.874 90.7433 27.826 91.0873 27.826C91.4873 27.826 91.8453 27.89 92.1613 28.018C92.4813 28.142 92.7573 28.314 92.9893 28.534L92.7493 28.924ZM101.539 30.298C101.539 30.05 101.503 29.824 101.431 29.62C101.363 29.412 101.261 29.234 101.125 29.086C100.993 28.934 100.831 28.818 100.639 28.738C100.447 28.654 100.229 28.612 99.985 28.612C99.473 28.612 99.067 28.762 98.767 29.062C98.471 29.358 98.287 29.77 98.215 30.298H101.539ZM102.403 33.148C102.271 33.308 102.113 33.448 101.929 33.568C101.745 33.684 101.547 33.78 101.335 33.856C101.127 33.932 100.911 33.988 100.687 34.024C100.463 34.064 100.241 34.084 100.021 34.084C99.601 34.084 99.213 34.014 98.857 33.874C98.505 33.73 98.199 33.522 97.939 33.25C97.683 32.974 97.483 32.634 97.339 32.23C97.195 31.826 97.123 31.362 97.123 30.838C97.123 30.414 97.187 30.018 97.315 29.65C97.447 29.282 97.635 28.964 97.879 28.696C98.123 28.424 98.421 28.212 98.773 28.06C99.125 27.904 99.521 27.826 99.961 27.826C100.325 27.826 100.661 27.888 100.969 28.012C101.281 28.132 101.549 28.308 101.773 28.54C102.001 28.768 102.179 29.052 102.307 29.392C102.435 29.728 102.499 30.112 102.499 30.544C102.499 30.712 102.481 30.824 102.445 30.88C102.409 30.936 102.341 30.964 102.241 30.964H98.179C98.191 31.348 98.243 31.682 98.335 31.966C98.431 32.25 98.563 32.488 98.731 32.68C98.899 32.868 99.099 33.01 99.331 33.106C99.563 33.198 99.823 33.244 100.111 33.244C100.379 33.244 100.609 33.214 100.801 33.154C100.997 33.09 101.165 33.022 101.305 32.95C101.445 32.878 101.561 32.812 101.653 32.752C101.749 32.688 101.831 32.656 101.899 32.656C101.987 32.656 102.055 32.69 102.103 32.758L102.403 33.148ZM108.721 34H107.695C107.607 34 107.537 33.978 107.485 33.934C107.437 33.886 107.397 33.834 107.365 33.778L105.835 31.396C105.819 31.452 105.801 31.508 105.781 31.564C105.765 31.616 105.741 31.664 105.709 31.708L104.293 33.778C104.253 33.834 104.209 33.886 104.161 33.934C104.117 33.978 104.055 34 103.975 34H103.021L105.151 30.88L103.105 27.922H104.131C104.219 27.922 104.283 27.936 104.323 27.964C104.363 27.992 104.399 28.032 104.431 28.084L105.925 30.364C105.957 30.248 106.007 30.136 106.075 30.028L107.383 28.108C107.419 28.052 107.457 28.008 107.497 27.976C107.541 27.94 107.593 27.922 107.653 27.922H108.637L106.591 30.826L108.721 34ZM113.666 29.002C113.634 29.046 113.602 29.08 113.57 29.104C113.538 29.128 113.494 29.14 113.438 29.14C113.378 29.14 113.312 29.116 113.24 29.068C113.168 29.016 113.078 28.96 112.97 28.9C112.866 28.84 112.736 28.786 112.58 28.738C112.428 28.686 112.24 28.66 112.016 28.66C111.716 28.66 111.452 28.714 111.224 28.822C110.996 28.926 110.804 29.078 110.648 29.278C110.496 29.478 110.38 29.72 110.3 30.004C110.224 30.288 110.186 30.606 110.186 30.958C110.186 31.326 110.228 31.654 110.312 31.942C110.396 32.226 110.514 32.466 110.666 32.662C110.822 32.854 111.008 33.002 111.224 33.106C111.444 33.206 111.69 33.256 111.962 33.256C112.222 33.256 112.436 33.226 112.604 33.166C112.772 33.102 112.91 33.032 113.018 32.956C113.13 32.88 113.222 32.812 113.294 32.752C113.37 32.688 113.444 32.656 113.516 32.656C113.604 32.656 113.672 32.69 113.72 32.758L114.02 33.148C113.888 33.312 113.738 33.452 113.57 33.568C113.402 33.684 113.22 33.782 113.024 33.862C112.832 33.938 112.63 33.994 112.418 34.03C112.206 34.066 111.99 34.084 111.77 34.084C111.39 34.084 111.036 34.014 110.708 33.874C110.384 33.734 110.102 33.532 109.862 33.268C109.622 33 109.434 32.672 109.298 32.284C109.162 31.896 109.094 31.454 109.094 30.958C109.094 30.506 109.156 30.088 109.28 29.704C109.408 29.32 109.592 28.99 109.832 28.714C110.076 28.434 110.374 28.216 110.726 28.06C111.082 27.904 111.49 27.826 111.95 27.826C112.378 27.826 112.754 27.896 113.078 28.036C113.406 28.172 113.696 28.366 113.948 28.618L113.666 29.002ZM116.27 25.162V34H115.202V25.162H116.27ZM123 27.922V34H122.364C122.212 34 122.116 33.926 122.076 33.778L121.992 33.124C121.728 33.416 121.432 33.652 121.104 33.832C120.776 34.008 120.4 34.096 119.976 34.096C119.644 34.096 119.35 34.042 119.094 33.934C118.842 33.822 118.63 33.666 118.458 33.466C118.286 33.266 118.156 33.024 118.068 32.74C117.984 32.456 117.942 32.142 117.942 31.798V27.922H119.01V31.798C119.01 32.258 119.114 32.614 119.322 32.866C119.534 33.118 119.856 33.244 120.288 33.244C120.604 33.244 120.898 33.17 121.17 33.022C121.446 32.87 121.7 32.662 121.932 32.398V27.922H123ZM128.234 28.924C128.186 29.012 128.112 29.056 128.012 29.056C127.952 29.056 127.884 29.034 127.808 28.99C127.732 28.946 127.638 28.898 127.526 28.846C127.418 28.79 127.288 28.74 127.136 28.696C126.984 28.648 126.804 28.624 126.596 28.624C126.416 28.624 126.254 28.648 126.11 28.696C125.966 28.74 125.842 28.802 125.738 28.882C125.638 28.962 125.56 29.056 125.504 29.164C125.452 29.268 125.426 29.382 125.426 29.506C125.426 29.662 125.47 29.792 125.558 29.896C125.65 30 125.77 30.09 125.918 30.166C126.066 30.242 126.234 30.31 126.422 30.37C126.61 30.426 126.802 30.488 126.998 30.556C127.198 30.62 127.392 30.692 127.58 30.772C127.768 30.852 127.936 30.952 128.084 31.072C128.232 31.192 128.35 31.34 128.438 31.516C128.53 31.688 128.576 31.896 128.576 32.14C128.576 32.42 128.526 32.68 128.426 32.92C128.326 33.156 128.178 33.362 127.982 33.538C127.786 33.71 127.546 33.846 127.262 33.946C126.978 34.046 126.65 34.096 126.278 34.096C125.854 34.096 125.47 34.028 125.126 33.892C124.782 33.752 124.49 33.574 124.25 33.358L124.502 32.95C124.534 32.898 124.572 32.858 124.616 32.83C124.66 32.802 124.716 32.788 124.784 32.788C124.856 32.788 124.932 32.816 125.012 32.872C125.092 32.928 125.188 32.99 125.3 33.058C125.416 33.126 125.556 33.188 125.72 33.244C125.884 33.3 126.088 33.328 126.332 33.328C126.54 33.328 126.722 33.302 126.878 33.25C127.034 33.194 127.164 33.12 127.268 33.028C127.372 32.936 127.448 32.83 127.496 32.71C127.548 32.59 127.574 32.462 127.574 32.326C127.574 32.158 127.528 32.02 127.436 31.912C127.348 31.8 127.23 31.706 127.082 31.63C126.934 31.55 126.764 31.482 126.572 31.426C126.384 31.366 126.19 31.304 125.99 31.24C125.794 31.176 125.6 31.104 125.408 31.024C125.22 30.94 125.052 30.836 124.904 30.712C124.756 30.588 124.636 30.436 124.544 30.256C124.456 30.072 124.412 29.85 124.412 29.59C124.412 29.358 124.46 29.136 124.556 28.924C124.652 28.708 124.792 28.52 124.976 28.36C125.16 28.196 125.386 28.066 125.654 27.97C125.922 27.874 126.228 27.826 126.572 27.826C126.972 27.826 127.33 27.89 127.646 28.018C127.966 28.142 128.242 28.314 128.474 28.534L128.234 28.924ZM131.013 27.922V34H129.945V27.922H131.013ZM131.241 26.014C131.241 26.118 131.219 26.216 131.175 26.308C131.135 26.396 131.079 26.476 131.007 26.548C130.939 26.616 130.857 26.67 130.761 26.71C130.669 26.75 130.571 26.77 130.467 26.77C130.363 26.77 130.265 26.75 130.173 26.71C130.085 26.67 130.007 26.616 129.939 26.548C129.871 26.476 129.817 26.396 129.777 26.308C129.737 26.216 129.717 26.118 129.717 26.014C129.717 25.91 129.737 25.812 129.777 25.72C129.817 25.624 129.871 25.542 129.939 25.474C130.007 25.402 130.085 25.346 130.173 25.306C130.265 25.266 130.363 25.246 130.467 25.246C130.571 25.246 130.669 25.266 130.761 25.306C130.857 25.346 130.939 25.402 131.007 25.474C131.079 25.542 131.135 25.624 131.175 25.72C131.219 25.812 131.241 25.91 131.241 26.014ZM137.976 27.922L135.498 34H134.538L132.06 27.922H132.93C133.018 27.922 133.09 27.944 133.146 27.988C133.202 28.032 133.24 28.084 133.26 28.144L134.802 32.056C134.85 32.204 134.892 32.348 134.928 32.488C134.964 32.628 134.998 32.768 135.03 32.908C135.062 32.768 135.096 32.628 135.132 32.488C135.168 32.348 135.212 32.204 135.264 32.056L136.824 28.144C136.848 28.08 136.888 28.028 136.944 27.988C137 27.944 137.066 27.922 137.142 27.922H137.976ZM141.353 27.826C141.797 27.826 142.197 27.9 142.553 28.048C142.909 28.196 143.213 28.406 143.465 28.678C143.717 28.95 143.909 29.28 144.041 29.668C144.177 30.052 144.245 30.482 144.245 30.958C144.245 31.438 144.177 31.87 144.041 32.254C143.909 32.638 143.717 32.966 143.465 33.238C143.213 33.51 142.909 33.72 142.553 33.868C142.197 34.012 141.797 34.084 141.353 34.084C140.905 34.084 140.501 34.012 140.141 33.868C139.785 33.72 139.481 33.51 139.229 33.238C138.977 32.966 138.783 32.638 138.647 32.254C138.515 31.87 138.449 31.438 138.449 30.958C138.449 30.482 138.515 30.052 138.647 29.668C138.783 29.28 138.977 28.95 139.229 28.678C139.481 28.406 139.785 28.196 140.141 28.048C140.501 27.9 140.905 27.826 141.353 27.826ZM141.353 33.25C141.953 33.25 142.401 33.05 142.697 32.65C142.993 32.246 143.141 31.684 143.141 30.964C143.141 30.24 142.993 29.676 142.697 29.272C142.401 28.868 141.953 28.666 141.353 28.666C141.049 28.666 140.783 28.718 140.555 28.822C140.331 28.926 140.143 29.076 139.991 29.272C139.843 29.468 139.731 29.71 139.655 29.998C139.583 30.282 139.547 30.604 139.547 30.964C139.547 31.684 139.695 32.246 139.991 32.65C140.291 33.05 140.745 33.25 141.353 33.25ZM149.14 28.924C149.092 29.012 149.018 29.056 148.918 29.056C148.858 29.056 148.79 29.034 148.714 28.99C148.638 28.946 148.544 28.898 148.432 28.846C148.324 28.79 148.194 28.74 148.042 28.696C147.89 28.648 147.71 28.624 147.502 28.624C147.322 28.624 147.16 28.648 147.016 28.696C146.872 28.74 146.748 28.802 146.644 28.882C146.544 28.962 146.466 29.056 146.41 29.164C146.358 29.268 146.332 29.382 146.332 29.506C146.332 29.662 146.376 29.792 146.464 29.896C146.556 30 146.676 30.09 146.824 30.166C146.972 30.242 147.14 30.31 147.328 30.37C147.516 30.426 147.708 30.488 147.904 30.556C148.104 30.62 148.298 30.692 148.486 30.772C148.674 30.852 148.842 30.952 148.99 31.072C149.138 31.192 149.256 31.34 149.344 31.516C149.436 31.688 149.482 31.896 149.482 32.14C149.482 32.42 149.432 32.68 149.332 32.92C149.232 33.156 149.084 33.362 148.888 33.538C148.692 33.71 148.452 33.846 148.168 33.946C147.884 34.046 147.556 34.096 147.184 34.096C146.76 34.096 146.376 34.028 146.032 33.892C145.688 33.752 145.396 33.574 145.156 33.358L145.408 32.95C145.44 32.898 145.478 32.858 145.522 32.83C145.566 32.802 145.622 32.788 145.69 32.788C145.762 32.788 145.838 32.816 145.918 32.872C145.998 32.928 146.094 32.99 146.206 33.058C146.322 33.126 146.462 33.188 146.626 33.244C146.79 33.3 146.994 33.328 147.238 33.328C147.446 33.328 147.628 33.302 147.784 33.25C147.94 33.194 148.07 33.12 148.174 33.028C148.278 32.936 148.354 32.83 148.402 32.71C148.454 32.59 148.48 32.462 148.48 32.326C148.48 32.158 148.434 32.02 148.342 31.912C148.254 31.8 148.136 31.706 147.988 31.63C147.84 31.55 147.67 31.482 147.478 31.426C147.29 31.366 147.096 31.304 146.896 31.24C146.7 31.176 146.506 31.104 146.314 31.024C146.126 30.94 145.958 30.836 145.81 30.712C145.662 30.588 145.542 30.436 145.45 30.256C145.362 30.072 145.318 29.85 145.318 29.59C145.318 29.358 145.366 29.136 145.462 28.924C145.558 28.708 145.698 28.52 145.882 28.36C146.066 28.196 146.292 28.066 146.56 27.97C146.828 27.874 147.134 27.826 147.478 27.826C147.878 27.826 148.236 27.89 148.552 28.018C148.872 28.142 149.148 28.314 149.38 28.534L149.14 28.924Z" fill="#444444"/>
</svg>
