<svg width="261" height="40" viewBox="0 0 261 40" fill="none" xmlns="http://www.w3.org/2000/svg">
<path d="M25.3338 20V30.8333H8.00049V20" stroke="#ED1B2F" stroke-width="2.31416" stroke-linecap="round" stroke-linejoin="round"/>
<path d="M27.4997 14.584H5.83301V20.0007H27.4997V14.584Z" stroke="#ED1B2F" stroke-width="2.31416" stroke-linecap="round" stroke-linejoin="round"/>
<path d="M16.6667 30.834V14.584" stroke="#ED1B2F" stroke-width="2.31416" stroke-linecap="round" stroke-linejoin="round"/>
<path d="M16.6663 14.5827H11.7913C11.073 14.5827 10.3842 14.2973 9.87626 13.7894C9.36835 13.2815 9.08301 12.5926 9.08301 11.8743C9.08301 11.1561 9.36835 10.4672 9.87626 9.95927C10.3842 9.45136 11.073 9.16602 11.7913 9.16602C15.583 9.16602 16.6663 14.5827 16.6663 14.5827Z" stroke="#ED1B2F" stroke-width="2.31416" stroke-linecap="round" stroke-linejoin="round"/>
<path d="M16.6667 14.5827H21.5417C22.26 14.5827 22.9489 14.2973 23.4568 13.7894C23.9647 13.2815 24.2501 12.5926 24.2501 11.8743C24.2501 11.1561 23.9647 10.4672 23.4568 9.95927C22.9489 9.45136 22.26 9.16602 21.5417 9.16602C17.7501 9.16602 16.6667 14.5827 16.6667 14.5827Z" stroke="#ED1B2F" stroke-width="2.31416" stroke-linecap="round" stroke-linejoin="round"/>
<path d="M47.7227 13.7756V15.3296H41.7937V5.20759H43.6767V13.7756H47.7227ZM50.5862 8.14759V15.3296H48.8502V8.14759H50.5862ZM50.8242 6.05459C50.8242 6.20392 50.7939 6.34392 50.7332 6.47459C50.6725 6.60526 50.5909 6.71959 50.4882 6.81759C50.3902 6.91559 50.2735 6.99492 50.1382 7.05559C50.0029 7.11159 49.8582 7.13959 49.7042 7.13959C49.5549 7.13959 49.4125 7.11159 49.2772 7.05559C49.1465 6.99492 49.0322 6.91559 48.9342 6.81759C48.8362 6.71959 48.7569 6.60526 48.6962 6.47459C48.6402 6.34392 48.6122 6.20392 48.6122 6.05459C48.6122 5.90059 48.6402 5.75592 48.6962 5.62059C48.7569 5.48526 48.8362 5.36859 48.9342 5.27059C49.0322 5.17259 49.1465 5.09559 49.2772 5.03959C49.4125 4.97892 49.5549 4.94859 49.7042 4.94859C49.8582 4.94859 50.0029 4.97892 50.1382 5.03959C50.2735 5.09559 50.3902 5.17259 50.4882 5.27059C50.5909 5.36859 50.6725 5.48526 50.7332 5.62059C50.7939 5.75592 50.8242 5.90059 50.8242 6.05459ZM56.7309 9.54759C56.6842 9.62226 56.6352 9.67592 56.5839 9.70859C56.5325 9.73659 56.4672 9.75059 56.3879 9.75059C56.3039 9.75059 56.2129 9.72726 56.1149 9.68059C56.0215 9.63392 55.9119 9.58259 55.7859 9.52659C55.6599 9.46592 55.5152 9.41226 55.3519 9.36559C55.1932 9.31892 55.0042 9.29559 54.7849 9.29559C54.4442 9.29559 54.1759 9.36792 53.9799 9.51259C53.7885 9.65726 53.6929 9.84626 53.6929 10.0796C53.6929 10.2336 53.7419 10.3643 53.8399 10.4716C53.9425 10.5743 54.0755 10.6653 54.2389 10.7446C54.4069 10.8239 54.5959 10.8963 54.8059 10.9616C55.0159 11.0223 55.2282 11.0899 55.4429 11.1646C55.6622 11.2393 55.8769 11.3256 56.0869 11.4236C56.2969 11.5169 56.4835 11.6383 56.6469 11.7876C56.8149 11.9323 56.9479 12.1073 57.0459 12.3126C57.1485 12.5179 57.1999 12.7653 57.1999 13.0546C57.1999 13.3999 57.1369 13.7196 57.0109 14.0136C56.8895 14.3029 56.7075 14.5549 56.4649 14.7696C56.2222 14.9796 55.9212 15.1453 55.5619 15.2666C55.2072 15.3833 54.7965 15.4416 54.3299 15.4416C54.0825 15.4416 53.8399 15.4183 53.6019 15.3716C53.3685 15.3296 53.1422 15.2689 52.9229 15.1896C52.7082 15.1103 52.5075 15.0169 52.3209 14.9096C52.1389 14.8023 51.9779 14.6856 51.8379 14.5596L52.2369 13.9016C52.2882 13.8223 52.3489 13.7616 52.4189 13.7196C52.4889 13.6776 52.5775 13.6566 52.6849 13.6566C52.7922 13.6566 52.8925 13.6869 52.9859 13.7476C53.0839 13.8083 53.1959 13.8736 53.3219 13.9436C53.4479 14.0136 53.5949 14.0789 53.7629 14.1396C53.9355 14.2003 54.1525 14.2306 54.4139 14.2306C54.6192 14.2306 54.7942 14.2073 54.9389 14.1606C55.0882 14.1093 55.2095 14.0439 55.3029 13.9646C55.4009 13.8853 55.4709 13.7943 55.5129 13.6916C55.5595 13.5843 55.5829 13.4746 55.5829 13.3626C55.5829 13.1946 55.5315 13.0569 55.4289 12.9496C55.3309 12.8423 55.1979 12.7489 55.0299 12.6696C54.8665 12.5903 54.6775 12.5203 54.4629 12.4596C54.2529 12.3943 54.0359 12.3243 53.8119 12.2496C53.5925 12.1749 53.3755 12.0886 53.1609 11.9906C52.9509 11.8879 52.7619 11.7596 52.5939 11.6056C52.4305 11.4516 52.2975 11.2626 52.1949 11.0386C52.0969 10.8146 52.0479 10.5439 52.0479 10.2266C52.0479 9.93259 52.1062 9.65259 52.2229 9.38659C52.3395 9.12059 52.5099 8.88959 52.7339 8.69359C52.9625 8.49292 53.2449 8.33426 53.5809 8.21759C53.9215 8.09626 54.3135 8.03559 54.7569 8.03559C55.2515 8.03559 55.7019 8.11726 56.1079 8.28059C56.5139 8.44392 56.8522 8.65859 57.1229 8.92459L56.7309 9.54759ZM60.8952 15.4416C60.2699 15.4416 59.7892 15.2666 59.4532 14.9166C59.1219 14.5619 58.9562 14.0743 58.9562 13.4536V9.44259H58.2212C58.1279 9.44259 58.0486 9.41226 57.9832 9.35159C57.9179 9.29092 57.8852 9.19992 57.8852 9.07859V8.39259L59.0402 8.20359L59.4042 6.24359C59.4276 6.15026 59.4719 6.07792 59.5372 6.02659C59.6026 5.97526 59.6866 5.94959 59.7892 5.94959H60.6852V8.21059H62.6032V9.44259H60.6852V13.3346C60.6852 13.5586 60.7389 13.7336 60.8462 13.8596C60.9582 13.9856 61.1099 14.0486 61.3012 14.0486C61.4086 14.0486 61.4972 14.0369 61.5672 14.0136C61.6419 13.9856 61.7049 13.9576 61.7562 13.9296C61.8122 13.9016 61.8612 13.8759 61.9032 13.8526C61.9452 13.8246 61.9872 13.8106 62.0292 13.8106C62.0806 13.8106 62.1226 13.8246 62.1552 13.8526C62.1879 13.8759 62.2229 13.9133 62.2602 13.9646L62.7782 14.8046C62.5262 15.0146 62.2369 15.1733 61.9102 15.2806C61.5836 15.3879 61.2452 15.4416 60.8952 15.4416ZM67.5042 12.2636C67.0049 12.2869 66.5849 12.3313 66.2442 12.3966C65.9035 12.4573 65.6305 12.5366 65.4252 12.6346C65.2199 12.7326 65.0729 12.8469 64.9842 12.9776C64.8955 13.1083 64.8512 13.2506 64.8512 13.4046C64.8512 13.7079 64.9399 13.9249 65.1172 14.0556C65.2992 14.1863 65.5349 14.2516 65.8242 14.2516C66.1789 14.2516 66.4845 14.1886 66.7412 14.0626C67.0025 13.9319 67.2569 13.7359 67.5042 13.4746V12.2636ZM63.5422 9.14859C64.3682 8.39259 65.3622 8.01459 66.5242 8.01459C66.9442 8.01459 67.3199 8.08459 67.6512 8.22459C67.9825 8.35992 68.2625 8.55126 68.4912 8.79859C68.7199 9.04126 68.8925 9.33292 69.0092 9.67359C69.1305 10.0143 69.1912 10.3876 69.1912 10.7936V15.3296H68.4072C68.2439 15.3296 68.1179 15.3063 68.0292 15.2596C67.9405 15.2083 67.8705 15.1079 67.8192 14.9586L67.6652 14.4406C67.4832 14.6039 67.3059 14.7486 67.1332 14.8746C66.9605 14.9959 66.7809 15.0986 66.5942 15.1826C66.4075 15.2666 66.2069 15.3296 65.9922 15.3716C65.7822 15.4183 65.5489 15.4416 65.2922 15.4416C64.9889 15.4416 64.7089 15.4019 64.4522 15.3226C64.1955 15.2386 63.9739 15.1149 63.7872 14.9516C63.6005 14.7883 63.4559 14.5853 63.3532 14.3426C63.2505 14.0999 63.1992 13.8176 63.1992 13.4956C63.1992 13.3136 63.2295 13.1339 63.2902 12.9566C63.3509 12.7746 63.4489 12.6019 63.5842 12.4386C63.7242 12.2753 63.9039 12.1213 64.1232 11.9766C64.3425 11.8319 64.6109 11.7059 64.9282 11.5986C65.2502 11.4913 65.6235 11.4049 66.0482 11.3396C66.4729 11.2696 66.9582 11.2276 67.5042 11.2136V10.7936C67.5042 10.3129 67.4015 9.95826 67.1962 9.72959C66.9909 9.49626 66.6945 9.37959 66.3072 9.37959C66.0272 9.37959 65.7939 9.41226 65.6072 9.47759C65.4252 9.54292 65.2642 9.61759 65.1242 9.70159C64.9842 9.78092 64.8559 9.85326 64.7392 9.91859C64.6272 9.98392 64.5012 10.0166 64.3612 10.0166C64.2399 10.0166 64.1372 9.98626 64.0532 9.92559C63.9692 9.86026 63.9015 9.78559 63.8502 9.70159L63.5422 9.14859ZM78.7319 9.98159C78.5359 9.74359 78.3212 9.57559 78.0879 9.47759C77.8592 9.37959 77.6119 9.33059 77.3459 9.33059C77.0845 9.33059 76.8489 9.37959 76.6389 9.47759C76.4289 9.57559 76.2492 9.72492 76.0999 9.92559C75.9505 10.1216 75.8362 10.3736 75.7569 10.6816C75.6775 10.9849 75.6379 11.3443 75.6379 11.7596C75.6379 12.1796 75.6705 12.5366 75.7359 12.8306C75.8059 13.1199 75.9039 13.3579 76.0299 13.5446C76.1559 13.7266 76.3099 13.8596 76.4919 13.9436C76.6739 14.0229 76.8769 14.0626 77.1009 14.0626C77.4602 14.0626 77.7659 13.9879 78.0179 13.8386C78.2699 13.6893 78.5079 13.4769 78.7319 13.2016V9.98159ZM80.4609 4.92759V15.3296H79.4039C79.1752 15.3296 79.0305 15.2246 78.9699 15.0146L78.8229 14.3216C78.5335 14.6529 78.1999 14.9213 77.8219 15.1266C77.4485 15.3319 77.0122 15.4346 76.5129 15.4346C76.1209 15.4346 75.7615 15.3529 75.4349 15.1896C75.1082 15.0263 74.8259 14.7906 74.5879 14.4826C74.3545 14.1699 74.1725 13.7849 74.0419 13.3276C73.9159 12.8703 73.8529 12.3476 73.8529 11.7596C73.8529 11.2276 73.9252 10.7329 74.0699 10.2756C74.2145 9.81826 74.4222 9.42159 74.6929 9.08559C74.9635 8.74959 75.2879 8.48826 75.6659 8.30159C76.0439 8.11026 76.4685 8.01459 76.9399 8.01459C77.3412 8.01459 77.6842 8.07759 77.9689 8.20359C78.2535 8.32959 78.5079 8.49992 78.7319 8.71459V4.92759H80.4609ZM86.7942 10.9126C86.7942 10.6886 86.7616 10.4786 86.6962 10.2826C86.6356 10.0819 86.5422 9.90692 86.4162 9.75759C86.2902 9.60826 86.1292 9.49159 85.9332 9.40759C85.7419 9.31892 85.5179 9.27459 85.2612 9.27459C84.7619 9.27459 84.3676 9.41692 84.0782 9.70159C83.7936 9.98626 83.6116 10.3899 83.5322 10.9126H86.7942ZM83.4972 11.9556C83.5252 12.3243 83.5906 12.6439 83.6932 12.9146C83.7959 13.1806 83.9312 13.4023 84.0992 13.5796C84.2672 13.7523 84.4656 13.8829 84.6942 13.9716C84.9276 14.0556 85.1842 14.0976 85.4642 14.0976C85.7442 14.0976 85.9846 14.0649 86.1852 13.9996C86.3906 13.9343 86.5679 13.8619 86.7172 13.7826C86.8712 13.7033 87.0042 13.6309 87.1162 13.5656C87.2329 13.5003 87.3449 13.4676 87.4522 13.4676C87.5969 13.4676 87.7042 13.5213 87.7742 13.6286L88.2712 14.2586C88.0799 14.4826 87.8652 14.6716 87.6272 14.8256C87.3892 14.9749 87.1396 15.0963 86.8782 15.1896C86.6216 15.2783 86.3579 15.3413 86.0872 15.3786C85.8212 15.4159 85.5622 15.4346 85.3102 15.4346C84.8109 15.4346 84.3466 15.3529 83.9172 15.1896C83.4879 15.0216 83.1146 14.7766 82.7972 14.4546C82.4799 14.1279 82.2302 13.7266 82.0482 13.2506C81.8662 12.7699 81.7752 12.2146 81.7752 11.5846C81.7752 11.0946 81.8546 10.6349 82.0132 10.2056C82.1719 9.77159 82.3982 9.39592 82.6922 9.07859C82.9909 8.75659 83.3526 8.50226 83.7772 8.31559C84.2066 8.12892 84.6896 8.03559 85.2262 8.03559C85.6789 8.03559 86.0966 8.10792 86.4792 8.25259C86.8619 8.39726 87.1909 8.60959 87.4662 8.88959C87.7416 9.16492 87.9562 9.50559 88.1102 9.91159C88.2689 10.3129 88.3482 10.7726 88.3482 11.2906C88.3482 11.5519 88.3202 11.7293 88.2642 11.8226C88.2082 11.9113 88.1009 11.9556 87.9422 11.9556H83.4972ZM94.779 13.4676C94.975 13.7056 95.1874 13.8736 95.416 13.9716C95.6494 14.0696 95.9014 14.1186 96.172 14.1186C96.4334 14.1186 96.669 14.0696 96.879 13.9716C97.089 13.8736 97.2664 13.7243 97.411 13.5236C97.5604 13.3229 97.6747 13.0709 97.754 12.7676C97.8334 12.4596 97.873 12.0979 97.873 11.6826C97.873 11.2626 97.838 10.9079 97.768 10.6186C97.7027 10.3246 97.607 10.0866 97.481 9.90459C97.355 9.72259 97.201 9.58959 97.019 9.50559C96.8417 9.42159 96.6387 9.37959 96.41 9.37959C96.0507 9.37959 95.745 9.45659 95.493 9.61059C95.241 9.75992 95.003 9.97226 94.779 10.2476V13.4676ZM94.688 9.12759C94.982 8.79626 95.3157 8.52792 95.689 8.32259C96.0624 8.11726 96.501 8.01459 97.005 8.01459C97.397 8.01459 97.754 8.09626 98.076 8.25959C98.4027 8.42292 98.6827 8.66092 98.916 8.97359C99.154 9.28159 99.336 9.66426 99.462 10.1216C99.5927 10.5743 99.658 11.0946 99.658 11.6826C99.658 12.2193 99.5857 12.7163 99.441 13.1736C99.2964 13.6309 99.0887 14.0276 98.818 14.3636C98.552 14.6996 98.2277 14.9633 97.845 15.1546C97.467 15.3413 97.0424 15.4346 96.571 15.4346C96.1697 15.4346 95.8267 15.3739 95.542 15.2526C95.2574 15.1266 95.003 14.9539 94.779 14.7346V17.6746H93.05V8.14759H94.107C94.331 8.14759 94.478 8.25259 94.548 8.46259L94.688 9.12759ZM102.638 9.39359C102.862 8.96426 103.128 8.62826 103.436 8.38559C103.744 8.13826 104.108 8.01459 104.528 8.01459C104.859 8.01459 105.125 8.08692 105.326 8.23159L105.214 9.52659C105.191 9.61059 105.156 9.67126 105.109 9.70859C105.067 9.74126 105.009 9.75759 104.934 9.75759C104.864 9.75759 104.759 9.74592 104.619 9.72259C104.484 9.69926 104.351 9.68759 104.22 9.68759C104.029 9.68759 103.858 9.71559 103.709 9.77159C103.56 9.82759 103.424 9.90926 103.303 10.0166C103.186 10.1193 103.081 10.2453 102.988 10.3946C102.899 10.5439 102.815 10.7143 102.736 10.9056V15.3296H101.007V8.14759H102.022C102.199 8.14759 102.323 8.18026 102.393 8.24559C102.463 8.30626 102.51 8.41826 102.533 8.58159L102.638 9.39359ZM110.652 10.9126C110.652 10.6886 110.619 10.4786 110.554 10.2826C110.493 10.0819 110.4 9.90692 110.274 9.75759C110.148 9.60826 109.987 9.49159 109.791 9.40759C109.599 9.31892 109.375 9.27459 109.119 9.27459C108.619 9.27459 108.225 9.41692 107.936 9.70159C107.651 9.98626 107.469 10.3899 107.39 10.9126H110.652ZM107.355 11.9556C107.383 12.3243 107.448 12.6439 107.551 12.9146C107.653 13.1806 107.789 13.4023 107.957 13.5796C108.125 13.7523 108.323 13.8829 108.552 13.9716C108.785 14.0556 109.042 14.0976 109.322 14.0976C109.602 14.0976 109.842 14.0649 110.043 13.9996C110.248 13.9343 110.425 13.8619 110.575 13.7826C110.729 13.7033 110.862 13.6309 110.974 13.5656C111.09 13.5003 111.202 13.4676 111.31 13.4676C111.454 13.4676 111.562 13.5213 111.632 13.6286L112.129 14.2586C111.937 14.4826 111.723 14.6716 111.485 14.8256C111.247 14.9749 110.997 15.0963 110.736 15.1896C110.479 15.2783 110.215 15.3413 109.945 15.3786C109.679 15.4159 109.42 15.4346 109.168 15.4346C108.668 15.4346 108.204 15.3529 107.775 15.1896C107.345 15.0216 106.972 14.7766 106.655 14.4546C106.337 14.1279 106.088 13.7266 105.906 13.2506C105.724 12.7699 105.633 12.2146 105.633 11.5846C105.633 11.0946 105.712 10.6349 105.871 10.2056C106.029 9.77159 106.256 9.39592 106.55 9.07859C106.848 8.75659 107.21 8.50226 107.635 8.31559C108.064 8.12892 108.547 8.03559 109.084 8.03559C109.536 8.03559 109.954 8.10792 110.337 8.25259C110.719 8.39726 111.048 8.60959 111.324 8.88959C111.599 9.16492 111.814 9.50559 111.968 9.91159C112.126 10.3129 112.206 10.7726 112.206 11.2906C112.206 11.5519 112.178 11.7293 112.122 11.8226C112.066 11.9113 111.958 11.9556 111.8 11.9556H107.355ZM117.885 9.54759C117.839 9.62226 117.79 9.67592 117.738 9.70859C117.687 9.73659 117.622 9.75059 117.542 9.75059C117.458 9.75059 117.367 9.72726 117.269 9.68059C117.176 9.63392 117.066 9.58259 116.94 9.52659C116.814 9.46592 116.67 9.41226 116.506 9.36559C116.348 9.31892 116.159 9.29559 115.939 9.29559C115.599 9.29559 115.33 9.36792 115.134 9.51259C114.943 9.65726 114.847 9.84626 114.847 10.0796C114.847 10.2336 114.896 10.3643 114.994 10.4716C115.097 10.5743 115.23 10.6653 115.393 10.7446C115.561 10.8239 115.75 10.8963 115.96 10.9616C116.17 11.0223 116.383 11.0899 116.597 11.1646C116.817 11.2393 117.031 11.3256 117.241 11.4236C117.451 11.5169 117.638 11.6383 117.801 11.7876C117.969 11.9323 118.102 12.1073 118.2 12.3126C118.303 12.5179 118.354 12.7653 118.354 13.0546C118.354 13.3999 118.291 13.7196 118.165 14.0136C118.044 14.3029 117.862 14.5549 117.619 14.7696C117.377 14.9796 117.076 15.1453 116.716 15.2666C116.362 15.3833 115.951 15.4416 115.484 15.4416C115.237 15.4416 114.994 15.4183 114.756 15.3716C114.523 15.3296 114.297 15.2689 114.077 15.1896C113.863 15.1103 113.662 15.0169 113.475 14.9096C113.293 14.8023 113.132 14.6856 112.992 14.5596L113.391 13.9016C113.443 13.8223 113.503 13.7616 113.573 13.7196C113.643 13.6776 113.732 13.6566 113.839 13.6566C113.947 13.6566 114.047 13.6869 114.14 13.7476C114.238 13.8083 114.35 13.8736 114.476 13.9436C114.602 14.0136 114.749 14.0789 114.917 14.1396C115.09 14.2003 115.307 14.2306 115.568 14.2306C115.774 14.2306 115.949 14.2073 116.093 14.1606C116.243 14.1093 116.364 14.0439 116.457 13.9646C116.555 13.8853 116.625 13.7943 116.667 13.6916C116.714 13.5843 116.737 13.4746 116.737 13.3626C116.737 13.1946 116.686 13.0569 116.583 12.9496C116.485 12.8423 116.352 12.7489 116.184 12.6696C116.021 12.5903 115.832 12.5203 115.617 12.4596C115.407 12.3943 115.19 12.3243 114.966 12.2496C114.747 12.1749 114.53 12.0886 114.315 11.9906C114.105 11.8879 113.916 11.7596 113.748 11.6056C113.585 11.4516 113.452 11.2626 113.349 11.0386C113.251 10.8146 113.202 10.5439 113.202 10.2266C113.202 9.93259 113.261 9.65259 113.377 9.38659C113.494 9.12059 113.664 8.88959 113.888 8.69359C114.117 8.49292 114.399 8.33426 114.735 8.21759C115.076 8.09626 115.468 8.03559 115.911 8.03559C116.406 8.03559 116.856 8.11726 117.262 8.28059C117.668 8.44392 118.007 8.65859 118.277 8.92459L117.885 9.54759ZM124.283 10.9126C124.283 10.6886 124.25 10.4786 124.185 10.2826C124.124 10.0819 124.031 9.90692 123.905 9.75759C123.779 9.60826 123.618 9.49159 123.422 9.40759C123.23 9.31892 123.006 9.27459 122.75 9.27459C122.25 9.27459 121.856 9.41692 121.567 9.70159C121.282 9.98626 121.1 10.3899 121.021 10.9126H124.283ZM120.986 11.9556C121.014 12.3243 121.079 12.6439 121.182 12.9146C121.284 13.1806 121.42 13.4023 121.588 13.5796C121.756 13.7523 121.954 13.8829 122.183 13.9716C122.416 14.0556 122.673 14.0976 122.953 14.0976C123.233 14.0976 123.473 14.0649 123.674 13.9996C123.879 13.9343 124.056 13.8619 124.206 13.7826C124.36 13.7033 124.493 13.6309 124.605 13.5656C124.721 13.5003 124.833 13.4676 124.941 13.4676C125.085 13.4676 125.193 13.5213 125.263 13.6286L125.76 14.2586C125.568 14.4826 125.354 14.6716 125.116 14.8256C124.878 14.9749 124.628 15.0963 124.367 15.1896C124.11 15.2783 123.846 15.3413 123.576 15.3786C123.31 15.4159 123.051 15.4346 122.799 15.4346C122.299 15.4346 121.835 15.3529 121.406 15.1896C120.976 15.0216 120.603 14.7766 120.286 14.4546C119.968 14.1279 119.719 13.7266 119.537 13.2506C119.355 12.7699 119.264 12.2146 119.264 11.5846C119.264 11.0946 119.343 10.6349 119.502 10.2056C119.66 9.77159 119.887 9.39592 120.181 9.07859C120.479 8.75659 120.841 8.50226 121.266 8.31559C121.695 8.12892 122.178 8.03559 122.715 8.03559C123.167 8.03559 123.585 8.10792 123.968 8.25259C124.35 8.39726 124.679 8.60959 124.955 8.88959C125.23 9.16492 125.445 9.50559 125.599 9.91159C125.757 10.3129 125.837 10.7726 125.837 11.2906C125.837 11.5519 125.809 11.7293 125.753 11.8226C125.697 11.9113 125.589 11.9556 125.431 11.9556H120.986ZM128.751 9.02959C128.896 8.88492 129.047 8.75192 129.206 8.63059C129.369 8.50459 129.54 8.39959 129.717 8.31559C129.899 8.22692 130.093 8.15926 130.298 8.11259C130.503 8.06126 130.727 8.03559 130.97 8.03559C131.362 8.03559 131.71 8.10326 132.013 8.23859C132.316 8.36926 132.568 8.55592 132.769 8.79859C132.974 9.03659 133.128 9.32359 133.231 9.65959C133.338 9.99092 133.392 10.3573 133.392 10.7586V15.3296H131.663V10.7586C131.663 10.3199 131.563 9.98159 131.362 9.74359C131.161 9.50092 130.856 9.37959 130.445 9.37959C130.146 9.37959 129.866 9.44726 129.605 9.58259C129.344 9.71792 129.096 9.90226 128.863 10.1356V15.3296H127.134V8.14759H128.191C128.415 8.14759 128.562 8.25259 128.632 8.46259L128.751 9.02959ZM137.335 15.4416C136.709 15.4416 136.229 15.2666 135.893 14.9166C135.561 14.5619 135.396 14.0743 135.396 13.4536V9.44259H134.661C134.567 9.44259 134.488 9.41226 134.423 9.35159C134.357 9.29092 134.325 9.19992 134.325 9.07859V8.39259L135.48 8.20359L135.844 6.24359C135.867 6.15026 135.911 6.07792 135.977 6.02659C136.042 5.97526 136.126 5.94959 136.229 5.94959H137.125V8.21059H139.043V9.44259H137.125V13.3346C137.125 13.5586 137.178 13.7336 137.286 13.8596C137.398 13.9856 137.549 14.0486 137.741 14.0486C137.848 14.0486 137.937 14.0369 138.007 14.0136C138.081 13.9856 138.144 13.9576 138.196 13.9296C138.252 13.9016 138.301 13.8759 138.343 13.8526C138.385 13.8246 138.427 13.8106 138.469 13.8106C138.52 13.8106 138.562 13.8246 138.595 13.8526C138.627 13.8759 138.662 13.9133 138.7 13.9646L139.218 14.8046C138.966 15.0146 138.676 15.1733 138.35 15.2806C138.023 15.3879 137.685 15.4416 137.335 15.4416ZM144.722 10.9126C144.722 10.6886 144.689 10.4786 144.624 10.2826C144.563 10.0819 144.47 9.90692 144.344 9.75759C144.218 9.60826 144.057 9.49159 143.861 9.40759C143.67 9.31892 143.446 9.27459 143.189 9.27459C142.69 9.27459 142.295 9.41692 142.006 9.70159C141.721 9.98626 141.539 10.3899 141.46 10.9126H144.722ZM141.425 11.9556C141.453 12.3243 141.518 12.6439 141.621 12.9146C141.724 13.1806 141.859 13.4023 142.027 13.5796C142.195 13.7523 142.393 13.8829 142.622 13.9716C142.855 14.0556 143.112 14.0976 143.392 14.0976C143.672 14.0976 143.912 14.0649 144.113 13.9996C144.318 13.9343 144.496 13.8619 144.645 13.7826C144.799 13.7033 144.932 13.6309 145.044 13.5656C145.161 13.5003 145.273 13.4676 145.38 13.4676C145.525 13.4676 145.632 13.5213 145.702 13.6286L146.199 14.2586C146.008 14.4826 145.793 14.6716 145.555 14.8256C145.317 14.9749 145.067 15.0963 144.806 15.1896C144.549 15.2783 144.286 15.3413 144.015 15.3786C143.749 15.4159 143.49 15.4346 143.238 15.4346C142.739 15.4346 142.274 15.3529 141.845 15.1896C141.416 15.0216 141.042 14.7766 140.725 14.4546C140.408 14.1279 140.158 13.7266 139.976 13.2506C139.794 12.7699 139.703 12.2146 139.703 11.5846C139.703 11.0946 139.782 10.6349 139.941 10.2056C140.1 9.77159 140.326 9.39592 140.62 9.07859C140.919 8.75659 141.28 8.50226 141.705 8.31559C142.134 8.12892 142.617 8.03559 143.154 8.03559C143.607 8.03559 144.024 8.10792 144.407 8.25259C144.79 8.39726 145.119 8.60959 145.394 8.88959C145.669 9.16492 145.884 9.50559 146.038 9.91159C146.197 10.3129 146.276 10.7726 146.276 11.2906C146.276 11.5519 146.248 11.7293 146.192 11.8226C146.136 11.9113 146.029 11.9556 145.87 11.9556H141.425ZM45.7427 27.3316C45.7107 27.3756 45.6787 27.4096 45.6467 27.4336C45.6147 27.4576 45.5707 27.4696 45.5147 27.4696C45.4547 27.4696 45.3887 27.4456 45.3167 27.3976C45.2447 27.3456 45.1547 27.2896 45.0467 27.2296C44.9427 27.1696 44.8127 27.1156 44.6567 27.0676C44.5047 27.0156 44.3167 26.9896 44.0927 26.9896C43.7927 26.9896 43.5287 27.0436 43.3007 27.1516C43.0727 27.2556 42.8807 27.4076 42.7247 27.6076C42.5727 27.8076 42.4567 28.0496 42.3767 28.3336C42.3007 28.6176 42.2627 28.9356 42.2627 29.2876C42.2627 29.6556 42.3047 29.9836 42.3887 30.2716C42.4727 30.5556 42.5907 30.7956 42.7427 30.9916C42.8987 31.1836 43.0847 31.3316 43.3007 31.4356C43.5207 31.5356 43.7667 31.5856 44.0387 31.5856C44.2987 31.5856 44.5127 31.5556 44.6807 31.4956C44.8487 31.4316 44.9867 31.3616 45.0947 31.2856C45.2067 31.2096 45.2987 31.1416 45.3707 31.0816C45.4467 31.0176 45.5207 30.9856 45.5927 30.9856C45.6807 30.9856 45.7487 31.0196 45.7967 31.0876L46.0967 31.4776C45.9647 31.6416 45.8147 31.7816 45.6467 31.8976C45.4787 32.0136 45.2967 32.1116 45.1007 32.1916C44.9087 32.2676 44.7067 32.3236 44.4947 32.3596C44.2827 32.3956 44.0667 32.4136 43.8467 32.4136C43.4667 32.4136 43.1127 32.3436 42.7847 32.2036C42.4607 32.0636 42.1787 31.8616 41.9387 31.5976C41.6987 31.3296 41.5107 31.0016 41.3747 30.6136C41.2387 30.2256 41.1707 29.7836 41.1707 29.2876C41.1707 28.8356 41.2327 28.4176 41.3567 28.0336C41.4847 27.6496 41.6687 27.3196 41.9087 27.0436C42.1527 26.7636 42.4507 26.5456 42.8027 26.3896C43.1587 26.2336 43.5667 26.1556 44.0267 26.1556C44.4547 26.1556 44.8307 26.2256 45.1547 26.3656C45.4827 26.5016 45.7727 26.6956 46.0247 26.9476L45.7427 27.3316ZM48.2572 27.4696C48.4492 27.0536 48.6852 26.7296 48.9652 26.4976C49.2452 26.2616 49.5872 26.1436 49.9912 26.1436C50.1192 26.1436 50.2412 26.1576 50.3572 26.1856C50.4772 26.2136 50.5832 26.2576 50.6752 26.3176L50.5972 27.1156C50.5732 27.2156 50.5132 27.2656 50.4172 27.2656C50.3612 27.2656 50.2792 27.2536 50.1712 27.2296C50.0632 27.2056 49.9412 27.1936 49.8052 27.1936C49.6132 27.1936 49.4412 27.2216 49.2892 27.2776C49.1412 27.3336 49.0072 27.4176 48.8872 27.5296C48.7712 27.6376 48.6652 27.7736 48.5692 27.9376C48.4772 28.0976 48.3932 28.2816 48.3172 28.4896V32.3296H47.2432V26.2516H47.8552C47.9712 26.2516 48.0512 26.2736 48.0952 26.3176C48.1392 26.3616 48.1692 26.4376 48.1852 26.5456L48.2572 27.4696ZM52.7423 26.2516V32.3296H51.6743V26.2516H52.7423ZM52.9703 24.3436C52.9703 24.4476 52.9483 24.5456 52.9043 24.6376C52.8643 24.7256 52.8083 24.8056 52.7363 24.8776C52.6683 24.9456 52.5863 24.9996 52.4903 25.0396C52.3983 25.0796 52.3003 25.0996 52.1963 25.0996C52.0923 25.0996 51.9943 25.0796 51.9023 25.0396C51.8143 24.9996 51.7363 24.9456 51.6683 24.8776C51.6003 24.8056 51.5463 24.7256 51.5063 24.6376C51.4663 24.5456 51.4463 24.4476 51.4463 24.3436C51.4463 24.2396 51.4663 24.1416 51.5063 24.0496C51.5463 23.9536 51.6003 23.8716 51.6683 23.8036C51.7363 23.7316 51.8143 23.6756 51.9023 23.6356C51.9943 23.5956 52.0923 23.5756 52.1963 23.5756C52.3003 23.5756 52.3983 23.5956 52.4903 23.6356C52.5863 23.6756 52.6683 23.7316 52.7363 23.8036C52.8083 23.8716 52.8643 23.9536 52.9043 24.0496C52.9483 24.1416 52.9703 24.2396 52.9703 24.3436ZM58.5651 28.6276C58.5651 28.3796 58.5291 28.1536 58.4571 27.9496C58.3891 27.7416 58.2871 27.5636 58.1511 27.4156C58.0191 27.2636 57.8571 27.1476 57.6651 27.0676C57.4731 26.9836 57.2551 26.9416 57.0111 26.9416C56.4991 26.9416 56.0931 27.0916 55.7931 27.3916C55.4971 27.6876 55.3131 28.0996 55.2411 28.6276H58.5651ZM59.4291 31.4776C59.2971 31.6376 59.1391 31.7776 58.9551 31.8976C58.7711 32.0136 58.5731 32.1096 58.3611 32.1856C58.1531 32.2616 57.9371 32.3176 57.7131 32.3536C57.4891 32.3936 57.2671 32.4136 57.0471 32.4136C56.6271 32.4136 56.2391 32.3436 55.8831 32.2036C55.5311 32.0596 55.2251 31.8516 54.9651 31.5796C54.7091 31.3036 54.5091 30.9636 54.3651 30.5596C54.2211 30.1556 54.1491 29.6916 54.1491 29.1676C54.1491 28.7436 54.2131 28.3476 54.3411 27.9796C54.4731 27.6116 54.6611 27.2936 54.9051 27.0256C55.1491 26.7536 55.4471 26.5416 55.7991 26.3896C56.1511 26.2336 56.5471 26.1556 56.9871 26.1556C57.3511 26.1556 57.6871 26.2176 57.9951 26.3416C58.3071 26.4616 58.5751 26.6376 58.7991 26.8696C59.0271 27.0976 59.2051 27.3816 59.3331 27.7216C59.4611 28.0576 59.5251 28.4416 59.5251 28.8736C59.5251 29.0416 59.5071 29.1536 59.4711 29.2096C59.4351 29.2656 59.3671 29.2936 59.2671 29.2936H55.2051C55.2171 29.6776 55.2691 30.0116 55.3611 30.2956C55.4571 30.5796 55.5891 30.8176 55.7571 31.0096C55.9251 31.1976 56.1251 31.3396 56.3571 31.4356C56.5891 31.5276 56.8491 31.5736 57.1371 31.5736C57.4051 31.5736 57.6351 31.5436 57.8271 31.4836C58.0231 31.4196 58.1911 31.3516 58.3311 31.2796C58.4711 31.2076 58.5871 31.1416 58.6791 31.0816C58.7751 31.0176 58.8571 30.9856 58.9251 30.9856C59.0131 30.9856 59.0811 31.0196 59.1291 31.0876L59.4291 31.4776ZM67.9753 28.6276C67.9753 28.3796 67.9393 28.1536 67.8673 27.9496C67.7993 27.7416 67.6973 27.5636 67.5613 27.4156C67.4293 27.2636 67.2673 27.1476 67.0753 27.0676C66.8833 26.9836 66.6653 26.9416 66.4213 26.9416C65.9093 26.9416 65.5033 27.0916 65.2033 27.3916C64.9073 27.6876 64.7233 28.0996 64.6513 28.6276H67.9753ZM68.8393 31.4776C68.7073 31.6376 68.5493 31.7776 68.3653 31.8976C68.1813 32.0136 67.9833 32.1096 67.7713 32.1856C67.5633 32.2616 67.3473 32.3176 67.1233 32.3536C66.8993 32.3936 66.6773 32.4136 66.4573 32.4136C66.0373 32.4136 65.6493 32.3436 65.2933 32.2036C64.9413 32.0596 64.6353 31.8516 64.3753 31.5796C64.1193 31.3036 63.9193 30.9636 63.7753 30.5596C63.6313 30.1556 63.5593 29.6916 63.5593 29.1676C63.5593 28.7436 63.6233 28.3476 63.7513 27.9796C63.8833 27.6116 64.0713 27.2936 64.3153 27.0256C64.5593 26.7536 64.8573 26.5416 65.2093 26.3896C65.5613 26.2336 65.9573 26.1556 66.3973 26.1556C66.7613 26.1556 67.0973 26.2176 67.4053 26.3416C67.7173 26.4616 67.9853 26.6376 68.2093 26.8696C68.4373 27.0976 68.6153 27.3816 68.7433 27.7216C68.8713 28.0576 68.9353 28.4416 68.9353 28.8736C68.9353 29.0416 68.9173 29.1536 68.8813 29.2096C68.8453 29.2656 68.7773 29.2936 68.6773 29.2936H64.6153C64.6273 29.6776 64.6793 30.0116 64.7713 30.2956C64.8673 30.5796 64.9993 30.8176 65.1673 31.0096C65.3353 31.1976 65.5353 31.3396 65.7673 31.4356C65.9993 31.5276 66.2593 31.5736 66.5473 31.5736C66.8153 31.5736 67.0453 31.5436 67.2373 31.4836C67.4333 31.4196 67.6013 31.3516 67.7413 31.2796C67.8813 31.2076 67.9973 31.1416 68.0893 31.0816C68.1853 31.0176 68.2673 30.9856 68.3353 30.9856C68.4233 30.9856 68.4913 31.0196 68.5393 31.0876L68.8393 31.4776ZM74.3914 30.8656C74.5874 31.1296 74.8014 31.3156 75.0334 31.4236C75.2654 31.5316 75.5254 31.5856 75.8134 31.5856C76.3814 31.5856 76.8174 31.3836 77.1214 30.9796C77.4254 30.5756 77.5774 29.9996 77.5774 29.2516C77.5774 28.8556 77.5414 28.5156 77.4694 28.2316C77.4014 27.9476 77.3014 27.7156 77.1694 27.5356C77.0374 27.3516 76.8754 27.2176 76.6834 27.1336C76.4914 27.0496 76.2734 27.0076 76.0294 27.0076C75.6814 27.0076 75.3754 27.0876 75.1114 27.2476C74.8514 27.4076 74.6114 27.6336 74.3914 27.9256V30.8656ZM74.3374 27.1936C74.5934 26.8776 74.8894 26.6236 75.2254 26.4316C75.5614 26.2396 75.9454 26.1436 76.3774 26.1436C76.7294 26.1436 77.0474 26.2116 77.3314 26.3476C77.6154 26.4796 77.8574 26.6776 78.0574 26.9416C78.2574 27.2016 78.4114 27.5256 78.5194 27.9136C78.6274 28.3016 78.6814 28.7476 78.6814 29.2516C78.6814 29.6996 78.6214 30.1176 78.5014 30.5056C78.3814 30.8896 78.2074 31.2236 77.9794 31.5076C77.7554 31.7876 77.4794 32.0096 77.1514 32.1736C76.8274 32.3336 76.4614 32.4136 76.0534 32.4136C75.6814 32.4136 75.3614 32.3516 75.0934 32.2276C74.8294 32.0996 74.5954 31.9236 74.3914 31.6996V34.3876H73.3174V26.2516H73.9594C74.1114 26.2516 74.2054 26.3256 74.2414 26.4736L74.3374 27.1936ZM84.112 28.6276C84.112 28.3796 84.076 28.1536 84.004 27.9496C83.936 27.7416 83.834 27.5636 83.698 27.4156C83.566 27.2636 83.404 27.1476 83.212 27.0676C83.02 26.9836 82.802 26.9416 82.558 26.9416C82.046 26.9416 81.64 27.0916 81.34 27.3916C81.044 27.6876 80.86 28.0996 80.788 28.6276H84.112ZM84.976 31.4776C84.844 31.6376 84.686 31.7776 84.502 31.8976C84.318 32.0136 84.12 32.1096 83.908 32.1856C83.7 32.2616 83.484 32.3176 83.26 32.3536C83.036 32.3936 82.814 32.4136 82.594 32.4136C82.174 32.4136 81.786 32.3436 81.43 32.2036C81.078 32.0596 80.772 31.8516 80.512 31.5796C80.256 31.3036 80.056 30.9636 79.912 30.5596C79.768 30.1556 79.696 29.6916 79.696 29.1676C79.696 28.7436 79.76 28.3476 79.888 27.9796C80.02 27.6116 80.208 27.2936 80.452 27.0256C80.696 26.7536 80.994 26.5416 81.346 26.3896C81.698 26.2336 82.094 26.1556 82.534 26.1556C82.898 26.1556 83.234 26.2176 83.542 26.3416C83.854 26.4616 84.122 26.6376 84.346 26.8696C84.574 27.0976 84.752 27.3816 84.88 27.7216C85.008 28.0576 85.072 28.4416 85.072 28.8736C85.072 29.0416 85.054 29.1536 85.018 29.2096C84.982 29.2656 84.914 29.2936 84.814 29.2936H80.752C80.764 29.6776 80.816 30.0116 80.908 30.2956C81.004 30.5796 81.136 30.8176 81.304 31.0096C81.472 31.1976 81.672 31.3396 81.904 31.4356C82.136 31.5276 82.396 31.5736 82.684 31.5736C82.952 31.5736 83.182 31.5436 83.374 31.4836C83.57 31.4196 83.738 31.3516 83.878 31.2796C84.018 31.2076 84.134 31.1416 84.226 31.0816C84.322 31.0176 84.404 30.9856 84.472 30.9856C84.56 30.9856 84.628 31.0196 84.676 31.0876L84.976 31.4776ZM87.3978 27.4696C87.5898 27.0536 87.8258 26.7296 88.1058 26.4976C88.3858 26.2616 88.7278 26.1436 89.1318 26.1436C89.2598 26.1436 89.3818 26.1576 89.4978 26.1856C89.6178 26.2136 89.7238 26.2576 89.8158 26.3176L89.7378 27.1156C89.7138 27.2156 89.6538 27.2656 89.5578 27.2656C89.5018 27.2656 89.4198 27.2536 89.3118 27.2296C89.2038 27.2056 89.0818 27.1936 88.9458 27.1936C88.7538 27.1936 88.5818 27.2216 88.4298 27.2776C88.2818 27.3336 88.1478 27.4176 88.0278 27.5296C87.9118 27.6376 87.8058 27.7736 87.7098 27.9376C87.6178 28.0976 87.5338 28.2816 87.4578 28.4896V32.3296H86.3838V26.2516H86.9958C87.1118 26.2516 87.1918 26.2736 87.2358 26.3176C87.2798 26.3616 87.3098 26.4376 87.3258 26.5456L87.3978 27.4696ZM94.2598 27.2536C94.2118 27.3416 94.1378 27.3856 94.0378 27.3856C93.9778 27.3856 93.9098 27.3636 93.8338 27.3196C93.7578 27.2756 93.6638 27.2276 93.5518 27.1756C93.4438 27.1196 93.3138 27.0696 93.1618 27.0256C93.0098 26.9776 92.8298 26.9536 92.6218 26.9536C92.4418 26.9536 92.2798 26.9776 92.1358 27.0256C91.9918 27.0696 91.8678 27.1316 91.7638 27.2116C91.6638 27.2916 91.5858 27.3856 91.5298 27.4936C91.4778 27.5976 91.4518 27.7116 91.4518 27.8356C91.4518 27.9916 91.4958 28.1216 91.5838 28.2256C91.6758 28.3296 91.7958 28.4196 91.9438 28.4956C92.0918 28.5716 92.2598 28.6396 92.4478 28.6996C92.6358 28.7556 92.8278 28.8176 93.0238 28.8856C93.2238 28.9496 93.4178 29.0216 93.6058 29.1016C93.7938 29.1816 93.9618 29.2816 94.1098 29.4016C94.2578 29.5216 94.3758 29.6696 94.4638 29.8456C94.5558 30.0176 94.6018 30.2256 94.6018 30.4696C94.6018 30.7496 94.5518 31.0096 94.4518 31.2496C94.3518 31.4856 94.2038 31.6916 94.0078 31.8676C93.8118 32.0396 93.5718 32.1756 93.2878 32.2756C93.0038 32.3756 92.6758 32.4256 92.3038 32.4256C91.8798 32.4256 91.4958 32.3576 91.1518 32.2216C90.8078 32.0816 90.5158 31.9036 90.2758 31.6876L90.5278 31.2796C90.5598 31.2276 90.5978 31.1876 90.6418 31.1596C90.6858 31.1316 90.7418 31.1176 90.8098 31.1176C90.8818 31.1176 90.9578 31.1456 91.0378 31.2016C91.1178 31.2576 91.2138 31.3196 91.3258 31.3876C91.4418 31.4556 91.5818 31.5176 91.7458 31.5736C91.9098 31.6296 92.1138 31.6576 92.3578 31.6576C92.5658 31.6576 92.7478 31.6316 92.9038 31.5796C93.0598 31.5236 93.1898 31.4496 93.2938 31.3576C93.3978 31.2656 93.4738 31.1596 93.5218 31.0396C93.5738 30.9196 93.5998 30.7916 93.5998 30.6556C93.5998 30.4876 93.5538 30.3496 93.4618 30.2416C93.3738 30.1296 93.2558 30.0356 93.1078 29.9596C92.9598 29.8796 92.7898 29.8116 92.5978 29.7556C92.4098 29.6956 92.2158 29.6336 92.0158 29.5696C91.8198 29.5056 91.6258 29.4336 91.4338 29.3536C91.2458 29.2696 91.0778 29.1656 90.9298 29.0416C90.7818 28.9176 90.6618 28.7656 90.5698 28.5856C90.4818 28.4016 90.4378 28.1796 90.4378 27.9196C90.4378 27.6876 90.4858 27.4656 90.5818 27.2536C90.6778 27.0376 90.8178 26.8496 91.0018 26.6896C91.1858 26.5256 91.4118 26.3956 91.6798 26.2996C91.9478 26.2036 92.2538 26.1556 92.5978 26.1556C92.9978 26.1556 93.3558 26.2196 93.6718 26.3476C93.9918 26.4716 94.2678 26.6436 94.4998 26.8636L94.2598 27.2536ZM98.4732 26.1556C98.9172 26.1556 99.3172 26.2296 99.6732 26.3776C100.029 26.5256 100.333 26.7356 100.585 27.0076C100.837 27.2796 101.029 27.6096 101.161 27.9976C101.297 28.3816 101.365 28.8116 101.365 29.2876C101.365 29.7676 101.297 30.1996 101.161 30.5836C101.029 30.9676 100.837 31.2956 100.585 31.5676C100.333 31.8396 100.029 32.0496 99.6732 32.1976C99.3172 32.3416 98.9172 32.4136 98.4732 32.4136C98.0252 32.4136 97.6212 32.3416 97.2612 32.1976C96.9052 32.0496 96.6012 31.8396 96.3492 31.5676C96.0972 31.2956 95.9032 30.9676 95.7672 30.5836C95.6352 30.1996 95.5692 29.7676 95.5692 29.2876C95.5692 28.8116 95.6352 28.3816 95.7672 27.9976C95.9032 27.6096 96.0972 27.2796 96.3492 27.0076C96.6012 26.7356 96.9052 26.5256 97.2612 26.3776C97.6212 26.2296 98.0252 26.1556 98.4732 26.1556ZM98.4732 31.5796C99.0732 31.5796 99.5212 31.3796 99.8172 30.9796C100.113 30.5756 100.261 30.0136 100.261 29.2936C100.261 28.5696 100.113 28.0056 99.8172 27.6016C99.5212 27.1976 99.0732 26.9956 98.4732 26.9956C98.1692 26.9956 97.9032 27.0476 97.6752 27.1516C97.4512 27.2556 97.2632 27.4056 97.1112 27.6016C96.9632 27.7976 96.8512 28.0396 96.7752 28.3276C96.7032 28.6116 96.6672 28.9336 96.6672 29.2936C96.6672 30.0136 96.8152 30.5756 97.1112 30.9796C97.4112 31.3796 97.8652 31.5796 98.4732 31.5796ZM103.728 27.1336C103.86 26.9856 104 26.8516 104.148 26.7316C104.296 26.6116 104.452 26.5096 104.616 26.4256C104.784 26.3376 104.96 26.2716 105.144 26.2276C105.332 26.1796 105.534 26.1556 105.75 26.1556C106.082 26.1556 106.374 26.2116 106.626 26.3236C106.882 26.4316 107.094 26.5876 107.262 26.7916C107.434 26.9916 107.564 27.2336 107.652 27.5176C107.74 27.8016 107.784 28.1156 107.784 28.4596V32.3296H106.71V28.4596C106.71 27.9996 106.604 27.6436 106.392 27.3916C106.184 27.1356 105.866 27.0076 105.438 27.0076C105.122 27.0076 104.826 27.0836 104.55 27.2356C104.278 27.3876 104.026 27.5936 103.794 27.8536V32.3296H102.72V26.2516H103.362C103.514 26.2516 103.608 26.3256 103.644 26.4736L103.728 27.1336ZM112.705 29.5936C112.213 29.6096 111.793 29.6496 111.445 29.7136C111.101 29.7736 110.819 29.8536 110.599 29.9536C110.383 30.0536 110.225 30.1716 110.125 30.3076C110.029 30.4436 109.981 30.5956 109.981 30.7636C109.981 30.9236 110.007 31.0616 110.059 31.1776C110.111 31.2936 110.181 31.3896 110.269 31.4656C110.361 31.5376 110.467 31.5916 110.587 31.6276C110.711 31.6596 110.843 31.6756 110.983 31.6756C111.171 31.6756 111.343 31.6576 111.499 31.6216C111.655 31.5816 111.801 31.5256 111.937 31.4536C112.077 31.3816 112.209 31.2956 112.333 31.1956C112.461 31.0956 112.585 30.9816 112.705 30.8536V29.5936ZM109.255 27.1096C109.591 26.7856 109.953 26.5436 110.341 26.3836C110.729 26.2236 111.159 26.1436 111.631 26.1436C111.971 26.1436 112.273 26.1996 112.537 26.3116C112.801 26.4236 113.023 26.5796 113.203 26.7796C113.383 26.9796 113.519 27.2216 113.611 27.5056C113.703 27.7896 113.749 28.1016 113.749 28.4416V32.3296H113.275C113.171 32.3296 113.091 32.3136 113.035 32.2816C112.979 32.2456 112.935 32.1776 112.903 32.0776L112.783 31.5016C112.623 31.6496 112.467 31.7816 112.315 31.8976C112.163 32.0096 112.003 32.1056 111.835 32.1856C111.667 32.2616 111.487 32.3196 111.295 32.3596C111.107 32.4036 110.897 32.4256 110.665 32.4256C110.429 32.4256 110.207 32.3936 109.999 32.3296C109.791 32.2616 109.609 32.1616 109.453 32.0296C109.301 31.8976 109.179 31.7316 109.087 31.5316C108.999 31.3276 108.955 31.0876 108.955 30.8116C108.955 30.5716 109.021 30.3416 109.153 30.1216C109.285 29.8976 109.499 29.6996 109.795 29.5276C110.091 29.3556 110.477 29.2156 110.953 29.1076C111.429 28.9956 112.013 28.9316 112.705 28.9156V28.4416C112.705 27.9696 112.603 27.6136 112.399 27.3736C112.195 27.1296 111.897 27.0076 111.505 27.0076C111.241 27.0076 111.019 27.0416 110.839 27.1096C110.663 27.1736 110.509 27.2476 110.377 27.3316C110.249 27.4116 110.137 27.4856 110.041 27.5536C109.949 27.6176 109.857 27.6496 109.765 27.6496C109.693 27.6496 109.631 27.6316 109.579 27.5956C109.527 27.5556 109.483 27.5076 109.447 27.4516L109.255 27.1096ZM116.48 23.4916V32.3296H115.412V23.4916H116.48ZM119.34 26.2516V32.3296H118.272V26.2516H119.34ZM119.568 24.3436C119.568 24.4476 119.546 24.5456 119.502 24.6376C119.462 24.7256 119.406 24.8056 119.334 24.8776C119.266 24.9456 119.184 24.9996 119.088 25.0396C118.996 25.0796 118.898 25.0996 118.794 25.0996C118.69 25.0996 118.592 25.0796 118.5 25.0396C118.412 24.9996 118.334 24.9456 118.266 24.8776C118.198 24.8056 118.144 24.7256 118.104 24.6376C118.064 24.5456 118.044 24.4476 118.044 24.3436C118.044 24.2396 118.064 24.1416 118.104 24.0496C118.144 23.9536 118.198 23.8716 118.266 23.8036C118.334 23.7316 118.412 23.6756 118.5 23.6356C118.592 23.5956 118.69 23.5756 118.794 23.5756C118.898 23.5756 118.996 23.5956 119.088 23.6356C119.184 23.6756 119.266 23.7316 119.334 23.8036C119.406 23.8716 119.462 23.9536 119.502 24.0496C119.546 24.1416 119.568 24.2396 119.568 24.3436ZM125.289 26.7076C125.289 26.7836 125.275 26.8576 125.247 26.9296C125.223 27.0016 125.189 27.0636 125.145 27.1156L121.851 31.4956H125.175V32.3296H120.597V31.8856C120.597 31.8336 120.609 31.7736 120.633 31.7056C120.657 31.6336 120.693 31.5656 120.741 31.5016L124.053 27.0916H120.783V26.2516H125.289V26.7076ZM130.471 28.6276C130.471 28.3796 130.435 28.1536 130.363 27.9496C130.295 27.7416 130.193 27.5636 130.057 27.4156C129.925 27.2636 129.763 27.1476 129.571 27.0676C129.379 26.9836 129.161 26.9416 128.917 26.9416C128.405 26.9416 127.999 27.0916 127.699 27.3916C127.403 27.6876 127.219 28.0996 127.147 28.6276H130.471ZM131.335 31.4776C131.203 31.6376 131.045 31.7776 130.861 31.8976C130.677 32.0136 130.479 32.1096 130.267 32.1856C130.059 32.2616 129.843 32.3176 129.619 32.3536C129.395 32.3936 129.173 32.4136 128.953 32.4136C128.533 32.4136 128.145 32.3436 127.789 32.2036C127.437 32.0596 127.131 31.8516 126.871 31.5796C126.615 31.3036 126.415 30.9636 126.271 30.5596C126.127 30.1556 126.055 29.6916 126.055 29.1676C126.055 28.7436 126.119 28.3476 126.247 27.9796C126.379 27.6116 126.567 27.2936 126.811 27.0256C127.055 26.7536 127.353 26.5416 127.705 26.3896C128.057 26.2336 128.453 26.1556 128.893 26.1556C129.257 26.1556 129.593 26.2176 129.901 26.3416C130.213 26.4616 130.481 26.6376 130.705 26.8696C130.933 27.0976 131.111 27.3816 131.239 27.7216C131.367 28.0576 131.431 28.4416 131.431 28.8736C131.431 29.0416 131.413 29.1536 131.377 29.2096C131.341 29.2656 131.273 29.2936 131.173 29.2936H127.111C127.123 29.6776 127.175 30.0116 127.267 30.2956C127.363 30.5796 127.495 30.8176 127.663 31.0096C127.831 31.1976 128.031 31.3396 128.263 31.4356C128.495 31.5276 128.755 31.5736 129.043 31.5736C129.311 31.5736 129.541 31.5436 129.733 31.4836C129.929 31.4196 130.097 31.3516 130.237 31.2796C130.377 31.2076 130.493 31.1416 130.585 31.0816C130.681 31.0176 130.763 30.9856 130.831 30.9856C130.919 30.9856 130.987 31.0196 131.035 31.0876L131.335 31.4776ZM139.354 27.2536C139.306 27.3416 139.232 27.3856 139.132 27.3856C139.072 27.3856 139.004 27.3636 138.928 27.3196C138.852 27.2756 138.758 27.2276 138.646 27.1756C138.538 27.1196 138.408 27.0696 138.256 27.0256C138.104 26.9776 137.924 26.9536 137.716 26.9536C137.536 26.9536 137.374 26.9776 137.23 27.0256C137.086 27.0696 136.962 27.1316 136.858 27.2116C136.758 27.2916 136.68 27.3856 136.624 27.4936C136.572 27.5976 136.546 27.7116 136.546 27.8356C136.546 27.9916 136.59 28.1216 136.678 28.2256C136.77 28.3296 136.89 28.4196 137.038 28.4956C137.186 28.5716 137.354 28.6396 137.542 28.6996C137.73 28.7556 137.922 28.8176 138.118 28.8856C138.318 28.9496 138.512 29.0216 138.7 29.1016C138.888 29.1816 139.056 29.2816 139.204 29.4016C139.352 29.5216 139.47 29.6696 139.558 29.8456C139.65 30.0176 139.696 30.2256 139.696 30.4696C139.696 30.7496 139.646 31.0096 139.546 31.2496C139.446 31.4856 139.298 31.6916 139.102 31.8676C138.906 32.0396 138.666 32.1756 138.382 32.2756C138.098 32.3756 137.77 32.4256 137.398 32.4256C136.974 32.4256 136.59 32.3576 136.246 32.2216C135.902 32.0816 135.61 31.9036 135.37 31.6876L135.622 31.2796C135.654 31.2276 135.692 31.1876 135.736 31.1596C135.78 31.1316 135.836 31.1176 135.904 31.1176C135.976 31.1176 136.052 31.1456 136.132 31.2016C136.212 31.2576 136.308 31.3196 136.42 31.3876C136.536 31.4556 136.676 31.5176 136.84 31.5736C137.004 31.6296 137.208 31.6576 137.452 31.6576C137.66 31.6576 137.842 31.6316 137.998 31.5796C138.154 31.5236 138.284 31.4496 138.388 31.3576C138.492 31.2656 138.568 31.1596 138.616 31.0396C138.668 30.9196 138.694 30.7916 138.694 30.6556C138.694 30.4876 138.648 30.3496 138.556 30.2416C138.468 30.1296 138.35 30.0356 138.202 29.9596C138.054 29.8796 137.884 29.8116 137.692 29.7556C137.504 29.6956 137.31 29.6336 137.11 29.5696C136.914 29.5056 136.72 29.4336 136.528 29.3536C136.34 29.2696 136.172 29.1656 136.024 29.0416C135.876 28.9176 135.756 28.7656 135.664 28.5856C135.576 28.4016 135.532 28.1796 135.532 27.9196C135.532 27.6876 135.58 27.4656 135.676 27.2536C135.772 27.0376 135.912 26.8496 136.096 26.6896C136.28 26.5256 136.506 26.3956 136.774 26.2996C137.042 26.2036 137.348 26.1556 137.692 26.1556C138.092 26.1556 138.45 26.2196 138.766 26.3476C139.086 26.4716 139.362 26.6436 139.594 26.8636L139.354 27.2536ZM146.003 26.2516V32.3296H145.367C145.215 32.3296 145.119 32.2556 145.079 32.1076L144.995 31.4536C144.731 31.7456 144.435 31.9816 144.107 32.1616C143.779 32.3376 143.403 32.4256 142.979 32.4256C142.647 32.4256 142.353 32.3716 142.097 32.2636C141.845 32.1516 141.633 31.9956 141.461 31.7956C141.289 31.5956 141.159 31.3536 141.071 31.0696C140.987 30.7856 140.945 30.4716 140.945 30.1276V26.2516H142.013V30.1276C142.013 30.5876 142.117 30.9436 142.325 31.1956C142.537 31.4476 142.859 31.5736 143.291 31.5736C143.607 31.5736 143.901 31.4996 144.173 31.3516C144.449 31.1996 144.703 30.9916 144.935 30.7276V26.2516H146.003ZM150.99 29.5936C150.498 29.6096 150.078 29.6496 149.73 29.7136C149.386 29.7736 149.104 29.8536 148.884 29.9536C148.668 30.0536 148.51 30.1716 148.41 30.3076C148.314 30.4436 148.266 30.5956 148.266 30.7636C148.266 30.9236 148.292 31.0616 148.344 31.1776C148.396 31.2936 148.466 31.3896 148.554 31.4656C148.646 31.5376 148.752 31.5916 148.872 31.6276C148.996 31.6596 149.128 31.6756 149.268 31.6756C149.456 31.6756 149.628 31.6576 149.784 31.6216C149.94 31.5816 150.086 31.5256 150.222 31.4536C150.362 31.3816 150.494 31.2956 150.618 31.1956C150.746 31.0956 150.87 30.9816 150.99 30.8536V29.5936ZM147.54 27.1096C147.876 26.7856 148.238 26.5436 148.626 26.3836C149.014 26.2236 149.444 26.1436 149.916 26.1436C150.256 26.1436 150.558 26.1996 150.822 26.3116C151.086 26.4236 151.308 26.5796 151.488 26.7796C151.668 26.9796 151.804 27.2216 151.896 27.5056C151.988 27.7896 152.034 28.1016 152.034 28.4416V32.3296H151.56C151.456 32.3296 151.376 32.3136 151.32 32.2816C151.264 32.2456 151.22 32.1776 151.188 32.0776L151.068 31.5016C150.908 31.6496 150.752 31.7816 150.6 31.8976C150.448 32.0096 150.288 32.1056 150.12 32.1856C149.952 32.2616 149.772 32.3196 149.58 32.3596C149.392 32.4036 149.182 32.4256 148.95 32.4256C148.714 32.4256 148.492 32.3936 148.284 32.3296C148.076 32.2616 147.894 32.1616 147.738 32.0296C147.586 31.8976 147.464 31.7316 147.372 31.5316C147.284 31.3276 147.24 31.0876 147.24 30.8116C147.24 30.5716 147.306 30.3416 147.438 30.1216C147.57 29.8976 147.784 29.6996 148.08 29.5276C148.376 29.3556 148.762 29.2156 149.238 29.1076C149.714 28.9956 150.298 28.9316 150.99 28.9156V28.4416C150.99 27.9696 150.888 27.6136 150.684 27.3736C150.48 27.1296 150.182 27.0076 149.79 27.0076C149.526 27.0076 149.304 27.0416 149.124 27.1096C148.948 27.1736 148.794 27.2476 148.662 27.3316C148.534 27.4116 148.422 27.4856 148.326 27.5536C148.234 27.6176 148.142 27.6496 148.05 27.6496C147.978 27.6496 147.916 27.6316 147.864 27.5956C147.812 27.5556 147.768 27.5076 147.732 27.4516L147.54 27.1096ZM157.835 23.4916V32.3296H156.767V23.4916H157.835ZM160.695 26.2516V32.3296H159.627V26.2516H160.695ZM160.923 24.3436C160.923 24.4476 160.901 24.5456 160.857 24.6376C160.817 24.7256 160.761 24.8056 160.689 24.8776C160.621 24.9456 160.539 24.9996 160.443 25.0396C160.351 25.0796 160.253 25.0996 160.149 25.0996C160.045 25.0996 159.947 25.0796 159.855 25.0396C159.767 24.9996 159.689 24.9456 159.621 24.8776C159.553 24.8056 159.499 24.7256 159.459 24.6376C159.419 24.5456 159.399 24.4476 159.399 24.3436C159.399 24.2396 159.419 24.1416 159.459 24.0496C159.499 23.9536 159.553 23.8716 159.621 23.8036C159.689 23.7316 159.767 23.6756 159.855 23.6356C159.947 23.5956 160.045 23.5756 160.149 23.5756C160.253 23.5756 160.351 23.5956 160.443 23.6356C160.539 23.6756 160.621 23.7316 160.689 23.8036C160.761 23.8716 160.817 23.9536 160.857 24.0496C160.901 24.1416 160.923 24.2396 160.923 24.3436ZM165.99 27.2536C165.942 27.3416 165.868 27.3856 165.768 27.3856C165.708 27.3856 165.64 27.3636 165.564 27.3196C165.488 27.2756 165.394 27.2276 165.282 27.1756C165.174 27.1196 165.044 27.0696 164.892 27.0256C164.74 26.9776 164.56 26.9536 164.352 26.9536C164.172 26.9536 164.01 26.9776 163.866 27.0256C163.722 27.0696 163.598 27.1316 163.494 27.2116C163.394 27.2916 163.316 27.3856 163.26 27.4936C163.208 27.5976 163.182 27.7116 163.182 27.8356C163.182 27.9916 163.226 28.1216 163.314 28.2256C163.406 28.3296 163.526 28.4196 163.674 28.4956C163.822 28.5716 163.99 28.6396 164.178 28.6996C164.366 28.7556 164.558 28.8176 164.754 28.8856C164.954 28.9496 165.148 29.0216 165.336 29.1016C165.524 29.1816 165.692 29.2816 165.84 29.4016C165.988 29.5216 166.106 29.6696 166.194 29.8456C166.286 30.0176 166.332 30.2256 166.332 30.4696C166.332 30.7496 166.282 31.0096 166.182 31.2496C166.082 31.4856 165.934 31.6916 165.738 31.8676C165.542 32.0396 165.302 32.1756 165.018 32.2756C164.734 32.3756 164.406 32.4256 164.034 32.4256C163.61 32.4256 163.226 32.3576 162.882 32.2216C162.538 32.0816 162.246 31.9036 162.006 31.6876L162.258 31.2796C162.29 31.2276 162.328 31.1876 162.372 31.1596C162.416 31.1316 162.472 31.1176 162.54 31.1176C162.612 31.1176 162.688 31.1456 162.768 31.2016C162.848 31.2576 162.944 31.3196 163.056 31.3876C163.172 31.4556 163.312 31.5176 163.476 31.5736C163.64 31.6296 163.844 31.6576 164.088 31.6576C164.296 31.6576 164.478 31.6316 164.634 31.5796C164.79 31.5236 164.92 31.4496 165.024 31.3576C165.128 31.2656 165.204 31.1596 165.252 31.0396C165.304 30.9196 165.33 30.7916 165.33 30.6556C165.33 30.4876 165.284 30.3496 165.192 30.2416C165.104 30.1296 164.986 30.0356 164.838 29.9596C164.69 29.8796 164.52 29.8116 164.328 29.7556C164.14 29.6956 163.946 29.6336 163.746 29.5696C163.55 29.5056 163.356 29.4336 163.164 29.3536C162.976 29.2696 162.808 29.1656 162.66 29.0416C162.512 28.9176 162.392 28.7656 162.3 28.5856C162.212 28.4016 162.168 28.1796 162.168 27.9196C162.168 27.6876 162.216 27.4656 162.312 27.2536C162.408 27.0376 162.548 26.8496 162.732 26.6896C162.916 26.5256 163.142 26.3956 163.41 26.2996C163.678 26.2036 163.984 26.1556 164.328 26.1556C164.728 26.1556 165.086 26.2196 165.402 26.3476C165.722 26.4716 165.998 26.6436 166.23 26.8636L165.99 27.2536ZM169.508 32.4256C169.028 32.4256 168.658 32.2916 168.398 32.0236C168.142 31.7556 168.014 31.3696 168.014 30.8656V27.1456H167.282C167.218 27.1456 167.164 27.1276 167.12 27.0916C167.076 27.0516 167.054 26.9916 167.054 26.9116V26.4856L168.05 26.3596L168.296 24.4816C168.308 24.4216 168.334 24.3736 168.374 24.3376C168.418 24.2976 168.474 24.2776 168.542 24.2776H169.082V26.3716H170.84V27.1456H169.082V30.7936C169.082 31.0496 169.144 31.2396 169.268 31.3636C169.392 31.4876 169.552 31.5496 169.748 31.5496C169.86 31.5496 169.956 31.5356 170.036 31.5076C170.12 31.4756 170.192 31.4416 170.252 31.4056C170.312 31.3696 170.362 31.3376 170.402 31.3096C170.446 31.2776 170.484 31.2616 170.516 31.2616C170.572 31.2616 170.622 31.2956 170.666 31.3636L170.978 31.8736C170.794 32.0456 170.572 32.1816 170.312 32.2816C170.052 32.3776 169.784 32.4256 169.508 32.4256ZM175.236 29.5936C174.744 29.6096 174.324 29.6496 173.976 29.7136C173.632 29.7736 173.35 29.8536 173.13 29.9536C172.914 30.0536 172.756 30.1716 172.656 30.3076C172.56 30.4436 172.512 30.5956 172.512 30.7636C172.512 30.9236 172.538 31.0616 172.59 31.1776C172.642 31.2936 172.712 31.3896 172.8 31.4656C172.892 31.5376 172.998 31.5916 173.118 31.6276C173.242 31.6596 173.374 31.6756 173.514 31.6756C173.702 31.6756 173.874 31.6576 174.03 31.6216C174.186 31.5816 174.332 31.5256 174.468 31.4536C174.608 31.3816 174.74 31.2956 174.864 31.1956C174.992 31.0956 175.116 30.9816 175.236 30.8536V29.5936ZM171.786 27.1096C172.122 26.7856 172.484 26.5436 172.872 26.3836C173.26 26.2236 173.69 26.1436 174.162 26.1436C174.502 26.1436 174.804 26.1996 175.068 26.3116C175.332 26.4236 175.554 26.5796 175.734 26.7796C175.914 26.9796 176.05 27.2216 176.142 27.5056C176.234 27.7896 176.28 28.1016 176.28 28.4416V32.3296H175.806C175.702 32.3296 175.622 32.3136 175.566 32.2816C175.51 32.2456 175.466 32.1776 175.434 32.0776L175.314 31.5016C175.154 31.6496 174.998 31.7816 174.846 31.8976C174.694 32.0096 174.534 32.1056 174.366 32.1856C174.198 32.2616 174.018 32.3196 173.826 32.3596C173.638 32.4036 173.428 32.4256 173.196 32.4256C172.96 32.4256 172.738 32.3936 172.53 32.3296C172.322 32.2616 172.14 32.1616 171.984 32.0296C171.832 31.8976 171.71 31.7316 171.618 31.5316C171.53 31.3276 171.486 31.0876 171.486 30.8116C171.486 30.5716 171.552 30.3416 171.684 30.1216C171.816 29.8976 172.03 29.6996 172.326 29.5276C172.622 29.3556 173.008 29.2156 173.484 29.1076C173.96 28.9956 174.544 28.9316 175.236 28.9156V28.4416C175.236 27.9696 175.134 27.6136 174.93 27.3736C174.726 27.1296 174.428 27.0076 174.036 27.0076C173.772 27.0076 173.55 27.0416 173.37 27.1096C173.194 27.1736 173.04 27.2476 172.908 27.3316C172.78 27.4116 172.668 27.4856 172.572 27.5536C172.48 27.6176 172.388 27.6496 172.296 27.6496C172.224 27.6496 172.162 27.6316 172.11 27.5956C172.058 27.5556 172.014 27.5076 171.978 27.4516L171.786 27.1096Z" fill="#444444"/>
</svg>
