<svg width="33" height="32" viewBox="0 0 33 32" fill="none" xmlns="http://www.w3.org/2000/svg">
<path d="M30.0576 4L2.23149 4C1.07889 4 0.144531 4.93436 0.144531 6.08696L0.144531 25.5652C0.144531 26.7178 1.07889 27.6522 2.23149 27.6522L30.0576 27.6522C31.2102 27.6522 32.1445 26.7178 32.1445 25.5652V6.08696C32.1445 4.93436 31.2102 4 30.0576 4Z" fill="#F2F2F2"/>
<path d="M5.9618 24.8561V23.1295C5.9706 22.9843 5.95223 22.8386 5.9079 22.7021C5.86358 22.5657 5.79432 22.4416 5.70474 22.3381C5.61515 22.2346 5.50731 22.1542 5.38838 22.1021C5.26945 22.05 5.14218 22.0274 5.01503 22.036C4.84861 22.0235 4.6823 22.0623 4.53349 22.1484C4.38467 22.2344 4.25879 22.3646 4.16899 22.5252C4.08714 22.3694 3.97002 22.2417 3.82998 22.1556C3.68995 22.0695 3.53218 22.0282 3.37331 22.036C3.23482 22.028 3.09691 22.0615 2.97325 22.1331C2.84958 22.2048 2.74445 22.3122 2.66827 22.4446V22.105H2.14453V24.8561H2.67331V23.3424C2.66206 23.2484 2.66914 23.1526 2.69403 23.062C2.71893 22.9714 2.76103 22.8883 2.81732 22.8184C2.87361 22.7486 2.94271 22.6938 3.01967 22.6581C3.09663 22.6223 3.17956 22.6064 3.26252 22.6115C3.61 22.6115 3.78626 22.8705 3.78626 23.3367V24.8676H4.31503V23.3424C4.30425 23.2485 4.31165 23.1529 4.33671 23.0626C4.36178 22.9722 4.40389 22.8892 4.46009 22.8195C4.51629 22.7498 4.58519 22.695 4.66194 22.6591C4.73869 22.6232 4.8214 22.6069 4.90424 22.6115C5.2618 22.6115 5.43302 22.8705 5.43302 23.3367V24.8676L5.9618 24.8561ZM13.7852 22.105H12.924V21.2705H12.3952V22.105H11.9168V22.6518H12.4053V23.918C12.4053 24.5568 12.6219 24.9367 13.2413 24.9367C13.4727 24.9376 13.6996 24.8638 13.896 24.7237L13.7449 24.2115C13.6044 24.3073 13.445 24.3607 13.2816 24.3669C13.0298 24.3669 12.9341 24.1827 12.9341 23.9065V22.6518H13.7902L13.7852 22.105ZM18.2521 22.036C18.1244 22.0317 17.998 22.0668 17.8864 22.1377C17.7747 22.2086 17.6818 22.3127 17.6176 22.4388V22.105H17.0988V24.8561H17.6226V23.3137C17.6226 22.859 17.7938 22.6058 18.1262 22.6058C18.2382 22.604 18.3494 22.6275 18.4535 22.6748L18.6147 22.0993C18.4951 22.0504 18.369 22.0251 18.242 22.0245L18.2521 22.036ZM11.4988 22.3237C11.2024 22.1223 10.8615 22.0224 10.5168 22.036C9.90748 22.036 9.50964 22.3698 9.50964 22.9165C9.50964 23.3655 9.80173 23.6417 10.3406 23.7281L10.5924 23.7683C10.8794 23.8144 11.0154 23.9007 11.0154 24.0561C11.0154 24.2691 10.824 24.3899 10.4665 24.3899C10.1789 24.3994 9.89683 24.2981 9.66575 24.1022L9.41396 24.5683C9.71904 24.8118 10.0845 24.9369 10.4564 24.9252C11.1514 24.9252 11.5542 24.5511 11.5542 24.0273C11.5542 23.5036 11.237 23.2906 10.7132 23.2043L10.4614 23.164C10.2348 23.1295 10.0535 23.0777 10.0535 22.8935C10.0535 22.7094 10.2247 22.5712 10.5118 22.5712C10.7771 22.5747 11.0372 22.656 11.2672 22.8072L11.4988 22.3237ZM25.5265 22.036C25.3988 22.0317 25.2725 22.0668 25.1608 22.1377C25.0492 22.2086 24.9563 22.3127 24.892 22.4388V22.105H24.3733V24.8561H24.897V23.3137C24.897 22.859 25.0683 22.6058 25.4006 22.6058C25.5127 22.604 25.6239 22.6275 25.728 22.6748L25.8891 22.0993C25.7695 22.0504 25.6435 22.0251 25.5165 22.0245L25.5265 22.036ZM18.7783 23.4748C18.7721 23.6681 18.8013 23.8608 18.8639 24.0405C18.9266 24.2203 19.0214 24.383 19.1423 24.5185C19.2632 24.6539 19.4074 24.759 19.5659 24.8271C19.7244 24.8951 19.8935 24.9246 20.0625 24.9137C20.377 24.932 20.686 24.8149 20.9287 24.5856L20.6769 24.1022C20.4959 24.2599 20.2751 24.3467 20.0474 24.3496C19.8538 24.3317 19.6732 24.2312 19.5415 24.068C19.4098 23.9049 19.3367 23.691 19.3367 23.4691C19.3367 23.2471 19.4098 23.0333 19.5415 22.8701C19.6732 22.7069 19.8538 22.6064 20.0474 22.5885C20.2751 22.5914 20.4959 22.6782 20.6769 22.836L20.9287 22.3525C20.686 22.1232 20.377 22.0062 20.0625 22.0245C19.8935 22.0135 19.7244 22.043 19.5659 22.1111C19.4074 22.1791 19.2632 22.2842 19.1423 22.4197C19.0214 22.5551 18.9266 22.7179 18.8639 22.8976C18.8013 23.0773 18.7721 23.27 18.7783 23.4633V23.4748ZM23.6834 23.4748V22.105H23.1596V22.4388C23.0707 22.3081 22.9558 22.2033 22.8245 22.1333C22.6931 22.0632 22.5491 22.0299 22.4042 22.036C22.0703 22.036 21.7501 22.1876 21.514 22.4574C21.2779 22.7272 21.1452 23.0932 21.1452 23.4748C21.1452 23.8564 21.2779 24.2224 21.514 24.4922C21.7501 24.7621 22.0703 24.9137 22.4042 24.9137C22.5491 24.9198 22.6931 24.8864 22.8245 24.8164C22.9558 24.7463 23.0707 24.6416 23.1596 24.5108V24.8446H23.6834V23.4748ZM21.7345 23.4748C21.7428 23.3129 21.7924 23.1573 21.8772 23.0272C21.9619 22.897 22.0781 22.7981 22.2115 22.7425C22.3448 22.6869 22.4895 22.6771 22.6276 22.7142C22.7658 22.7514 22.8914 22.8339 22.9891 22.9517C23.0867 23.0694 23.1521 23.2172 23.1772 23.3769C23.2022 23.5366 23.1859 23.7011 23.1301 23.8503C23.0744 23.9995 22.9817 24.1268 22.8635 24.2165C22.7452 24.3063 22.6066 24.3546 22.4647 24.3554C22.365 24.3568 22.2661 24.3347 22.1742 24.2903C22.0824 24.246 21.9996 24.1804 21.931 24.0977C21.8624 24.015 21.8095 23.9169 21.7757 23.8097C21.7419 23.7026 21.7278 23.5885 21.7345 23.4748ZM15.4143 22.036C15.0804 22.0413 14.762 22.198 14.5292 22.4716C14.2964 22.7453 14.1683 23.1134 14.1729 23.495C14.1776 23.8766 14.3147 24.2404 14.5542 24.5065C14.7936 24.7725 15.1157 24.919 15.4496 24.9137C15.8118 24.9349 16.1681 24.8016 16.4492 24.5396L16.1974 24.0964C15.9986 24.2786 15.7523 24.3799 15.4974 24.3842C15.3243 24.4012 15.1522 24.3404 15.0177 24.2146C14.8832 24.0888 14.797 23.9081 14.7773 23.7108H16.565C16.565 23.636 16.565 23.5612 16.565 23.4806C16.565 22.6173 16.0967 22.0417 15.4219 22.0417L15.4143 22.036ZM15.4143 22.5712C15.4927 22.5693 15.5706 22.5851 15.6437 22.6176C15.7167 22.6501 15.7834 22.6988 15.84 22.7608C15.8966 22.8228 15.9419 22.8969 15.9735 22.9789C16.005 23.061 16.022 23.1493 16.0237 23.2388H14.7647C14.7738 23.0541 14.8458 22.8808 14.9654 22.756C15.0849 22.6312 15.2424 22.5649 15.4042 22.5712H15.4143ZM28.5355 23.4806V21H28.0319V22.4388C27.943 22.3081 27.8281 22.2033 27.6968 22.1333C27.5654 22.0632 27.4214 22.0299 27.2765 22.036C26.9426 22.036 26.6224 22.1876 26.3863 22.4574C26.1502 22.7272 26.0175 23.0932 26.0175 23.4748C26.0175 23.8564 26.1502 24.2224 26.3863 24.4922C26.6224 24.7621 26.9426 24.9137 27.2765 24.9137C27.4214 24.9198 27.5654 24.8864 27.6968 24.8164C27.8281 24.7463 27.943 24.6416 28.0319 24.5108V24.8446H28.5355V23.4806ZM29.4093 24.4561C29.442 24.4557 29.4745 24.4625 29.505 24.4763C29.5339 24.4897 29.5603 24.5093 29.583 24.5338C29.6051 24.5586 29.6231 24.5879 29.6359 24.6201C29.6486 24.6537 29.6552 24.69 29.6552 24.7266C29.6552 24.7632 29.6486 24.7995 29.6359 24.8331C29.6231 24.8653 29.6051 24.8946 29.583 24.9194C29.5603 24.944 29.5339 24.9635 29.505 24.977C29.4748 24.9922 29.4422 25 29.4093 25C29.3615 24.9996 29.3149 24.9837 29.2748 24.9541C29.2347 24.9246 29.2027 24.8826 29.1827 24.8331C29.1701 24.7994 29.1636 24.7632 29.1636 24.7266C29.1636 24.69 29.1701 24.6538 29.1827 24.6201C29.1955 24.5879 29.2134 24.5586 29.2355 24.5338C29.2582 24.5093 29.2847 24.4897 29.3136 24.4763C29.3464 24.4613 29.3816 24.4545 29.4168 24.4561H29.4093ZM29.4093 24.9424C29.4344 24.9426 29.4593 24.9367 29.4823 24.9252C29.504 24.9141 29.5236 24.8985 29.5402 24.8791C29.5717 24.8399 29.5892 24.7885 29.5892 24.7352C29.5892 24.682 29.5717 24.6306 29.5402 24.5914C29.5236 24.5719 29.504 24.5563 29.4823 24.5453C29.4593 24.5338 29.4344 24.528 29.4093 24.5281C29.3842 24.5282 29.3593 24.5341 29.3363 24.5453C29.3136 24.5559 29.2931 24.5716 29.2758 24.5914C29.2443 24.6306 29.2269 24.682 29.2269 24.7352C29.2269 24.7885 29.2443 24.8399 29.2758 24.8791C29.2931 24.8989 29.3137 24.9145 29.3363 24.9252C29.3617 24.9377 29.3892 24.9436 29.4168 24.9424H29.4093ZM29.4244 24.6C29.4479 24.5987 29.4711 24.6068 29.4899 24.623C29.4976 24.6303 29.5036 24.6396 29.5076 24.6501C29.5115 24.6606 29.5132 24.672 29.5125 24.6835C29.5129 24.693 29.5115 24.7026 29.5085 24.7115C29.5054 24.7204 29.5008 24.7285 29.4949 24.7352C29.4803 24.7504 29.4617 24.7595 29.442 24.7612L29.515 24.8561H29.4571L29.3891 24.7612H29.3665V24.8561H29.3186V24.6029L29.4244 24.6ZM29.369 24.6489V24.718H29.4244C29.4342 24.7213 29.4447 24.7213 29.4546 24.718C29.4564 24.714 29.4573 24.7095 29.4573 24.705C29.4573 24.7005 29.4564 24.6961 29.4546 24.6921C29.4564 24.6881 29.4573 24.6836 29.4573 24.6791C29.4573 24.6746 29.4564 24.6702 29.4546 24.6662C29.4447 24.6628 29.4342 24.6628 29.4244 24.6662L29.369 24.6489ZM26.5992 23.4806C26.6076 23.3186 26.6572 23.163 26.7419 23.0329C26.8267 22.9028 26.9429 22.8038 27.0762 22.7482C27.2096 22.6926 27.3542 22.6828 27.4924 22.72C27.6306 22.7572 27.7562 22.8397 27.8538 22.9574C27.9515 23.0752 28.0168 23.223 28.0419 23.3826C28.067 23.5423 28.0506 23.7069 27.9949 23.8561C27.9392 24.0053 27.8465 24.1326 27.7282 24.2223C27.61 24.312 27.4714 24.3603 27.3294 24.3612C27.2297 24.3626 27.1308 24.3404 27.039 24.2961C26.9472 24.2517 26.8643 24.1861 26.7957 24.1034C26.7272 24.0207 26.6743 23.9227 26.6405 23.8155C26.6066 23.7083 26.5926 23.5943 26.5992 23.4806ZM8.91539 23.4806V22.105H8.39165V22.4388C8.30271 22.3081 8.18783 22.2033 8.05648 22.1333C7.92514 22.0632 7.7811 22.0299 7.63626 22.036C7.30235 22.036 6.98212 22.1876 6.74602 22.4574C6.50991 22.7272 6.37726 23.0932 6.37726 23.4748C6.37726 23.8564 6.50991 24.2224 6.74602 24.4922C6.98212 24.7621 7.30235 24.9137 7.63626 24.9137C7.7811 24.9198 7.92514 24.8864 8.05648 24.8164C8.18783 24.7463 8.30271 24.6416 8.39165 24.5108V24.8446H8.91539V23.4806ZM6.96647 23.4806C6.97482 23.3186 7.02443 23.163 7.10919 23.0329C7.19394 22.9028 7.31015 22.8038 7.44349 22.7482C7.57683 22.6926 7.72149 22.6828 7.85966 22.72C7.99782 22.7572 8.12346 22.8397 8.22109 22.9574C8.31873 23.0752 8.38411 23.223 8.40917 23.3826C8.43424 23.5423 8.4179 23.7069 8.36216 23.8561C8.30643 24.0053 8.21373 24.1326 8.09549 24.2223C7.97725 24.312 7.83863 24.3603 7.69669 24.3612C7.59657 24.3634 7.49714 24.3418 7.40469 24.2978C7.31225 24.2538 7.22882 24.1884 7.15969 24.1056C7.09055 24.0228 7.03723 23.9245 7.00311 23.8169C6.96898 23.7093 6.95479 23.5948 6.96144 23.4806H6.96647Z" fill="#231F20"/>
<path d="M11.9188 19.5486C15.6602 19.5486 18.6931 16.5156 18.6931 12.7743C18.6931 9.03295 15.6602 6 11.9188 6C8.17748 6 5.14453 9.03295 5.14453 12.7743C5.14453 16.5156 8.17748 19.5486 11.9188 19.5486Z" fill="#E61C24"/>
<path d="M20.3302 19.5486C24.0715 19.5486 27.1045 16.5156 27.1045 12.7743C27.1045 9.03295 24.0715 6 20.3302 6C16.5889 6 13.5559 9.03295 13.5559 12.7743C13.5559 16.5156 16.5889 19.5486 20.3302 19.5486Z" fill="#F99F1B"/>
<path d="M16.1242 7.46973C15.3235 8.10269 14.6765 8.90871 14.2318 9.82733C13.787 10.746 13.5559 11.7534 13.5559 12.774C13.5559 13.7946 13.787 14.802 14.2318 15.7207C14.6765 16.6393 15.3235 17.4453 16.1242 18.0783C16.9249 17.4453 17.5718 16.6393 18.0166 15.7207C18.4614 14.802 18.6925 13.7946 18.6925 12.774C18.6925 11.7534 18.4614 10.746 18.0166 9.82733C17.5718 8.90871 16.9249 8.10269 16.1242 7.46973Z" fill="#F26622"/>
</svg>
