<svg width="33" height="32" viewBox="0 0 33 32" fill="none" xmlns="http://www.w3.org/2000/svg">
<path d="M30.0576 4L2.23149 4C1.07879 4 0.144531 4.93426 0.144531 6.08696L0.144531 25.5652C0.144531 26.7179 1.07879 27.6522 2.23149 27.6522L30.0576 27.6522C31.2103 27.6522 32.1445 26.7179 32.1445 25.5652V6.08696C32.1445 4.93426 31.2103 4 30.0576 4Z" fill="#21C25E"/>
<path d="M8.49131 18.46H9.70744V15.08H8.49131V18.46ZM10.1268 12.78H9.30905V13.56H10.1268V12.78ZM5.53485 13.16H4.36066V14.14H5.45098C6.14292 14.14 6.54131 14.46 6.54131 15.06C6.54131 15.66 6.14292 16 5.45098 16H4.36066V14.16H3.14453V18.46H4.36066V16.98H5.51389C6.91873 16.98 7.73647 16.26 7.73647 15.02C7.73647 13.86 6.93969 13.16 5.53485 13.16ZM10.9445 12H8.49131V14.34H10.9445V12ZM10.5461 13.94H8.91066V12.38H10.5461V13.94ZM17.6752 13.16H16.5639V14.14H17.6123C18.3042 14.14 18.7026 14.46 18.7026 15.06C18.7026 15.66 18.3042 16 17.6123 16H16.5639V14.16H15.3478V18.46H16.5639V16.98H17.6752C19.08 16.98 19.8978 16.26 19.8978 15.02C19.8978 13.86 19.08 13.16 17.6752 13.16ZM27.8865 14.4L26.8381 16.92L25.7897 14.4H24.5316L26.209 18.46L25.559 20H26.8381L29.1445 14.4H27.8865ZM22.4349 14.38C21.701 14.38 21.1349 14.54 20.5058 14.84L20.8832 15.64C21.3236 15.4 21.7639 15.28 22.1623 15.28C22.7494 15.28 23.0429 15.52 23.0429 15.96V16.04H21.8687C20.8203 16.04 20.2542 16.5 20.2542 17.26C20.2542 18 20.7994 18.52 21.7219 18.52C22.309 18.52 22.7284 18.32 23.0639 17.98V18.42H24.259V15.78C24.2171 14.92 23.5671 14.38 22.4349 14.38ZM23.1478 17.1C23.0219 17.44 22.6655 17.72 22.1623 17.72C21.7429 17.72 21.4913 17.52 21.4913 17.2C21.4913 16.88 21.7219 16.74 22.1832 16.74H23.1478V17.1ZM12.8107 17.58C12.2236 17.58 11.8042 17.14 11.8042 16.48C11.8042 15.84 12.2236 15.4 12.8107 15.4C13.23 15.4 13.5445 15.56 13.7752 15.84L14.5929 15.28C14.2155 14.74 13.5655 14.42 12.7478 14.42C11.4687 14.4 10.5881 15.24 10.5881 16.48C10.5881 17.72 11.4687 18.54 12.7478 18.54C13.6284 18.54 14.2784 18.2 14.6349 17.64L13.7961 17.1C13.5865 17.42 13.251 17.58 12.8107 17.58Z" fill="white"/>
</svg>
