<svg width="33" height="32" viewBox="0 0 33 32" fill="none" xmlns="http://www.w3.org/2000/svg">
<path d="M30.0576 4L2.23149 4C1.07879 4 0.144531 4.93426 0.144531 6.08696L0.144531 25.5652C0.144531 26.7179 1.07879 27.6522 2.23149 27.6522L30.0576 27.6522C31.2103 27.6522 32.1445 26.7179 32.1445 25.5652V6.08696C32.1445 4.93426 31.2103 4 30.0576 4Z" fill="#C1272D"/>
<path d="M3.14453 17.3683C3.32018 16.6999 3.48752 15.9517 3.64655 15.1237C3.80558 14.2957 3.94681 13.416 4.07024 12.4845L4.30345 12.5125C4.34974 12.5125 4.3889 12.5125 4.41916 12.5125C4.44943 12.5125 4.50996 12.5125 4.56692 12.5125C4.62389 12.5125 4.69866 12.4975 4.79123 12.4845C4.68916 12.8274 4.58591 13.2688 4.48147 13.8088L4.46545 13.8855L4.33193 14.5738L4.7396 14.5869C5.12769 14.5962 5.38404 14.6018 5.50865 14.6018C5.76382 14.6018 6.1792 14.5937 6.7548 14.5775H6.8723L7.02718 13.7919C7.08414 13.4914 7.12509 13.2457 7.15001 13.055C7.17493 12.8679 7.19452 12.6809 7.20876 12.4938C7.29777 12.5088 7.37076 12.5163 7.42416 12.5219C7.47757 12.5275 7.5292 12.5219 7.5737 12.5219H7.69654L7.93509 12.4938C7.69772 13.434 7.49953 14.325 7.34049 15.1667C7.18146 16.0085 7.07228 16.7423 7.01294 17.3683L6.77795 17.3384H6.67469C6.63197 17.3384 6.58212 17.3384 6.52338 17.3384C6.46463 17.3384 6.38808 17.3515 6.29017 17.3664C6.37384 17.0391 6.44327 16.7473 6.50201 16.4948C6.56076 16.2423 6.60527 16.0403 6.63553 15.8869L6.81355 14.9516H6.10147H5.5674H4.92118H4.26607L4.10941 15.7447C4.06668 15.9823 4.02574 16.2348 3.98301 16.5041C3.94029 16.7735 3.9029 17.0653 3.86196 17.3758L3.65189 17.3496C3.60445 17.3471 3.55692 17.3471 3.50948 17.3496C3.47031 17.3496 3.42343 17.3496 3.36884 17.3496C3.31365 17.3496 3.24066 17.3627 3.14453 17.3776V17.3683ZM8.56172 12.6921C8.55942 12.6455 8.56645 12.5989 8.58237 12.5554C8.59828 12.5119 8.62272 12.4723 8.6541 12.4394C8.68549 12.4064 8.72312 12.3807 8.76455 12.364C8.80598 12.3473 8.8503 12.3399 8.89462 12.3423C8.93824 12.3396 8.98192 12.3463 9.02296 12.3621C9.064 12.3778 9.10151 12.4023 9.13317 12.434C9.16277 12.469 9.18542 12.5098 9.19979 12.5541C9.21415 12.5985 9.21995 12.6454 9.21684 12.6921C9.21808 12.7384 9.21035 12.7845 9.19413 12.8276C9.17791 12.8707 9.15354 12.9098 9.12249 12.9427C9.09228 12.9761 9.05579 13.0025 9.01532 13.0202C8.97486 13.0379 8.93132 13.0466 8.8875 13.0456C8.84406 13.0469 8.80085 13.0386 8.76067 13.0212C8.72049 13.0038 8.68425 12.9777 8.65429 12.9446C8.62351 12.9112 8.59945 12.8716 8.58354 12.8282C8.56764 12.7849 8.56021 12.7385 8.56172 12.6921ZM7.79267 17.3683C7.97544 16.6288 8.11726 15.9623 8.21814 15.3687C8.30514 14.899 8.35987 14.4233 8.38192 13.9453C8.44779 13.9547 8.50831 13.9603 8.55994 13.9659C8.61157 13.9715 8.67031 13.9659 8.72372 13.9659C8.77713 13.9659 8.83587 13.9659 8.90174 13.9659C8.96761 13.9659 9.0228 13.9547 9.07976 13.9453C8.90412 14.6224 8.76645 15.2522 8.66675 15.8345C8.57604 16.3412 8.51657 16.8535 8.48873 17.3683C8.38904 17.3533 8.31071 17.3459 8.26265 17.3402C8.21458 17.3346 8.16829 17.3402 8.13091 17.3402H8.01163C7.96179 17.3402 7.8888 17.3533 7.79089 17.3683H7.79267ZM10.7371 17.0466C10.9072 17.0406 11.073 16.9884 11.2181 16.8949C11.3632 16.8015 11.4827 16.6701 11.5649 16.5135C11.7998 16.1183 11.917 15.6585 11.9014 15.1929C11.9184 14.937 11.8525 14.6825 11.7145 14.4709C11.6517 14.3859 11.5705 14.3179 11.4775 14.2727C11.3846 14.2274 11.2827 14.2063 11.1804 14.2109C11.0046 14.215 10.8327 14.2669 10.6817 14.3617C10.5307 14.4564 10.4056 14.5908 10.3188 14.7515C10.0784 15.1452 9.95794 15.6065 9.97343 16.0739C9.9556 16.3325 10.0235 16.5896 10.1657 16.8015C10.2366 16.8858 10.325 16.9517 10.4242 16.9942C10.5233 17.0367 10.6304 17.0546 10.7371 17.0466ZM8.70592 19.3192C8.90886 18.571 9.09816 17.7405 9.27381 16.8277C9.44945 15.9149 9.60789 14.9535 9.74912 13.9434L9.90756 13.9584H10.0304H10.1639L10.3419 13.9434L10.2191 14.4429C10.3674 14.2598 10.5489 14.1097 10.7532 14.0014C10.9425 13.9036 11.151 13.8536 11.362 13.8555C11.524 13.8478 11.6856 13.8782 11.835 13.9445C11.9844 14.0109 12.1178 14.1115 12.2254 14.239C12.45 14.5325 12.5634 14.9029 12.5441 15.279C12.5629 15.8436 12.3829 16.3957 12.0385 16.8296C11.8849 17.0269 11.6907 17.1849 11.4705 17.2918C11.2503 17.3988 11.0099 17.4518 10.7674 17.4469C10.5593 17.4475 10.3569 17.375 10.1924 17.2411C10.0227 17.1062 9.898 16.9183 9.83635 16.7043L9.69038 17.503C9.69038 17.5479 9.66901 17.6171 9.65121 17.7087C9.53253 18.3559 9.43996 18.8921 9.3735 19.3173L9.19548 19.2855C9.15838 19.2791 9.12091 19.2753 9.08332 19.2743C9.03035 19.275 8.97746 19.2787 8.92488 19.2855C8.86614 19.2855 8.79849 19.3024 8.72728 19.3173L8.70592 19.3192ZM13.3701 15.322H13.63H14.148H14.7195H14.9758C14.9758 15.2453 14.9883 15.1798 14.9919 15.1349C14.9954 15.09 14.9919 15.0358 14.9919 14.9946C15.004 14.7711 14.9459 14.5496 14.8263 14.3643C14.773 14.29 14.7034 14.2305 14.6234 14.1907C14.5434 14.151 14.4554 14.1322 14.367 14.1361C14.2479 14.1382 14.1308 14.168 14.024 14.2233C13.9172 14.2786 13.8234 14.358 13.7493 14.4559C13.5527 14.7079 13.4209 15.0087 13.3665 15.3295L13.3701 15.322ZM13.3078 15.6231C13.3078 15.6998 13.2935 15.7765 13.2882 15.8513C13.2828 15.9262 13.2882 16.001 13.2882 16.072C13.2711 16.3508 13.3537 16.6263 13.5196 16.8446C13.6047 16.9376 13.7079 17.01 13.8223 17.0568C13.9367 17.1037 14.0594 17.1238 14.1819 17.1158C14.3625 17.1155 14.5406 17.0707 14.7017 16.9848C14.8959 16.8756 15.0726 16.7348 15.2251 16.5677L15.307 16.6388C15.2733 16.7106 15.2436 16.7842 15.2179 16.8595C15.1895 16.9362 15.1663 17.0185 15.145 17.1008C14.9787 17.2162 14.7992 17.3092 14.6109 17.3776C14.4321 17.4383 14.2451 17.4674 14.0572 17.4637C13.8665 17.4734 13.6759 17.4417 13.4973 17.3705C13.3188 17.2994 13.1561 17.1904 13.0194 17.0503C12.8884 16.9022 12.7867 16.7282 12.7204 16.5384C12.6541 16.3486 12.6244 16.1468 12.6331 15.9449C12.6157 15.3982 12.7935 14.8645 13.1315 14.4485C13.2852 14.2557 13.478 14.1015 13.6958 13.9973C13.9136 13.8931 14.1509 13.8414 14.3901 13.8462C14.5527 13.8378 14.7151 13.867 14.8658 13.9316C15.0165 13.9962 15.1519 14.0948 15.2624 14.2203C15.486 14.5084 15.5985 14.8742 15.5775 15.2453C15.5775 15.2696 15.5775 15.3126 15.5775 15.38C15.5775 15.4473 15.5669 15.5277 15.5615 15.6231H15.4102C14.9153 15.6138 14.5646 15.6082 14.3581 15.6082H13.9344L13.3078 15.6175V15.6231ZM15.5793 17.3664C15.7407 16.708 15.8707 16.0845 15.9692 15.4959C16.0582 14.9829 16.1218 14.4653 16.1597 13.9453C16.2202 13.9547 16.2754 13.9603 16.3235 13.9659C16.3715 13.9715 16.416 13.9659 16.4516 13.9659C16.4872 13.9659 16.5495 13.9659 16.6012 13.9659C16.6528 13.9659 16.7062 13.9547 16.7632 13.9453C16.7291 14.0519 16.7012 14.1606 16.6795 14.2708C16.6564 14.383 16.6368 14.5027 16.6225 14.6262C16.747 14.4108 16.9074 14.2207 17.0961 14.065C17.2341 13.9457 17.4053 13.8768 17.5838 13.8686C17.6129 13.8663 17.642 13.8663 17.6711 13.8686C17.7023 13.8736 17.7332 13.8804 17.7636 13.8892C17.7358 13.9874 17.7137 14.0874 17.6978 14.1885C17.6834 14.287 17.6739 14.3863 17.6693 14.4859L17.4913 14.4485C17.4477 14.441 17.4037 14.4373 17.3595 14.4372C17.0545 14.4372 16.8207 14.6399 16.6581 15.0452C16.4955 15.4504 16.3525 16.2248 16.2291 17.3683L16.0351 17.344C15.9878 17.3383 15.9402 17.3352 15.8926 17.3346H15.7929L15.5793 17.3627V17.3664ZM19.9836 17.1794C19.8304 17.2727 19.6665 17.345 19.4958 17.3945C19.3269 17.4422 19.1527 17.4661 18.9778 17.4656C18.7879 17.4739 18.5985 17.4412 18.4212 17.3695C18.2438 17.2977 18.0825 17.1885 17.947 17.0484C17.8142 16.9025 17.7109 16.7298 17.6433 16.5408C17.5756 16.3518 17.5451 16.1503 17.5536 15.9486C17.5394 15.4038 17.7263 14.8743 18.0752 14.4709C18.2386 14.2769 18.4404 14.1227 18.6664 14.019C18.8923 13.9153 19.1371 13.8646 19.3836 13.8705C19.5892 13.8682 19.7942 13.8921 19.9943 13.9416C20.1714 13.9867 20.3412 14.0592 20.4981 14.1567C20.4524 14.2516 20.4132 14.3497 20.3806 14.4503C20.3483 14.5482 20.3221 14.6482 20.3022 14.7496H20.2025C20.1376 14.5731 20.0288 14.4181 19.8874 14.3007C19.7561 14.1955 19.5951 14.1395 19.4299 14.1417C19.2506 14.1455 19.0751 14.1966 18.9195 14.2904C18.7639 14.3843 18.6334 14.5177 18.5398 14.6785C18.2928 15.0646 18.1681 15.5229 18.1838 15.9879C18.1651 16.2862 18.2477 16.5818 18.417 16.8221C18.4995 16.9208 18.6023 16.9984 18.7177 17.049C18.8331 17.0996 18.958 17.1218 19.0828 17.1139C19.2723 17.1152 19.4597 17.0718 19.6311 16.9867C19.7974 16.9065 19.9418 16.7836 20.0512 16.6295L20.1456 16.7099C20.1135 16.7822 20.0833 16.857 20.0548 16.9343C20.0281 17.0129 20.0049 17.0915 19.9854 17.1738L19.9836 17.1794ZM22.0379 16.9025C21.9085 17.0688 21.7502 17.2078 21.5715 17.3122C21.4128 17.3992 21.2361 17.4442 21.057 17.4431C20.9462 17.4497 20.8352 17.4333 20.7304 17.3948C20.6257 17.3563 20.5292 17.2964 20.4464 17.2187C20.3706 17.1395 20.3115 17.0444 20.2729 16.9397C20.2342 16.835 20.2169 16.7229 20.2221 16.6107C20.2139 16.4684 20.2367 16.326 20.2888 16.1944C20.341 16.0628 20.4211 15.9454 20.523 15.8513C20.7247 15.6705 21.0808 15.5277 21.5911 15.423L22.1501 15.307C22.1933 15.2975 22.2335 15.2768 22.2671 15.2468C22.3007 15.2167 22.3266 15.1782 22.3424 15.1349C22.39 15.0005 22.4112 14.8573 22.4047 14.7141C22.4088 14.6347 22.3968 14.5552 22.3695 14.4811C22.3421 14.4069 22.3001 14.3397 22.2462 14.2839C22.1899 14.2306 22.1241 14.1897 22.0526 14.1634C21.9811 14.137 21.9053 14.1259 21.8297 14.1305C21.6422 14.1264 21.4574 14.1769 21.2956 14.2764C21.1417 14.3756 21.0181 14.519 20.9395 14.6898L20.8221 14.658C20.839 14.5915 20.8521 14.5241 20.8612 14.4559C20.8695 14.394 20.8737 14.3315 20.8737 14.2689C20.8737 14.2564 20.8737 14.2371 20.8737 14.2109C20.8737 14.1829 20.8737 14.1623 20.8737 14.1473C21.0276 14.0449 21.1941 13.965 21.3686 13.9098C21.5425 13.8591 21.7222 13.8339 21.9026 13.8349C22.1721 13.8163 22.4395 13.8963 22.6592 14.0613C22.7478 14.1404 22.8177 14.24 22.8634 14.3523C22.9092 14.4646 22.9294 14.5865 22.9227 14.7085C22.9215 14.8092 22.9143 14.9098 22.9013 15.0096C22.8871 15.1343 22.8669 15.2628 22.8408 15.3949L22.6147 16.607C22.604 16.6613 22.5951 16.7099 22.5898 16.7585C22.5845 16.8072 22.5898 16.8502 22.5898 16.8895C22.5882 16.9176 22.5919 16.9459 22.6008 16.9725C22.6097 16.9992 22.6235 17.0237 22.6414 17.0447C22.6609 17.0639 22.6839 17.0788 22.7089 17.0885C22.734 17.0981 22.7607 17.1023 22.7874 17.1008C22.8156 17.1003 22.8437 17.0965 22.8711 17.0896C22.915 17.0795 22.9584 17.067 23.001 17.0522L23.0865 17.2392C22.992 17.2973 22.8917 17.3444 22.7874 17.3795C22.6962 17.4089 22.6015 17.424 22.5061 17.4244C22.4439 17.4281 22.3816 17.4176 22.3236 17.3937C22.2655 17.3698 22.213 17.3331 22.1697 17.286C22.0829 17.1749 22.0369 17.035 22.0397 16.8913L22.0379 16.9025ZM22.2462 15.5539L21.6997 15.6905C21.4474 15.7366 21.2093 15.8457 21.0054 16.0085C20.9345 16.0734 20.8782 16.154 20.8407 16.2446C20.8031 16.3352 20.7852 16.4334 20.7882 16.5322C20.7824 16.6732 20.8298 16.811 20.92 16.9156C20.9647 16.9644 21.0188 17.0026 21.0786 17.0277C21.1385 17.0529 21.2027 17.0644 21.2671 17.0615C21.4638 17.057 21.6527 16.9802 21.8012 16.8446C21.957 16.7228 22.0647 16.545 22.1038 16.3451L22.2444 15.5521L22.2462 15.5539ZM23.1719 17.3683C23.3333 16.7099 23.4633 16.0864 23.5618 15.4978C23.6508 14.9848 23.7144 14.4672 23.7523 13.9472C23.8128 13.9565 23.868 13.9621 23.9161 13.9678C23.9641 13.9734 24.0086 13.9678 24.0442 13.9678C24.0798 13.9678 24.1422 13.9678 24.1938 13.9678C24.2454 13.9678 24.2988 13.9565 24.3558 13.9472C24.3217 14.0538 24.2938 14.1625 24.2721 14.2726C24.249 14.3849 24.2294 14.5046 24.2151 14.628C24.3396 14.4126 24.5 14.2225 24.6887 14.0669C24.8267 13.9476 24.9979 13.8787 25.1765 13.8705C25.2055 13.8682 25.2346 13.8682 25.2637 13.8705C25.2949 13.8754 25.3258 13.8823 25.3563 13.8911C25.3284 13.9893 25.3064 14.0892 25.2904 14.1903C25.276 14.2889 25.2665 14.3882 25.2619 14.4877L25.0839 14.4503C25.0403 14.4429 24.9963 14.4392 24.9521 14.4391C24.6471 14.4391 24.4133 14.6418 24.2507 15.047C24.0882 15.4523 23.9481 16.2223 23.8306 17.3571L23.6366 17.3328C23.5893 17.3271 23.5417 17.324 23.4942 17.3234H23.3945L23.1808 17.3515L23.1719 17.3683ZM27.4872 16.8689C27.3311 17.0501 27.1446 17.1998 26.9371 17.3103C26.7442 17.4042 26.5337 17.4515 26.3211 17.4487C26.1632 17.4545 26.0061 17.422 25.862 17.3539C25.7178 17.2858 25.5905 17.1839 25.4898 17.0559C25.268 16.7588 25.1561 16.3874 25.1747 16.0103C25.1572 15.4517 25.3344 14.9056 25.6731 14.4747C25.8223 14.2787 26.0121 14.1212 26.2281 14.0142C26.4441 13.9072 26.6805 13.8536 26.9193 13.8574C27.1357 13.8524 27.3477 13.922 27.5228 14.0557C27.6987 14.1918 27.8289 14.383 27.8948 14.6018L28.0479 13.8106C28.1156 13.4571 28.1743 13.1335 28.226 12.8417C28.2776 12.5499 28.3185 12.2806 28.3559 12.0094C28.4378 12.0262 28.5001 12.0374 28.5464 12.043C28.5838 12.0453 28.6212 12.0453 28.6586 12.043C28.7103 12.0423 28.762 12.0386 28.8134 12.0318C28.8722 12.0318 28.9398 12.015 29.011 12C28.7832 12.8729 28.582 13.7576 28.4075 14.6542C28.2331 15.5508 28.0871 16.453 27.9696 17.3608L27.8112 17.344H27.6848H27.5477L27.3697 17.3608L27.4925 16.8614L27.4872 16.8689ZM26.9798 14.2652C26.8069 14.2688 26.6378 14.3199 26.4895 14.4134C26.3411 14.5069 26.2187 14.6396 26.1342 14.7982C25.8983 15.1977 25.7811 15.6621 25.7977 16.1319C25.7795 16.3831 25.8422 16.6335 25.9758 16.8427C26.0408 16.9265 26.1241 16.9927 26.2186 17.0357C26.3131 17.0787 26.416 17.0971 26.5187 17.0896C26.6956 17.0878 26.8691 17.0378 27.022 16.9443C27.175 16.8509 27.3021 16.7172 27.391 16.5565C27.6303 16.1569 27.7494 15.6909 27.7328 15.2191C27.7494 14.9679 27.6806 14.7187 27.5388 14.5158C27.4693 14.4334 27.3828 14.3686 27.286 14.3265C27.1891 14.2844 27.0844 14.266 26.9798 14.2726V14.2652Z" fill="white" stroke="white" stroke-width="0.2" stroke-linecap="round" stroke-linejoin="round"/>
</svg>
