<svg width="33" height="24" viewBox="0 0 33 24" fill="none" xmlns="http://www.w3.org/2000/svg">
<path d="M30.0576 0L2.23149 0C1.07889 0 0.144531 0.934362 0.144531 2.08696L0.144531 21.5652C0.144531 22.7178 1.07889 23.6522 2.23149 23.6522L30.0576 23.6522C31.2102 23.6522 32.1445 22.7178 32.1445 21.5652V2.08696C32.1445 0.934362 31.2102 0 30.0576 0Z" fill="#1A1876"/>
<path d="M12.832 15.1655H14.647L15.783 8.50391H13.9673L12.832 15.1655Z" fill="white"/>
<path d="M19.4442 11.1787C18.8098 10.8705 18.4209 10.6646 18.4251 10.3529C18.4251 10.0747 18.7541 9.7797 19.4685 9.7797C19.995 9.76652 20.5168 9.88034 20.9899 10.1115L21.2362 8.66804C20.7143 8.47978 20.1632 8.38557 19.6084 8.38978C17.8143 8.38978 16.5475 9.29413 16.5398 10.588C16.5301 11.5453 17.4442 12.0795 18.1308 12.3967C18.8376 12.723 19.0755 12.931 19.072 13.2225C19.0671 13.6691 18.5078 13.8736 17.9854 13.8736C17.3095 13.8894 16.6408 13.7326 16.0425 13.418L15.7878 14.9087C16.4351 15.1479 17.1201 15.2683 17.8101 15.2642C19.719 15.2642 20.9579 14.371 20.9718 12.9887C20.9753 12.2305 20.4918 11.6538 19.4442 11.1787Z" fill="white"/>
<path d="M25.8886 8.51026H24.4854C24.2883 8.48501 24.0883 8.52543 23.9164 8.62527C23.7445 8.72512 23.6102 8.87882 23.5345 9.0626L20.8381 15.1656H22.7449C22.7449 15.1656 23.0566 14.3447 23.1268 14.1645H25.4524C25.5067 14.3983 25.6736 15.1628 25.6736 15.1628H27.3585L25.8886 8.51026ZM23.65 12.8045C23.7251 12.6118 24.466 10.7092 24.6141 10.3064C24.859 11.4543 24.6204 10.3405 25.1567 12.8045H23.65Z" fill="white"/>
<path d="M11.3089 8.50832L9.53077 13.0509L9.34155 12.1278L8.70503 9.06692C8.65863 8.88959 8.54974 8.73499 8.3984 8.63158C8.24705 8.52817 8.06344 8.48291 7.88138 8.50414H4.95338L4.93042 8.64327C5.59615 8.80035 6.23773 9.04626 6.8379 9.3744L8.45181 15.1601H10.3732L13.2316 8.5111L11.3089 8.50832Z" fill="white"/>
</svg>
