<svg width="33" height="24" viewBox="0 0 33 24" fill="none" xmlns="http://www.w3.org/2000/svg">
<path fill-rule="evenodd" clip-rule="evenodd" d="M29.7448 2.42752e-07C28.1448 4.23947e-07 11.2049 -3.84764e-07 1.74478 2.42752e-07C0.944775 2.95818e-07 0.144775 0.96 0.144775 1.92L0.144775 21.12C0.144775 23.04 0.944775 24 2.54478 24C11.4694 24 28.1448 24 29.7448 24C31.3448 24 32.1448 23.04 32.1448 21.12V2.88C32.1448 0.96 31.3448 2.42752e-07 29.7448 2.42752e-07Z" fill="#306FC5"/>
<path fill-rule="evenodd" clip-rule="evenodd" d="M2.84855 9.32469L2.22879 7.81449L1.61258 9.32469H2.84855ZM16.5017 8.72333C16.3773 8.79885 16.2301 8.80137 16.0538 8.80137L14.9538 8.80137V7.95994H16.0688C16.2266 7.95994 16.3912 7.96703 16.4982 8.02827C16.6156 8.08346 16.6883 8.20092 16.6883 8.36317C16.6883 8.52874 16.6192 8.66197 16.5017 8.72333C16.6192 8.66197 16.5017 8.72333 16.5017 8.72333ZM24.349 9.32469L23.7224 7.81449L23.0992 9.32469H24.349ZM9.72117 10.9593H8.79291L8.78948 7.99239L7.4765 10.9593H6.68146L5.36505 7.98977L5.36505 10.9593H3.52338L3.17545 10.1144H1.29013L0.938659 10.9593H-0.0447936L1.5767 7.17108H2.92202L4.46204 10.7578L4.46204 7.17108H5.9399L7.12491 9.74094L8.21348 7.17108H9.72106V10.9593H9.72117ZM13.4209 10.9593H10.396V7.17108H13.4209V7.95994H11.3015V8.64277H13.37V9.4193H11.3015V10.1758H13.4209V10.9593ZM17.6858 8.19132C17.6858 8.79531 17.2827 9.10736 17.0478 9.20106C17.2459 9.27647 17.4151 9.4097 17.4957 9.52008C17.6235 9.70849 17.6456 9.8768 17.6456 10.2151V10.9593H16.7323L16.7289 10.4816C16.7289 10.2536 16.7507 9.92582 16.5859 9.74357C16.4536 9.61034 16.2519 9.58143 15.9259 9.58143L14.9539 9.58143V10.9593H14.0485V7.17108L16.1311 7.17108C16.5939 7.17108 16.9349 7.18331 17.2276 7.35253C17.5141 7.52175 17.6858 7.76878 17.6858 8.19132C17.6858 7.76878 17.6858 8.19132 17.6858 8.19132ZM19.1349 10.9593H18.2109V7.17108L19.1349 7.17108V10.9593ZM29.8535 10.9593H28.5704L26.8541 8.11603V10.9593H25.01L24.6576 10.1144H22.7766L22.4347 10.9593H21.3752C20.9351 10.9593 20.3778 10.862 20.0622 10.5403C19.744 10.2187 19.5784 9.78299 19.5784 9.09411C19.5784 8.53228 19.6774 8.01867 20.0666 7.61282C20.3593 7.31048 20.8177 7.17108 21.4417 7.17108H22.3183V7.9828H21.4601C21.1296 7.9828 20.9431 8.03193 20.7633 8.20721C20.609 8.36672 20.503 8.66825 20.503 9.06531C20.503 9.47117 20.5837 9.7638 20.752 9.95496C20.8914 10.1049 21.1447 10.1503 21.3831 10.1503H21.7897L23.0659 7.17119H24.4227L25.9557 10.7543V7.17119H27.3344L28.9261 9.8095V7.17119H29.8535V10.9593ZM-0.0553057 11.7034H1.4918L1.84064 10.862H2.62162L2.96955 11.7034H6.0136V11.0601L6.28532 11.7061H7.86556L8.13727 11.0505V11.7034L15.7023 11.7034L15.6988 10.3222H15.8452C15.9476 10.3257 15.9776 10.3352 15.9776 10.5044V11.7034H19.8902V11.3819C20.2058 11.551 20.6967 11.7034 21.3426 11.7034H22.9887L23.341 10.862H24.1219L24.4664 11.7034H27.6385V10.9041L28.1188 11.7034L30.6607 11.7034V6.41992L28.1451 6.41992V7.04391L27.7928 6.41992H25.2115V7.04391L24.8881 6.41992L21.4014 6.41992C20.8177 6.41992 20.3047 6.50139 19.8902 6.72843V6.41992L17.4841 6.41992V6.72843C17.2204 6.49442 16.8611 6.41992 16.4615 6.41992L7.67097 6.41992L7.08115 7.78455L6.47545 6.41992H3.70665V7.04391L3.40249 6.41992L1.04115 6.41992L-0.0554199 8.93197L-0.0554199 11.7034H-0.0553057ZM32.1525 14.493H30.5022C30.3374 14.493 30.228 14.4992 30.1358 14.5614C30.0402 14.6228 30.0035 14.7139 30.0035 14.8341C30.0035 14.977 30.0841 15.0742 30.2015 15.1163C30.297 15.1495 30.3996 15.1592 30.5504 15.1592L31.0412 15.1724C31.5364 15.1846 31.867 15.2697 32.0685 15.4773C32.1052 15.5063 32.1272 15.5387 32.1525 15.5712V14.493ZM32.1525 16.9911C31.9325 17.3127 31.5039 17.4758 30.9237 17.4758H29.1751L29.1751 16.6633H30.9166C31.0894 16.6633 31.2103 16.6405 31.2831 16.5695C31.3461 16.5108 31.3901 16.4257 31.3901 16.3223C31.3901 16.2119 31.3461 16.1243 31.2795 16.0717C31.2138 16.0139 31.1182 15.9876 30.9605 15.9876C30.1103 15.9587 29.0496 16.0139 29.0496 14.8149C29.0496 14.2653 29.3986 13.6867 30.3488 13.6867H32.1524V12.9328H30.4766C29.9709 12.9328 29.6035 13.054 29.3434 13.2423V12.9328H26.8647C26.4683 12.9328 26.003 13.0311 25.783 13.2423V12.9328H21.3567V13.2423C21.0044 12.9882 20.41 12.9328 20.1357 12.9328H17.2161V13.2423C16.9374 12.9724 16.3176 12.9328 15.9399 12.9328L12.6723 12.9328L11.9246 13.7421L11.2243 12.9328L6.34325 12.9328L6.34325 18.22H11.1324L11.9029 17.398L12.6287 18.22L15.5807 18.2226V16.9789H15.871C16.2627 16.9849 16.7246 16.9691 17.1322 16.793L17.1322 18.2199H19.5671L19.5671 16.8419H19.6846C19.8345 16.8419 19.8492 16.848 19.8492 16.9978L19.8492 18.2197H27.2461C27.7157 18.2197 28.2066 18.0995 28.4784 17.8814V18.2197H30.8247C31.3129 18.2197 31.7897 18.1513 32.1525 17.976V16.9911ZM28.5406 15.4773C28.7169 15.6598 28.8114 15.8902 28.8114 16.2802C28.8114 17.0953 28.3021 17.4758 27.3889 17.4758H25.6253L25.6253 16.6633H27.3818C27.5536 16.6633 27.6754 16.6405 27.7517 16.5695C27.814 16.5108 27.8586 16.4257 27.8586 16.3223C27.8586 16.2119 27.8103 16.1243 27.7482 16.0717C27.6789 16.0139 27.5834 15.9876 27.4257 15.9876C26.5789 15.9587 25.5184 16.0139 25.5184 14.8149C25.5184 14.2653 25.8637 13.6867 26.813 13.6867H28.6283V14.4932L26.9673 14.4932C26.8026 14.4932 26.6956 14.4994 26.6045 14.5617C26.5053 14.623 26.4685 14.7141 26.4685 14.8343C26.4685 14.9772 26.5527 15.0745 26.6667 15.1165C26.7622 15.1498 26.8648 15.1595 27.019 15.1595L27.5065 15.1726C27.998 15.1846 28.3355 15.2696 28.5406 15.4773C28.3355 15.2696 28.5406 15.4773 28.5406 15.4773ZM20.3699 15.2433C20.2488 15.3152 20.099 15.3214 19.9228 15.3214H18.8228V14.4704H19.9378C20.099 14.4704 20.2603 14.4738 20.3699 14.5388C20.4873 14.6002 20.5574 14.7175 20.5574 14.8796C20.5574 15.0418 20.4873 15.1724 20.3699 15.2433C20.4873 15.1724 20.3699 15.2433 20.3699 15.2433ZM20.9168 15.7149C21.1183 15.7893 21.2831 15.9226 21.3603 16.033C21.4882 16.218 21.5067 16.3906 21.5104 16.7246L21.5104 17.4758H20.6013L20.6013 17.0017C20.6013 16.7738 20.6232 16.4362 20.4549 16.26C20.3226 16.1243 20.1209 16.0918 19.7906 16.0918H18.8229L18.8229 17.4758H17.9131L17.9131 13.6866H20.0036C20.462 13.6866 20.7959 13.7069 21.0931 13.8655C21.3789 14.0381 21.5586 14.2746 21.5586 14.7069C21.5585 15.3117 21.1551 15.6203 20.9168 15.7149C21.1551 15.6203 20.9168 15.7149 20.9168 15.7149ZM22.0607 13.6866H25.0828V14.4702H22.9624V15.1591H25.031V15.9322H22.9624V16.6861L25.0828 16.6896L25.0828 17.4758H22.0607L22.0607 13.6866ZM15.9514 15.4353H14.7813V14.4704H15.9619C16.2888 14.4704 16.5158 14.6036 16.5158 14.9349C16.5158 15.2626 16.2993 15.4353 15.9514 15.4353ZM13.8794 17.1312L12.4892 15.5877L13.8794 14.0933V17.1312ZM10.2892 16.6861H8.06289V15.9322H10.0508V15.1591H8.06289V14.4702H10.333L11.3235 15.5745L10.2892 16.6861ZM17.4879 14.9349C17.4879 15.9875 16.7026 16.2049 15.9111 16.2049H14.7813V17.4758H13.0213L11.9063 16.2214L10.7476 17.4758H7.1609L7.1609 13.6866L10.8028 13.6866L11.9168 14.9287L13.0686 13.6866L15.9619 13.6866C16.6805 13.6866 17.4879 13.8856 17.4879 14.9349C17.4879 13.8856 17.4879 14.9349 17.4879 14.9349Z" fill="white"/>
</svg>
