<svg width="33" height="24" viewBox="0 0 33 24" fill="none" xmlns="http://www.w3.org/2000/svg">
<path d="M30.0576 0L2.23149 0C1.07879 0 0.144531 0.934261 0.144531 2.08696L0.144531 21.5652C0.144531 22.7179 1.07879 23.6522 2.23149 23.6522L30.0576 23.6522C31.2103 23.6522 32.1445 22.7179 32.1445 21.5652V2.08696C32.1445 0.934261 31.2103 0 30.0576 0Z" fill="#121212"/>
<path d="M18.8822 13.4736C18.7402 13.6122 18.5722 13.7213 18.388 13.7948C18.2037 13.8683 18.0067 13.9047 17.8084 13.9019C17.5344 13.8981 17.267 13.8178 17.0364 13.67L16.479 14.5566C16.9627 14.861 17.5348 14.9938 18.1032 14.9336C18.6716 14.8734 19.2031 14.6237 19.6124 14.2247L18.8822 13.4736Z" fill="white"/>
<path d="M8.40836 9.49885C8.66042 9.4161 8.92413 9.37434 9.18942 9.37519C9.75635 9.37356 10.3064 9.56819 10.7461 9.92603C11.1858 10.2839 11.4881 10.7829 11.6017 11.3383L13.2875 10.9946C13.1692 10.4146 12.929 9.86643 12.5828 9.38632C12.2366 8.90622 11.7923 8.50517 11.2794 8.20976C10.7664 7.91435 10.1966 7.73132 9.60756 7.67281C9.01854 7.61429 8.42382 7.68162 7.86279 7.87034L8.40836 9.49885Z" fill="#FFF100"/>
<path d="M6.42436 14.9546L7.56095 13.667C7.30078 13.4367 7.09247 13.1537 6.94981 12.8369C6.80714 12.52 6.73337 12.1764 6.73337 11.8289C6.73337 11.4814 6.80714 11.1379 6.94981 10.821C7.09247 10.5042 7.30078 10.2212 7.56095 9.99086L6.42073 8.70605C5.9786 9.09766 5.62462 9.57865 5.38219 10.1172C5.13976 10.6558 5.0144 11.2397 5.0144 11.8303C5.0144 12.4209 5.13976 13.0048 5.38219 13.5434C5.62462 14.082 5.9786 14.563 6.42073 14.9546H6.42436Z" fill="#00A3DF"/>
<path d="M11.5908 12.3213C11.5212 12.6615 11.3802 12.9831 11.1771 13.2648C10.9741 13.5466 10.7135 13.782 10.4128 13.9556C10.112 14.1292 9.77781 14.237 9.43229 14.2719C9.08677 14.3068 8.73777 14.268 8.40836 14.158L7.86279 15.7865C8.42237 15.9726 9.01496 16.0382 9.60169 15.9792C10.1884 15.9201 10.756 15.7376 11.2673 15.4437C11.7785 15.1498 12.2218 14.7511 12.5681 14.2737C12.9144 13.7964 13.1558 13.2513 13.2766 12.6741L11.5908 12.3213Z" fill="#EE4023"/>
<path d="M17.8721 9.85474C17.537 9.85006 17.2043 9.91158 16.893 10.0358C16.5817 10.16 16.2981 10.3444 16.0582 10.5785C15.8184 10.8126 15.6271 11.0917 15.4954 11.3999C15.3637 11.7081 15.2941 12.0392 15.2907 12.3743C15.2814 12.8815 15.4253 13.3796 15.7035 13.8037L20.3153 11.8288C20.1854 11.2763 19.8749 10.7829 19.4331 10.4267C18.9912 10.0705 18.4432 9.87181 17.8758 9.86201L17.8721 9.85474ZM16.3464 12.578C16.3432 12.5174 16.3432 12.4567 16.3464 12.3962C16.3554 12.0929 16.4557 11.7995 16.6341 11.5541C16.8126 11.3088 17.0609 11.123 17.3466 11.0211C17.6324 10.9191 17.9422 10.9057 18.2356 10.9827C18.5291 11.0596 18.7925 11.2233 18.9914 11.4523L16.3464 12.578Z" fill="white"/>
<path d="M21.7588 8.70898V13.6245L22.6126 13.98L22.2089 14.9484L21.3642 14.5983C21.1946 14.5241 21.05 14.4026 20.9478 14.2483C20.8363 14.068 20.7797 13.8591 20.785 13.6472V8.70898H21.7588Z" fill="white"/>
<path d="M24.8356 10.9797C24.9885 10.9297 25.1484 10.9043 25.3093 10.9042C25.6551 10.9067 25.9895 11.0279 26.2565 11.2476C26.5235 11.4672 26.7069 11.772 26.7759 12.1108L27.8043 11.8999C27.7331 11.5447 27.5869 11.2088 27.3754 10.9146C27.164 10.6204 26.8922 10.3747 26.5782 10.194C26.2643 10.0132 25.9153 9.90157 25.5547 9.86647C25.1942 9.83137 24.8302 9.87363 24.4873 9.99042L24.8356 10.9797Z" fill="white"/>
<path d="M23.623 14.3094L24.3167 13.5257C24.1592 13.3843 24.0332 13.2113 23.9469 13.018C23.8606 12.8246 23.816 12.6153 23.816 12.4036C23.816 12.1919 23.8606 11.9826 23.9469 11.7893C24.0332 11.5959 24.1592 11.423 24.3167 11.2816L23.623 10.4941C23.352 10.7331 23.1351 11.0269 22.9865 11.3561C22.8378 11.6853 22.761 12.0424 22.761 12.4036C22.761 12.7648 22.8378 13.1219 22.9865 13.4511C23.1351 13.7803 23.352 14.0742 23.623 14.3131V14.3094Z" fill="white"/>
<path d="M26.7754 12.7051C26.7063 13.0442 26.5226 13.3492 26.2552 13.5689C25.9878 13.7886 25.653 13.9097 25.3069 13.9117C25.1457 13.9122 24.9856 13.8858 24.8332 13.8335L24.5022 14.8291C24.763 14.9153 25.0359 14.9591 25.3105 14.9592C25.8978 14.9592 26.4671 14.7561 26.9218 14.3844C27.3765 14.0127 27.6888 13.4952 27.8056 12.9197L26.7754 12.7051Z" fill="white"/>
</svg>
